<?xml version="1.0" encoding="utf-8"?>
<!-- Generator: Adobe Illustrator 19.0.0, SVG Export Plug-In . SVG Version: 6.00 Build 0)  -->
<svg version="1.1" id="Layer_1" xmlns="http://www.w3.org/2000/svg" xmlns:xlink="http://www.w3.org/1999/xlink" x="0px" y="0px"
	 viewBox="0 0 300 700" style="enable-background:new 0 0 300 700;" xml:space="preserve">
<style type="text/css">
	.st0{fill:#E8BB34;}
	.st1{fill:#A9CDE1;}
	.st2{fill:#F3DAD4;}
	.st3{fill:#425E81;}
	.st4{fill:#C2DCEA;}
	.st5{fill:#D41C54;}
	.st6{fill:#FFFFFF;}
	.st7{fill:#8E4720;}
	.st8{fill:#1D1D1B;}
	.st9{fill:#F0D1CA;}
	.st10{fill:#EE95BF;}
</style>
<g>
	<path class="st0" d="M206.9,194c5.2-8.1,9.3-17.9,7-27.3c-2.1-8.4-9-15-10.7-23.5c-1.7-8.5,2.1-16.9,5.1-25.1
		c3.8-10.2,6.3-21,6.1-31.9c-0.2-10.9-3.4-21.9-10.2-30.4c-10-12.5-29.5-19.3-45.4-17.5S130.6,49.5,119.3,61S100,86.6,93.5,101.2
		c-3.1,7.1-6,14.6-5.7,22.3c0.5,13.2,10.1,25,9.4,38.2c-0.3,6.4-3,12.3-5,18.4c-1.9,6.1-3,12.9-0.3,18.7c2.3,4.7,6.8,7.9,11.4,10.4
		c13.3,7.2,28.6,10.2,43.7,11.4c13.1,1,26.8,0.6,38.4-5.5C194.4,210.4,201.4,202.6,206.9,194z"/>
	<path class="st1" d="M120.4,162.4c0,0-11.4,30.5-8.2,46.6c3.1,16.1,8.6,29,9,41.5c0.4,12.5-6.3,30.1-6.3,30.1l69.7,2.7
		c0,0-11.7-22.3-3.1-53.6s4.1-56.8,1.4-63c-2.7-6.3-6.5-4.3-11.9-7.4s-35.6-0.8-40.7,0.4C125.1,160.8,120.4,162.4,120.4,162.4z"/>
	<g>
		<g>
			<path class="st2" d="M185,401.2c0,0-2.9,34.6-1.8,47c1.2,12.3,12.3,46.4,11.7,62.2c-0.6,15.9-3.5,60.5-1.8,68.7
				c1.8,8.2,6.5,29.4,10,40.5c3.5,11.2,0,24.7-7.6,25.3c-7.6,0.6-12.3-12.9-12.3-21.1c0-8.2,4.7-27,3.5-37
				c-1.2-10-19.4-127.4-21.1-138s-4.7-84.8-1.8-92.4C166.8,348.7,185.3,376.9,185,401.2z"/>
			<path class="st1" d="M204.7,627.5c0,0,5.9,22.9-3.2,27.3c-9.1,4.4-14.1-3.5-15.9-11.7c-1.8-8.2-2.3-19.4-2.3-19.4
				s3.1,13.4,13.4,13.4C203.1,637.1,204.7,627.5,204.7,627.5z"/>
			<path class="st1" d="M183.2,626.5c0-0.6-2-9.4-0.2-11.5c1.8-2.2,12.5-2.7,20.7,0.2c8.2,2.9,11.2,6.7,7,10
				c-4.1,3.3-7.8-0.6-15.3-0.4C188.1,624.9,183.2,626.5,183.2,626.5z"/>
			<circle class="st3" cx="208.1" cy="621.5" r="2"/>
		</g>
		<g>
			<path class="st2" d="M111,404.1c0,0,2.9,34.6,1.8,47s-12.3,46.4-11.7,62.2s3.5,60.5,1.8,68.7c-1.8,8.2-6.5,29.4-10,40.5
				s0,24.7,7.6,25.3c7.6,0.6,12.3-12.9,12.3-21.1s-4.7-27-3.5-37s19.4-127.4,21.1-138c1.8-10.6,4.7-84.8,1.8-92.4
				C129.2,351.6,110.7,379.8,111,404.1z"/>
			<path class="st1" d="M91.3,630.5c0,0-5.9,22.9,3.2,27.3c9.1,4.4,14.1-3.5,15.9-11.7c1.8-8.2,2.3-19.4,2.3-19.4
				s-3.1,13.4-13.4,13.4C92.9,640.1,91.3,630.5,91.3,630.5z"/>
			<path class="st1" d="M112.8,629.4c0-0.6,2-9.4,0.2-11.5c-1.8-2.2-12.5-2.7-20.7,0.2s-11.2,6.7-7,10c4.1,3.3,7.8-0.6,15.3-0.4
				S112.8,629.4,112.8,629.4z"/>
			<circle class="st3" cx="87.9" cy="624.4" r="2"/>
		</g>
		<path class="st3" d="M116.6,269.6c0,0-15.3,46.1-18.8,70.8c-3.5,24.7,5,96,5.6,103.6s1.8,11.7,1.8,11.7s7.2,1,11.5-0.4
			c2.9-8.8,11.5-90.6,11.5-90.6s-2.5,86.7,5.7,90.2s58.7,1,58.7,1s8.2-91.1,4.3-120.9c-3.5-27-8.2-61.4-13.8-61.4
			C171.3,273.7,136,278.1,116.6,269.6z"/>
	</g>
	<path class="st2" d="M62.1,246.9c0,0-0.4,9,7.8,17.2c8.2,8.2,23.9,16.4,25.4,20c1.6,3.5,3.5,10.2,9.4,7.4c5.9-2.7,4.7-6.3,11.4-8.2
		c6.7-2,11.4,0.8,14.5,2.3c3.1,1.6,5.5-2.7-1.2-5.5c-6.7-2.7-13.7,0-14.9-1.6c-1.2-1.6,0.4-3.9,5.1-4.3c4.7-0.4,11.8,1,14.9,5.1
		c1.8,2.4,3.9-0.4,1.2-4.3c-2.7-3.9-7.2-5.3-11.6-4.6c-5,0.8-6.7,1.9-7-0.4c-0.4-2.3,5-6.3,10.1-6.3s8.5,0.4,8.9-2.7
		c0.4-3.1-7.8-4.3-13.3-1.2c-5.5,3.1-10.2,11.7-16.4,12.9s-14.9-4.3-22.7-12.9c-7.8-8.6-9.4-18.8-12.5-21.1
		C67.9,236.3,60.9,240.3,62.1,246.9z"/>
	<path class="st2" d="M235.1,248.1c0,0,0.4,9-7.8,17.2c-8.2,8.2-23.9,16.4-25.4,20c-1.6,3.5-3.5,10.2-9.4,7.4
		c-5.9-2.7-4.7-6.3-11.4-8.2c-6.7-2-11.4,0.8-14.5,2.3c-3.1,1.6-5.5-2.7,1.2-5.5c6.7-2.7,13.7,0,14.9-1.6c1.2-1.6-0.4-3.9-5.1-4.3
		c-4.7-0.4-11.8,1-14.9,5.1c-1.8,2.4-3.9-0.4-1.2-4.3c2.7-3.9,7.2-5.3,11.6-4.6c5,0.8,6.7,1.9,7-0.4c0.4-2.3-5-6.3-10.1-6.3
		s-8.5,0.4-8.9-2.7c-0.4-3.1,7.8-4.3,13.3-1.2s10.2,11.7,16.4,12.9s14.9-4.3,22.7-12.9c7.8-8.6,9.4-18.8,12.5-21.1
		C229.2,237.5,236.3,241.4,235.1,248.1z"/>
	<path class="st1" d="M126,161.9c0,0-8.2-3.5-23.2,12.9s-44.3,44.9-47,55.2c-2.6,10.3,1.2,13.5,2.6,18.2c1.5,4.7,6.2,2.3,9.4,1.2
		c3.2-1.2,7.3-4.1,7.3-4.1s-6.2-9.7,1.2-19.7c7.3-10,22.3-21.7,29.7-25.3c7.3-3.5,10.9-5.9,10.9-5.9L126,161.9z"/>
	<path class="st4" d="M63.1,244.4c0,0-10,2.1-8.8,5c1.2,2.9,3.2,10,7,10.3s18.2-9.4,19.4-11.7c1.2-2.3,0-7.3-3.2-8.5
		S63.1,244.4,63.1,244.4z"/>
	<path class="st1" d="M172.9,161.9c0,0,8.2-3.5,23.2,12.9c15,16.4,40.9,43.2,45.3,52.9c3.6,7.9,1.4,13.8-0.1,18.5
		c-1.5,4.7-7,4.4-10.3,3.2s-8.1-5.6-8.1-5.6s7-8.2-0.4-18.2c-7.3-10-22.3-21.7-29.7-25.3c-7.3-3.5-10.9-5.9-10.9-5.9L172.9,161.9z"
		/>
	<path class="st4" d="M235.7,244.4c2.4,0.9,10,2.1,8.8,5c-1.2,2.9-3.2,10-7,10.3s-18.2-9.4-19.4-11.7c-1.2-2.3,0-7.3,3.2-8.5
		S232.1,243.1,235.7,244.4z"/>
	<g>
		<path class="st5" d="M159.2,179c-0.8-1.7-3.2-2.5-5.3-2.8c-2.2-0.3-4.5-0.3-6.6,0.4c-2.1,0.7-3.9,2.2-4.3,4.1
			c-0.3,1.4,0.1,2.9,0.6,4.3c0.8,2,1.7,4,2.8,5.9c0.3,0.5,0.6,0.9,1.1,1.2c0.4,0.2,1,0.3,1.5,0.3c0.9,0.1,1.8,0.1,2.7,0.1
			c0.7,0,1.5,0,2.2-0.3c0.6-0.3,1.1-0.8,1.4-1.4c1.8-2.5,3.2-5.3,3.9-8.2C159.5,181.4,159.7,180.2,159.2,179z"/>
		<path class="st5" d="M158.8,215.6c0.2-1.7-0.7-4.5-0.8-6.2c-0.1-2-4.3-14.7-5.5-19.4c-0.3-1.1-1.3-2.6-2.2-1.9
			c-2,4.8-4.6,9.3-6.7,14c-2.1,4.7-3.8,9.8-3.7,15.1c0,2.1,0.4,4.3,0.7,6.4c2.1,13.2,4.2,26.5,8.7,39c0.4,1,0.8,2.1,1.6,2.6
			C152.8,257.6,158.3,219.5,158.8,215.6z"/>
	</g>
	<g>
		<g>
			<g>
				<path class="st2" d="M93.4,90.3c0,0-2.7,39.1,13.7,48.5s23.9,1.2,33.3,7.8c10.2,7.2-3.5,14.5-9.4,17.6
					c-5.9,3.1,4.5,11,18.2,12.1c13.7,1.2,20.7-15.7,19.6-15.7c-1.2,0-11.9,1.2-11.5-8.2c0.4-9.4,9.8-12.9,20-19.6
					s19.6-13.3,21.9-28.6s-5.1-32.5-13.3-40.7s-21.1-18.4-53.2-10.2S93.4,85.6,93.4,90.3z"/>
				<g>
					<path class="st6" d="M178.1,83.5c0,1.7-0.1,3.9-0.9,5.4c-2.2,3.9-3.5,5-7.1,6.8c-3.6,1.8-7.6,2.5-11.6,2.4
						c-0.3,0-0.6,0-0.9-0.2c-0.8-0.4-0.7-1.5-0.4-2.4c0.5-1.5,1.3-2.9,2.2-4.1c2.9-3.9,7.4-6.7,12.3-7.5
						C174.5,83.4,175.3,83.8,178.1,83.5z"/>
					<g>
						<circle class="st7" cx="166.7" cy="90.8" r="5.2"/>
						<circle class="st8" cx="166.8" cy="90.6" r="2.3"/>
					</g>
					<path class="st8" d="M158,90.7c1.3-2.1,3.3-3.7,5.4-4.9c3.3-1.9,6.4-4,7.5-7.6c0.2,1.9-0.2,3.9-1.1,5.7
						c2.7-1.6,5.1-3.8,6.7-6.4c-0.1,1.9-0.6,3.8-1.3,5.6c2.7-0.5,5.3-1.5,7.5-3c-0.6,2.4-2.9,4-5.3,4.5c-2.4,0.4-5.2,0.4-7.6,0.8
						c-3.1,0.6-6,2-8.2,4.4c-2.1,2.4-3.6,5.3-4.6,8.3C156.4,95.5,156.6,92.8,158,90.7z"/>
				</g>
				<g>
					<path class="st6" d="M108.7,100.2c1,1.4,2.2,3.2,3.8,4c4,2,5.7,2.2,9.7,1.7s7.7-2.1,11-4.4c0.2-0.2,0.5-0.4,0.6-0.6
						c0.4-0.8-0.3-1.7-1-2.2c-1.3-1-2.7-1.7-4.2-2.2c-4.6-1.7-9.9-1.4-14.4,0.6C111.8,98.2,111.2,99,108.7,100.2z"/>
					<g>
						<circle class="st7" cx="122.2" cy="100" r="5.2"/>
						<circle class="st8" cx="122.1" cy="99.9" r="2.3"/>
					</g>
					<path class="st8" d="M129.5,95.1c-2.2-1-4.8-1.3-7.3-1.1c-3.8,0.3-7.6,0.2-10.5-2.2c0.9,1.7,2.3,3.2,4,4.1
						c-3.1,0.2-6.3-0.4-9.2-1.6c1.2,1.5,2.6,2.9,4.2,3.9c-2.5,1.1-5.2,1.7-8,1.7c1.8,1.7,4.6,1.8,6.9,0.8s4.5-2.5,6.8-3.5
						c2.9-1.2,6.2-1.7,9.2-0.9c3.1,0.8,5.9,2.4,8.4,4.4C133.5,98.2,131.8,96.1,129.5,95.1z"/>
				</g>
				<path class="st9" d="M153.3,113.6c-2.1,0.4-4.1,0.7-6.2,1.1c-0.5,0.1-0.9,0.2-1.4,0c-1.4-0.4-1.4-2.2-1.5-3.6
					c-0.4-5.1-0.1-7.9-2.7-14.5c1.1,7.6,1.4,9.5,1.9,18.1c0,0.8,0.1,1.7,0.7,2.2c0.3,0.3,0.7,0.5,1.1,0.6
					C148.3,118.8,152.3,116.9,153.3,113.6z"/>
				<path class="st9" d="M150.9,84.1c1.4-0.5,2.4-1.8,3.4-3c6.3-7.5,16.8-11.2,26.4-9.2c-0.1-1.7-2.2-2.5-4-2.6
					c-8.1-0.7-16.4,2.1-22.5,7.6C152.1,78.7,150.2,81.4,150.9,84.1z"/>
				<path class="st9" d="M133.3,88.9c-1.5,0.1-2.9-0.7-4.3-1.4c-8.8-4.3-19.9-3.4-27.9,2.3c-0.6-1.6,1-3.2,2.6-4
					c7.1-3.9,15.9-4.7,23.6-2.2C130,84.4,132.9,86.1,133.3,88.9z"/>
				<path class="st10" d="M161.4,127.5c-0.9,1.7-1.8,3.4-3.2,4.8c-2.6,2.8-6.9,4.2-10.9,3.6c-2.8-0.4-7.2-3.4-7.4-5.9
					c1.9,0.2,5.2,0.8,6.8,0.7c4.6-0.2,8.8-2.1,12.2-5.1c0.3-0.2,0.5-0.5,0.4-0.8c-0.1-0.3-0.6-0.3-1-0.3c-3.4,0.4-6,3-9.7,3.6
					c-3.4,0.6-7.4,1-10-1c2.2-1.7,5-3.6,7.8-2.9c1.1,0.3,2.2,0.9,3.2,0.3c0.6-0.3,0.8-0.9,1.2-1.4c1.3-1.7,4.1-1.9,6.2-1.2
					c2.1,0.6,4,1.8,6.2,2.2C162.5,125.3,161.9,126.4,161.4,127.5z"/>
			</g>
			<path class="st2" d="M194.5,83.8c1.2-1.1,2.3-2.2,3.8-2.9c1.4-0.7,3.2-0.9,4.6-0.1c1.4,0.7,2.2,2.3,2.6,3.8
				c1.1,3.5,0.5,7.7-2.3,10c-2,1.7-4.9,2.2-7.3,1.2c-1-4.1-1.8-8.2-2.4-12.3"/>
		</g>
		<path class="st0" d="M79.2,96.4c0.8-5.3,2.6-10.3,4.5-15.3c5.9-16.1,23.4-28.9,28.5-31.4c18-8.7,33-11.7,53-11.7
			c-3.6,17.3-17.3,30.6-31,41.8c-13.7,11.3-28.5,22.4-36,38.4c-2.9,6.2-4.5,13-7.3,19.3c-2.7,6.3-6.9,12.4-13,15.4
			C84.8,135.3,76.3,115.2,79.2,96.4z"/>
	</g>
	<path class="st4" d="M132.4,154.8c0,0-8.5,4.7-8.2,7.3c0.3,2.6,16.1,25,16.1,25s6.5-9.1,7.6-10c1.2-0.9,1.2-0.9,1.2-0.9
		s-5.9-5.6-10.9-11.5C133.3,158.9,132.4,154.8,132.4,154.8z"/>
	<path class="st4" d="M164.1,153.1c0,0,9,3.7,9,6.3c0,2.7-13.1,26.7-13.1,26.7s-7.5-8.3-8.7-9s-1.3-0.7-1.3-0.7s5.2-6.2,9.5-12.6
		S164.1,153.1,164.1,153.1z"/>
</g>
</svg>
