<?xml version="1.0" encoding="utf-8"?>
<!-- Generator: Adobe Illustrator 19.0.0, SVG Export Plug-In . SVG Version: 6.00 Build 0)  -->
<svg version="1.1" id="Layer_1" xmlns="http://www.w3.org/2000/svg" xmlns:xlink="http://www.w3.org/1999/xlink" x="0px" y="0px"
	 viewBox="0 0 300 700" style="enable-background:new 0 0 300 700;" xml:space="preserve">
<style type="text/css">
	.st0{fill:#8E4720;}
	.st1{fill:#153B65;}
	.st2{fill:#F0D1CA;}
	.st3{clip-path:url(#XMLID_3_);}
	.st4{fill:#EE95BF;}
	.st5{fill:#FFFFFF;}
	.st6{fill:#43A173;}
	.st7{fill:#1D1D1B;}
	.st8{fill:#D41C54;}
	.st9{fill:#27587D;}
</style>
<g>
	<path class="st0" d="M236.9,168c2.8-13.5,8.8-26.2,11.7-39.7c4.9-23.1,0.1-48.1-12.9-67.7c-4.5-6.8-10.3-13.2-18-15.9
		c-10.2-3.6-21.8,0-30.3,6.7s-14.4,16-20.1,25.2c-7,11.4-13.9,23-18.3,35.6c-13.7,39.9-0.4,83.8-4.4,125.8c14-0.8,28.1-1.6,41.9,0.7
		c4.7,0.8,9.5,2,14.2,1.3c6.4-0.9,11.7-5,17.7-7.4c10.1-4,22.3-2.5,31.1,3.8C237.2,216.3,232.1,191.3,236.9,168z"/>
	<path class="st0" d="M266.2,97.1c-3.3-20.6-7.8-35.6-34.8-47.8c-6.2-2.8-15.1-4.4-21.6-6.5c-0.4,8-0.9,16-1.3,24.1
		c0,0.8,0,1.8,0.6,2.3c0.6,0.5,1.5,0.2,2.3,0.3c15,2.1,32.5,14.4,35.6,23.6c4,11.7,1.2,22.5-1.9,31.7s-8.5,15-12.4,23.9
		c-2,4.6-3.8,9.2-5.5,13.9c10-6,23-9.3,34.1-14C266.3,131.2,268.8,113.1,266.2,97.1z"/>
	<g>
		<g>
			<path class="st1" d="M261.5,585.4c0.8,2.7,1.2,5.5,2,8.3c2.3,9,7.8,17,11.3,25.6c1,2.5,1.9,5.2,1.8,7.9
				c-0.2,4.2-2.6,7.8-4.9,11.3c-0.9,1.4-1.9,2.9-3.4,3.7c-2.3,1.3-5.3,0.7-7.5-0.8c-2.2-1.5-3.8-3.7-5.3-5.9
				c-0.6-0.8-2.2-3.8-2.3-4.8c0-1,0.3-2.3,0.8-3.1c2.3-3.7,6.3-4.9,7.1-9.2c1.4-7.7-3.9-14.8-6.4-22.2c-3.2-9.2-2.2-19.9-7.3-28.2
				C254,571.6,259.3,578,261.5,585.4z"/>
			<path class="st2" d="M186,370c0,0-0.2,82.8-0.2,96.9s11.7,40.5,22.3,58.1c10.6,17.6,17.6,42.9,22.3,57
				c4.7,14.1,18.2,34.1,19.4,41.7c1.2,7.6,6.5,12.9,11.2,2.9c4.7-10,1.2-17-2.9-27.6c-4.1-10.6-2.3-23.5-9.4-30.5
				c-7-7-20.6-20-26.4-39.3c-5.9-19.4-8.8-32.9-14.7-43.5c-5.9-10.6-7.6-9.8-5.9-26.8c1.8-17,16.1-54.4,17.2-75.6
				C220,362.1,201.2,358.2,186,370z"/>
			<path class="st1" d="M226.9,576.1c0.8,0.7,2,0.6,3,0.4c5.5-1.2,9.6-6.1,10.9-11.5c0.7-3.2,0.5-6.7-1.4-9.3
				c-0.9-1.2-2.3-2.2-3.8-2c-0.4,2.9-1.6,5.8-3.7,7.9c-2.1,2.1-5.1,3.3-8,2.8c-0.1,3.6,0.7,7.2,2.2,10.4
				C226.3,575.3,226.5,575.8,226.9,576.1z"/>
			<path class="st1" d="M263,621.8c0,0-2.5-1.8-7.3,0.7s-4.7,5.9-4.7,5.9s-2-6.9-2.6-8.1c-0.6-1.2,1.9-6.2,6.6-8.1
				c4.7-1.9,10.1,0.4,10.1,0.4s0.8,7.2-0.1,8.7C264.1,622.8,263,621.8,263,621.8z"/>
		</g>
		<g>
			<path class="st1" d="M179.1,651.6c1.3-2.7,1.6-5.7,1.8-8.7c0.3-5,0.1-10-0.8-14.9c-0.1-0.5-0.2-0.9-0.5-1.3
				c-0.3-0.4-0.8-0.6-1.2-0.7c-3.6-1.2-7.5-0.9-11.3-0.1c-2.9,0.6-6.1,1.8-7.3,4.5c-0.7,1.6-0.6,3.5-0.6,5.3
				c0.1,3.7-0.5,7.5-0.1,11.2c0.4,3.7,1.8,7.6,4.9,9.7c2.5,1.7,5.8,2,8.6,0.9C175.5,656.5,177.8,654.3,179.1,651.6z"/>
			<path class="st2" d="M150.5,370c0,0,2.6,40.2,7,64.3c4.2,22.9,4.1,45.5,0,62.5c-4.1,17,0,40.5,2.3,52.3
				c2.3,11.7,7.6,25.8,4.1,45.2c-3.5,19.4-9.4,50.5,4.7,50.5c14.1,0,11.2-25.3,9.4-35.2c-1.8-10-8.2-26.4-5.9-52.3
				c2.3-25.8,6.5-75.2,5.9-96.3c-0.6-21.1,2.9-81.6,2.3-87.5C179.9,367.6,167,354.7,150.5,370z"/>
			<path class="st1" d="M165,579.4c-0.3-0.1-0.7-0.1-1,0c-0.3,0.1-0.6,0.4-0.8,0.7c-0.7,1.1-1.1,2.3-1.3,3.6
				c-0.3,1.6-0.4,3.4,0.3,4.9c0.8,1.7,2.7,2.8,4.6,3.1c1.9,0.3,4.3,0,6.1-0.5c1.3-0.3,2.2-0.9,2.9-2c0.3-0.5,0.5-1.1,0.6-1.7
				c0.6-2.8-0.6-8.1-2.1-8.1C171.1,579.6,168.4,579.9,165,579.4z"/>
			<path class="st1" d="M159.6,627.3c5.8,3.3,15.2,3.4,20.4-0.7c-0.5,3.9-0.1,8.2-1,12c-5.9-0.7-13.9-1.9-19.2,1
				c-0.5-2.6-0.7-4.3-0.8-7.1C159,631.2,159,629.1,159.6,627.3z"/>
		</g>
		<g>
			<defs>
				<path id="XMLID_1_" d="M193.5,384.7c4.4,0.9,7.6,5.2,12,5.8c5.2,0.7,10-4,15.2-3.2c2.2,0.3,4.2,1.6,6.4,1.4
					c4.5-0.5,5.9-6.7,10.1-8.4c4.2-1.7,10.2,1.4,12.9-2.2c0.7-1,1-2.2,1.4-3.3c1.3-3.1,4.6-5.2,7.9-5.1c-9.3-28-17.2-55-49.6-79.9
					c-1.8-1.3-4-1.7-5.8-2.9c-2.8-1.7-6.3-1.8-9.6-1.8c-9.8,0-19.7,0-29.5,0c-1.4,0-2.9,0-4.2,0.6c-1,0.5-1.9,1.4-2.7,2.2
					c-11.9,12.6-22.3,26.7-29.7,42.3c-7.4,15.6-11.7,32.9-11.3,50.2c0,1,0.1,2.2,1,2.9c1.4,1,3.2-0.3,4.6-1.3
					c3.2-2.2,7.6-2.5,11.1-0.7c3.3,1.7,5.9,5,9.6,5.6c5.6,0.9,10.1-5.1,15.8-5.3c6-0.2,10.5,6.1,16.4,6.7
					C181.6,388.9,187.4,383.4,193.5,384.7z"/>
			</defs>
			<use xlink:href="#XMLID_1_"  style="overflow:visible;fill:#153B65;"/>
			<clipPath id="XMLID_3_">
				<use xlink:href="#XMLID_1_"  style="overflow:visible;"/>
			</clipPath>
			<g class="st3">
				<g id="XMLID_60_">
					<path id="XMLID_64_" class="st4" d="M113.4,378.9c3.6-3.9,8.9-6.1,14.3-6.1c4.3,0,7.4,2.2,10.9,4.4c4.5,3,8.8,5,14.1,2.8
						c2.9-1.2,5.4-3.3,8.3-4.7c6.1-2.9,11.6-1.1,17.1,1.9c5.8,3.2,10.1,4.4,16.4,1.7c4.5-1.9,9-4.6,14-3c3.2,1,5.8,3.5,9,4.7
						c4.8,1.7,9.8,0.7,13.7-2.5c1.3-1.1,2.4-2.3,3.5-3.6c2.9-3.4,4.7-4.6,9.4-4.3c1.8,0.1,3.3,0.5,5.1-0.3c4.8-2.1,4.8-9,10.6-9.8
						c0.3,0,0.2-0.5-0.1-0.5c-4.9,0.7-5.5,5.2-8.5,8.2c-3.5,3.4-7.4,0.6-11.4,1.8c-2.5,0.7-3.8,2.7-5.3,4.5
						c-3.3,3.9-7.2,6.9-12.6,6.7c-4.7-0.2-7.7-3.1-11.8-4.9c-6.5-2.8-11.8,1.2-17.8,3.3c-9.4,3.2-15.3-5.8-24.3-6.1
						c-7.5-0.2-12.1,6.7-19.1,7.2c-7.7,0.6-12.3-7.4-19.6-8.1c-5.9-0.6-12.1,1.9-16.1,6.2C112.8,378.8,113.2,379.2,113.4,378.9
						L113.4,378.9z"/>
				</g>
			</g>
			<g class="st3">
				<g id="XMLID_54_">
					<path id="XMLID_58_" class="st4" d="M114.3,364.6c2.7-3.1,7.6-3.8,11.5-3.4c4.4,0.4,6.7,3.4,10,5.9c4,3.1,8.5,2.7,12.9,0.6
						c3.9-1.9,7.5-5.1,12.1-5.3c4.4-0.2,7.6,2.4,11.1,4.6c6.2,3.9,12.1,3.6,18.2-0.4c4.5-3,8.8-7.2,14.5-3.5c3.2,2,5.1,4.7,8.7,6.1
						c5.3,2.1,10.6,1.3,15.1-2.2c3.4-2.7,5.7-7,10-8.4c3.9-1.3,7.4,1,11.2,0.6c4.7-0.5,7.1-4.3,8.6-8.4c0.1-0.3-0.4-0.4-0.5-0.1
						c-1.9,5.4-5.5,8.8-11.5,7.8c-2.8-0.5-5.1-1.3-7.9-0.4c-6.5,2.1-8.9,9.8-16,11.4c-5.9,1.4-10.8-1.5-15.2-5
						c-2-1.6-3.8-3.2-6.5-3.5c-7.4-0.7-12.1,8.1-19.7,8.4c-7.9,0.3-12.4-8-20.3-7.6c-6.9,0.4-11.6,7.2-18.6,7.1
						c-6.3,0-9.1-7-15.1-8.1c-4.2-0.8-10.1,0-13.1,3.4C113.7,364.4,114.1,364.8,114.3,364.6L114.3,364.6z"/>
				</g>
			</g>
			<g class="st3">
				<g id="XMLID_48_">
					<path id="XMLID_52_" class="st4" d="M111.9,354.9c3.5-2.9,9.5-0.7,13,1.1c2.1,1.1,3.8,3.2,6.2,3.7c2.6,0.6,4.6-0.7,6.8-2
						c5.2-3.1,9.6-4.2,14.6,0.1c3.2,2.8,6.9,2.1,10.5,0.3c2.7-1.4,5.1-3.3,7.8-4.7c6.1-3.2,10.8-2.6,16.5,0.9
						c5.9,3.7,10.2,4.4,16.6,1.8c4.5-1.8,8.6-3.4,13.4-0.9c2,1.1,3.8,2.7,6.1,3.1c4.7,0.7,8.4-3.3,11.3-6.3c3.5-3.7,7.1-6.9,12.7-6
						c3.5,0.6,6.6,2,10.1,2.1c0.3,0,0.3-0.5,0-0.5c-6.4-0.2-12.2-4.5-18.3-0.5c-6.5,4.3-10.4,14.2-19.6,8.9
						c-5.9-3.4-9.6-2.9-15.8-0.4c-5.7,2.3-10.2,1.9-15.6-1.3c-2.6-1.6-4.8-3.2-7.9-3.6c-6.6-0.8-11.5,3.8-16.9,6.6
						c-1.9,1-4.1,2.1-6.4,1.9c-3.9-0.3-4-2.5-6.4-4.2c-1.7-1.2-3.6-1.2-5.6-0.8c-3.3,0.5-5.6,2.3-8.4,3.8c-5.1,2.8-8.4-1.3-12.7-3.2
						c-3.6-1.6-8.8-3.2-12.1-0.4C111.3,354.7,111.7,355.1,111.9,354.9L111.9,354.9z"/>
				</g>
			</g>
			<g class="st3">
				<g id="XMLID_42_">
					<path id="XMLID_46_" class="st4" d="M118.3,343.8c5.9-1.5,9.5,6.7,15.7,5.8c7.4-1.1,13.9-10.4,21.9-8.1c3,0.8,5.2,3.3,8.2,4.2
						c2.5,0.7,5.2,1.2,7.8,0.8c6.9-1.2,11.3-9.5,19.1-4.6c4.2,2.7,6.7,7.5,12.3,7.4c6-0.1,10-5.7,15.6-7.2c6.6-1.8,10.4,5.3,17,2.3
						c6.7-3,9.6-10.8,16.9-12.9c0.3-0.1,0.2-0.6-0.1-0.5c-6,1.7-8.7,6.8-13.3,10.5c-2.6,2-5.5,4-9.1,3.1c-2.2-0.6-3.7-2.5-5.9-3.2
						c-1.8-0.6-3.8-0.3-5.6,0.2c-6.9,1.8-12.5,10.3-20.2,5.9c-4.2-2.4-6.7-7.5-12.1-7.7c-6.1-0.2-10,6-16,6.4
						c-4.7,0.3-8.1-1.8-11.9-4c-1.8-1-3.5-1.5-5.6-1.3c-7,0.6-11.6,7-18.3,8.2c-6.8,1.2-10.1-7.4-16.4-5.7
						C117.9,343.4,118,343.9,118.3,343.8L118.3,343.8z"/>
				</g>
			</g>
			<g class="st3">
				<g id="XMLID_36_">
					<path id="XMLID_40_" class="st4" d="M246.3,318.6c-2.9-0.7-4.8,2.7-6,4.9c-1.7,2.8-2.8,5.7-5.7,7.4c-4.3,2.5-8.3,0.7-12.7,0.1
						c-6.3-1-9.3,3.8-14.2,6.7c-8.1,4.8-15.1-2.7-22.5-5.4c-5.6-2-9-0.2-13.7,2.9c-6.8,4.4-11.3,1.6-17.2-2.4
						c-3.3-2.2-6.8-3.9-10.8-2.7c-2.3,0.7-4.1,2.3-6.2,3.5c-5.7,3.3-10.7,2-15.9-1.7c-0.3-0.2-0.5,0.2-0.3,0.4
						c5.1,3.6,10.3,5.2,15.9,2c3.2-1.8,6-4.4,9.9-4.2c3,0.2,5.6,2,8,3.7c3.3,2.3,6.8,5,11,4.3c7.2-1,10.1-8.2,18.4-5.6
						c6.2,1.9,11.7,7.8,18.6,7.2c6.2-0.5,9.2-7,15.1-8.3c6.3-1.4,12,3.7,18-1c3.1-2.4,5.7-12.4,10.1-11.4
						C246.5,319.2,246.6,318.7,246.3,318.6L246.3,318.6z"/>
				</g>
			</g>
			<g class="st3">
				<g id="XMLID_30_">
					<path id="XMLID_34_" class="st4" d="M124.8,320.9c4.5-3.1,8.9-3.3,13.4-0.1c1.9,1.3,3.6,3,5.8,3.9c4.2,1.7,7.8-0.6,11.7-2.1
						c4.2-1.6,8.1-1,11.9,1.5c2,1.3,3.9,2.8,6.3,3.4c3.7,0.9,7.3-0.4,10.7-1.8c6.3-2.6,11-4.1,17.2,0c3.7,2.4,7.1,4.1,11.6,3.2
						c8.9-1.7,18.2-19.2,27.6-11.3c0.2,0.2,0.6-0.1,0.4-0.4c-7-5.8-14.4,1.9-19.6,6.4c-3.1,2.7-6.5,5-10.7,5
						c-4.8,0.1-7.3-2.8-11.2-4.9c-3.8-2-7.5-1.7-11.5-0.2c-6.4,2.3-11.6,5.5-18.2,1.7c-4.6-2.7-7.7-5.4-13.4-3.6
						c-2.6,0.8-4.9,2.4-7.5,2.9c-5.4,1-7.9-2.4-11.9-5c-4.4-2.8-8.6-2-12.8,0.9C124.3,320.6,124.5,321,124.8,320.9L124.8,320.9z"/>
				</g>
			</g>
			<g class="st3">
				<g id="XMLID_24_">
					<path id="XMLID_28_" class="st4" d="M232.9,302.5c-2.5-2.6-12.2,8.6-13.8,9.6c-6.9,4.2-12.2,2-19.1-0.1
						c-4.1-1.2-7.8-1.4-11.5,0.9c-3.5,2.2-6.4,5.4-11.1,2.9c-2.2-1.2-4-3.3-6.1-4.7c-3.5-2.2-7.5-3.6-11.6-2.2
						c-5.9,2.1-10.1,7-16.7,3.6c-4.6-2.4-8.2-3.9-13.5-3.9c-0.3,0-0.3,0.5,0,0.5c4.1,0.1,7.5,0.7,11.2,2.6c1.5,0.8,3,1.9,4.7,2.4
						c3.2,0.9,6.4-0.2,9.2-1.7c3.4-1.9,6.1-3.8,10.2-3.3c4.1,0.5,7.4,3.1,10.5,5.6c2.5,2,4.6,3.4,7.9,2.3c1.7-0.6,3.2-1.7,4.6-2.7
						c3.4-2.4,6.8-3,10.8-2c4.4,1,8.3,3.5,12.9,3.2c3.9-0.2,7.5-2.3,10.5-4.7c1.3-1,8.9-9.6,10.7-7.8
						C232.8,303.1,233.1,302.8,232.9,302.5L232.9,302.5z"/>
				</g>
			</g>
			<g class="st3">
				<g id="XMLID_18_">
					<path id="XMLID_22_" class="st4" d="M140.7,299.7c6.1-5.4,11.6,2.2,16.9,4.1c3.4,1.2,6.9-0.1,10.1-1.2
						c6.1-2.2,11.1-2.7,16.6,1.4c3.3,2.4,6.7,4.2,10.8,4.3c4,0.1,7.2-1.7,10.6-3.5c4.3-2.1,8.3-2.4,12.7-3.5
						c5.4-1.5,10-4.9,8.2-10.9c-0.1-0.3-0.6-0.2-0.5,0.1c3.2,11.1-11.9,9.9-18.2,12.7c-4.8,2.1-8.8,5.1-14.3,4.5
						c-5.5-0.6-8.3-4.4-13-6.5c-8.3-3.6-16.3,5.6-24.2,1.7c-5-2.5-10.7-8.4-16.3-3.5C140.1,299.5,140.5,299.9,140.7,299.7
						L140.7,299.7z"/>
				</g>
			</g>
			<g class="st3">
				<g id="XMLID_12_">
					<path id="XMLID_16_" class="st4" d="M218.6,284.6c-1.9,0.7-2.9,1.9-4.1,3.5c-3.1,4.2-5.8,7.7-11,9.4c-5.2,1.7-9.9,0.6-14.7-1.8
						c-2.5-1.3-4.9-2.7-7.7-3.3c-7.1-1.6-16.1,6.9-22.1,1.1c-1.8-1.8-2.6-4.1-4.9-5.4c-2.2-1.2-4.8-1.2-7.2-1.2
						c-0.3,0-0.3,0.5,0,0.5c5.2,0.1,7.6,1.6,11,5.5c1.6,1.9,3.1,3,5.6,3.2c2.7,0.2,5.3-1,7.7-1.9c5.6-2.1,9.8-1.9,15.1,0.8
						c5.5,2.7,10.2,4.9,16.4,3.2c2.6-0.7,4.9-2,7-3.7c3-2.6,5.1-8,8.9-9.4C219,284.9,218.9,284.5,218.6,284.6L218.6,284.6z"/>
				</g>
			</g>
		</g>
	</g>
	<path class="st2" d="M177.3,181.7c0,0-14.9-5.9-24.7,18s-15.3,63.4-28.2,78.3c-12.9,14.9-35.2,29.8-45.8,35.2s-20.4,10.2-32.9,8.6
		c-12.5-1.6-21.5-4.7-18.4-0.8s14.6,3.4,18.3,5.5c3.6,2-19.1,5.1-21.4,8.6s3.9,4.3,9.4,2c5.5-2.3,13.8-5.6,15-3.2
		c1.2,2.3-17.9,12.8-16.7,16.7c1.7,5.7,16.6-8.5,15.3-7.3c16.1-13.8,21.2-7.6,18.5-1.8c-2.7,5.9-5,11.3-1.5,12
		c3.5,0.8,9.1-9.9,11.5-15c2.3-5.1,9.7-18.3,19.5-23.4c9.8-5.1,38.4-27.4,45.4-38.8s13.3-29.4,17.6-40.3s19.2-52.9,19.2-52.9"/>
	<path class="st2" d="M225.5,191.8c0,0,9,0,38,42.3c9.6,14.1,11,23.1,3.1,32.1c-7.8,9-34.8,20.7-36,25.8c-1.2,5.1,1.4,8.1,7.7,14.9
		c7.7,8.4,8.9,13.1,8.1,20.6c-0.8,7.4,0,11.5-2.3,10.7c-3.7-1.2,0-12.8-1.6-18.1c-1.8-5.6-2.8-3.9-2.4,2.4s0,17.5-2.4,13.6
		c-2.3-3.9,0.7-14.5-2.1-20.4c-2.7-5.9-2.4,0-2.1,4.7c0.4,4.7-2.9,15.8-3.3,6.8c-0.4-9,0-12-2.2-17.8c-2.1-5.5-4.7-7.1-5.9-2.8
		s2.9,11.6-0.2,10.8c-3.1-0.8-7.8-11-7-19.2c0.8-8.2,2-11.4,10.6-16.4c8.6-5.1,28.6-13.7,30.1-24.7c1.6-11-31.7-40.3-31.7-40.3
		S213,191.1,225.5,191.8z"/>
	<g>
		<g>
			<path class="st2" d="M147.6,98.1c0,0-3.7,36.5,12.9,50.2c18.8,15.6,28.2,11.5,31.1,20.8c2.9,9.4-1.8,11.2-8.8,12.9
				s-9.4,6.5-9.4,11.2c0,4.7,10,21.1,25.3,21.7s25.8-22.3,25.8-22.3s-21.7-10.6-15.9-22.9c5.9-12.3,14.1-5.9,27-15.3
				c12.9-9.4,24.1-28.8,24.1-50.5s-4.7-40.5-26.4-48.2s-39.9-6.5-55.2,0S148.2,84,147.6,98.1z"/>
			<path class="st2" d="M265,125.3c-0.5,1.4-1.2,2.8-2.5,3.6c-0.9,0.6-1.9,0.9-3,1.1c-2.1,0.4-4.5,0.5-6.2-0.8
				c-2.4-1.7-2.9-5.1-2.6-8c0.3-2.6,1.1-5.1,2.2-7.4c4.1-0.9,9-0.9,11.5,2.5C266.4,118.7,266.1,122.3,265,125.3z"/>
		</g>
		<g>
			<path class="st2" d="M208.9,133.3c-2.1-0.1-4.2-0.1-6.3-0.2c-0.5,0-0.9,0-1.3-0.2c-1.3-0.6-0.9-2.4-0.8-3.8
				c0.6-5,1.5-7.8,0.3-14.7c-0.5,7.6-0.6,9.5-1.9,18.1c-0.1,0.8-0.2,1.6,0.2,2.3c0.2,0.4,0.6,0.6,0.9,0.8
				C202.9,137.4,207.2,136.3,208.9,133.3z"/>
			<g>
				<g>
					<path class="st5" d="M240.4,110.4c-0.4,1.7-1,3.7-2.2,5c-3.1,3.3-4.6,4.1-8.5,4.9c-3.9,0.9-8,0.6-11.8-0.4
						c-0.3-0.1-0.6-0.2-0.8-0.4c-0.7-0.6-0.3-1.7,0.2-2.4c0.9-1.3,1.9-2.5,3.2-3.5c3.8-3.1,8.8-4.7,13.7-4.4
						C236.9,109.6,237.7,110.2,240.4,110.4z"/>
					<g>
						<circle class="st6" cx="227.7" cy="114.9" r="5.2"/>
						<circle class="st7" cx="227.8" cy="114.9" r="2.3"/>
					</g>
					<path class="st7" d="M219.2,112.7c1.8-1.7,4.1-2.8,6.5-3.5c3.6-1,7.2-2.4,9.1-5.7c-0.3,1.9-1.1,3.8-2.4,5.3
						c3-0.9,5.8-2.5,8-4.7c-0.6,1.8-1.5,3.6-2.6,5.1c2.7,0.2,5.5-0.2,8.1-1.2c-1.1,2.2-3.7,3.2-6.2,3.1c-2.5-0.1-5.1-0.8-7.6-1
						c-3.2-0.2-6.3,0.6-9,2.3c-2.6,1.8-4.8,4.3-6.4,7C216.5,117,217.4,114.5,219.2,112.7z"/>
				</g>
				<path class="st2" d="M213.9,107.5c1.5-0.3,2.6-1.5,3.8-2.5c7.3-6.5,18.3-8.6,27.5-5.3c0.2-1.7-1.9-2.8-3.6-3.2
					c-7.9-1.8-16.6-0.3-23.3,4.2C216,102.3,213.7,104.7,213.9,107.5z"/>
			</g>
			<g>
				<g>
					<path class="st5" d="M166.9,108.5c0.4,1.7,1,3.7,2.2,5c3.1,3.3,4.6,4.1,8.5,4.9c3.9,0.9,8,0.6,11.8-0.4
						c0.3-0.1,0.6-0.2,0.8-0.4c0.7-0.6,0.3-1.7-0.2-2.4c-0.9-1.3-1.9-2.5-3.2-3.5c-3.8-3.1-8.8-4.7-13.7-4.4
						C170.4,107.6,169.7,108.2,166.9,108.5z"/>
					<g>
						<circle class="st6" cx="179.6" cy="112.9" r="5.2"/>
						<circle class="st7" cx="180.1" cy="112.9" r="2.3"/>
					</g>
					<path class="st7" d="M188.2,110.8c-1.8-1.7-4.1-2.8-6.5-3.5c-3.6-1-7.2-2.4-9.1-5.7c0.3,1.9,1.1,3.8,2.4,5.3
						c-3-0.9-5.8-2.5-8-4.7c0.6,1.8,1.5,3.6,2.6,5.1c-2.7,0.2-5.5-0.2-8.1-1.2c1.1,2.2,3.7,3.2,6.2,3.1c2.5-0.1,5.1-0.8,7.6-1
						c3.2-0.2,6.3,0.6,9,2.3c2.6,1.8,4.8,4.3,6.4,7C190.8,115.1,190,112.5,188.2,110.8z"/>
				</g>
				<path class="st2" d="M192.9,106.3c-1.5-0.5-2.5-1.7-3.5-2.8c-6.7-7.2-17.4-10.3-26.9-7.9c0-1.7,2.1-2.6,3.8-2.8
					c8-1.1,16.5,1.3,22.8,6.4C191.4,100.9,193.4,103.5,192.9,106.3z"/>
			</g>
			<path class="st8" d="M213,149.4c-1.2,1.7-2.4,3.5-4,4.9c-3.1,2.6-7.6,3.3-11.3,1.9c-2.7-1-6.5-5.3-6.3-8.2c1.8,0.6,5,2,6.6,2.2
				c4.6,0.7,9-0.7,12.9-3.3c0.3-0.2,0.6-0.5,0.5-0.8c-0.1-0.4-0.5-0.5-0.9-0.5c-3.5-0.3-6.4,2.2-10.2,2.2c-3.5,0-7.5-0.4-9.7-3.1
				c2.5-1.5,5.6-3.1,8.1-1.8c1,0.5,2,1.4,3.1,1c0.6-0.2,0.9-0.9,1.4-1.4c1.6-1.7,4.3-1.3,6.3-0.2s3.6,2.8,5.7,3.7
				C214.5,147.1,213.7,148.3,213,149.4z"/>
		</g>
	</g>
	<path class="st4" d="M176,180.5c0,0,5.9-1,6.7,0.2c0.8,1.2-8.4,12.3,0.2,21.7c8.6,9.4,19.6,8.6,27,3.5c7.4-5.1,12.3-16.4,12.3-16.4
		s4.3,1.2,5.5,2.3s-4.4,14.1-3.7,25.1c0.4,6.7,4.9,12.6,2.9,21.8c-3.5,16.1-14.1,14.1-15.3,27c-0.9,9.9-1,24.4-1,24.4
		s-15.3,5.5-32.1,0s-17.8-4.3-17.8-4.3s1.4-25.4-3.7-36.4s-8.4-22.1-1.6-32.1c7.4-11,12.9-14.9,15.7-24.3
		C172.9,186.6,176,180.5,176,180.5z"/>
	<path class="st9" d="M160.5,279.7c0,0-0.2,5.7-0.6,6.7c-0.4,1,14.5,7.8,27.4,8c12.9,0.2,23.9-3.5,23.9-3.5l-0.2-7
		c0,0-8.6,4.3-25.1,3.5C168.3,286.5,160.5,279.7,160.5,279.7z"/>
	<path class="st0" d="M162.9,111.1c-1.4,7.3-1.2,14.9-2.5,22.3c-3.1,16.9-14.4,31.3-19.2,47.8c-6.2,21.7-0.5,45.3,9,65.8
		c-28.3-36.8-34.9-89-16.7-131.7c4.6-10.8,10.6-20.9,17-30.8c8.8-13.7,18.6-27.3,32.4-35.9c5.9-3.6,12.6-6.3,19.5-6.1
		c1.1,0,2.3,0.2,3,1c0.6,0.7,0.7,1.8,0.7,2.8c0,3.6,0.1,7.2,0.1,10.8c0,3.6,0,7.5-2,10.6c-2.5,3.8-7.2,5.2-11.4,6.9
		C177.7,80.7,166.1,94.9,162.9,111.1z"/>
	<path class="st0" d="M215,221.4c-0.9,13.1-0.2,27.2,7.2,38.1c-4.2-11.9-1.5-25.3,3.6-36.8c5.2-11.5,12.6-21.9,18.6-33
		c6.5-12.1,12.6-26.3,16.8-41.1c-11.1,1.7-22.1,3.7-34.1,14C220.4,181.6,216.3,201.4,215,221.4z"/>
	<path class="st0" d="M259.3,71c-5.5-12.5-17.1-21.4-29.8-26.4c-6.5-2.6-13.8-4.2-20.2-1.5c-1.1,5.7-2,11.6-1.1,17.3
		c1.5,8.6,7.2,16,14,21.6c6.8,5.6,14.6,9.6,22,14.3c6.6,4.1,13.2,9.2,15.8,16.6C263.5,99,265.1,84,259.3,71z"/>
</g>
</svg>
