<?xml version="1.0" encoding="utf-8"?>
<!-- Generator: Adobe Illustrator 19.0.0, SVG Export Plug-In . SVG Version: 6.00 Build 0)  -->
<svg version="1.1" id="Layer_1" xmlns="http://www.w3.org/2000/svg" xmlns:xlink="http://www.w3.org/1999/xlink" x="0px" y="0px"
	 viewBox="0 0 300 700" style="enable-background:new 0 0 300 700;" xml:space="preserve">
<style type="text/css">
	.st0{fill:#92211E;}
	.st1{fill:#F0D1CA;}
	.st2{fill:#FFFFFF;}
	.st3{fill:#A9CDE1;}
	.st4{fill:#1D1D1B;}
	.st5{fill:#D41C54;}
	.st6{fill:#A799A7;}
	.st7{fill:#F07B22;}
	.st8{fill:#8E4720;}
	.st9{fill:#E8BB34;}
</style>
<g>
	<g>
		<g>
			<path class="st0" d="M202.5,49.1c-5.8-4.2-13-6.7-20.3-8.1c-16.3-3.1-34.2-0.8-47.6,8.1c-8.4,5.5-14.7,13.2-19.8,21.4
				c-1.9,3-3.6,6-4.5,9.4c-1,3.7-0.9,7.6-1,11.4c-0.3,10.2-1.9,20.3-3.9,30.3c-1.5,7.9-3.3,15.8-7.2,23
				c-3.9,7.2-10.1,13.6-18.3,16.5c6.2,0.8,12.5,0.3,18.4-1.5c-4.4,7.9-12.5,14-21.9,16.5c17.8,5.3,35.7,10.6,54.1,13.3
				c13.3,1.9,26.8,2.5,40.2,2.9c10.7,0.3,21.4,0.5,31.9-1.3c10.5-1.9,20.8-6,28-13.1c-10.3-2.1-17.8-12-16.4-21.5
				c4.8,3.9,8.6,4,13.2,3.9c-3.5-2.1-5-7.9-6.2-11.6c-3.8-11.1-3.4-22.9-2.6-34.4c0.9-11.5,2.3-23.2,0.7-34.6
				C217.5,67.9,212.4,56.3,202.5,49.1z"/>
			<g>
				<path class="st1" d="M112.2,107.1c4.1,24.7,16.4,25.3,28.2,31.7c11.7,6.5,14.7,13.5,10.6,18.2c-4.1,4.7-22.9,7-26.4,9.4
					c-3.5,2.3,9.4,28.8,28.2,28.8s31.1-26.4,31.1-26.4s-17.6-1.8-18.2-10s1.8-14.1,15.9-17c14.1-2.9,27.6-10.6,32.9-26.4
					s-1.2-44-11.7-56.4c-10.6-12.3-38.8-17-60.5-11.2S108.1,82.4,112.2,107.1z"/>
				<g>
					<path class="st1" d="M160.5,113.2c2.1-0.1,4.2-0.1,6.3-0.2c0.5,0,0.9,0,1.3-0.2c1.3-0.6,0.9-2.4,0.8-3.8
						c-0.6-5-1.5-7.8-0.3-14.7c0.5,7.6,0.6,9.5,1.9,18.1c0.1,0.8,0.2,1.6-0.2,2.3c-0.2,0.4-0.6,0.6-0.9,0.8
						C166.5,117.3,162.2,116.2,160.5,113.2z"/>
					<g>
						<g>
							<path class="st2" d="M129,91.6c0.4,1.7,1,3.7,2.2,5c3.1,3.3,4.6,4.1,8.5,4.9s8,0.6,11.8-0.4c0.3-0.1,0.6-0.2,0.8-0.4
								c0.7-0.6,0.3-1.7-0.2-2.4c-0.9-1.3-1.9-2.5-3.2-3.5c-3.8-3.1-8.8-4.7-13.7-4.4C132.5,90.7,131.7,91.3,129,91.6z"/>
							<g>
								<circle class="st3" cx="141.7" cy="96" r="5.2"/>
								<circle class="st4" cx="141.6" cy="96" r="2.3"/>
							</g>
							<path class="st4" d="M150.2,93.9c-1.8-1.7-4.1-2.8-6.5-3.5c-3.6-1-7.2-2.4-9.1-5.7c0.3,1.9,1.1,3.8,2.4,5.3
								c-3-0.9-5.8-2.5-8-4.7c0.6,1.8,1.5,3.6,2.6,5.1c-2.7,0.2-5.5-0.2-8.1-1.2c1.1,2.2,3.7,3.2,6.2,3.1c2.5-0.1,5.1-0.8,7.6-1
								c3.2-0.2,6.3,0.6,9,2.3c2.6,1.8,4.8,4.3,6.4,7C152.9,98.2,152.1,95.6,150.2,93.9z"/>
						</g>
						<path class="st1" d="M155.5,88.6c-1.5-0.3-2.6-1.5-3.8-2.5c-7.3-6.5-18.3-8.6-27.5-5.3c-0.2-1.7,1.9-2.8,3.6-3.2
							c7.9-1.8,16.6-0.3,23.3,4.2C153.5,83.5,155.8,85.8,155.5,88.6z"/>
					</g>
					<g>
						<g>
							<path class="st2" d="M202.4,94c-0.6,1.6-1.3,3.6-2.7,4.8c-3.4,2.9-5,3.6-8.9,4.1s-8-0.1-11.7-1.5c-0.3-0.1-0.6-0.2-0.8-0.4
								c-0.6-0.6-0.1-1.7,0.4-2.4c1-1.2,2.2-2.3,3.5-3.2c4.1-2.8,9.2-3.9,14.1-3C199,92.8,199.7,93.5,202.4,94z"/>
							<g>
								<circle class="st3" cx="189.3" cy="97.2" r="5.2"/>
								<circle class="st4" cx="188.8" cy="97.2" r="2.3"/>
							</g>
							<path class="st4" d="M181,94.3c1.9-1.5,4.4-2.4,6.8-2.9c3.7-0.7,7.4-1.7,9.6-4.8c-0.5,1.9-1.5,3.7-2.9,5
								c3.1-0.6,6-1.9,8.5-3.9c-0.7,1.8-1.8,3.4-3.1,4.9c2.7,0.4,5.5,0.3,8.1-0.4c-1.3,2.1-4,2.9-6.5,2.5c-2.5-0.4-5-1.3-7.5-1.7
								c-3.1-0.5-6.4-0.1-9.2,1.5s-5.1,3.8-7.1,6.3C177.9,98.3,179,95.8,181,94.3z"/>
						</g>
						<path class="st1" d="M176.7,89.3c1.5-0.3,2.6-1.5,3.8-2.5c7.3-6.5,18.3-8.6,27.5-5.2c0.2-1.7-1.9-2.8-3.6-3.2
							c-7.9-1.9-16.6-0.3-23.3,4.2C178.8,84.2,176.4,86.5,176.7,89.3z"/>
					</g>
					<path class="st5" d="M156.5,129.4c1.2,1.7,2.4,3.5,4,4.9c3.1,2.6,7.6,3.3,11.3,1.9c2.7-1,6.5-5.3,6.3-8.2c-1.8,0.6-5,2-6.6,2.2
						c-4.6,0.7-9-0.7-12.9-3.3c-0.3-0.2-0.6-0.5-0.5-0.8c0.1-0.4,0.5-0.5,0.9-0.5c3.5-0.3,6.4,2.2,10.2,2.2c3.5,0,7.5-0.4,9.7-3.1
						c-2.5-1.5-5.6-3.1-8.1-1.8c-1,0.5-2,1.4-3.1,1c-0.6-0.2-0.9-0.9-1.4-1.4c-1.6-1.7-4.3-1.3-6.3-0.2s-3.6,2.8-5.7,3.7
						C155,127.1,155.7,128.2,156.5,129.4z"/>
				</g>
				<path class="st1" d="M101.1,99c0.1,2.3,2,4.2,4.1,5.1c2.1,0.8,4.5,0.8,6.8,0.8c1.2,0,2.5-0.1,3.3-1c0.6-0.7,0.7-1.6,0.8-2.5
					c0.2-1.8,0.3-3.7-0.7-5.2c-0.9-1.4-2.5-2.1-4.1-2.5c-2.2-0.6-4.5-0.7-6.6,0.1C102.7,94.8,101,96.8,101.1,99z"/>
				<path class="st1" d="M224.7,100.7c-0.1,2.1-1.8,3.9-3.7,4.6c-2,0.8-4.1,0.8-6.2,0.7c-1.1,0-2.3-0.1-3-0.9
					c-0.5-0.6-0.6-1.5-0.7-2.3c-0.1-1.6-0.3-3.4,0.6-4.7c0.8-1.3,2.3-1.9,3.7-2.3c2-0.5,4.1-0.6,6,0.1
					C223.2,96.8,224.7,98.7,224.7,100.7z"/>
			</g>
		</g>
		<path class="st0" d="M157.4,41.8C149,56.6,138.4,70.2,126,82c-8.8,8.4-19.9,16.2-31.9,14.9c5.9-3.9,11.4-8.3,16.4-13.3
			c-5.6,1.9-12.1,1.2-17.2-1.9c9.4-4.4,13.6-16.4,20.7-24C124.7,46.2,141.6,41.7,157.4,41.8z"/>
		<path class="st0" d="M148,48c-0.4,2.1,0.3,4.3,0.9,6.4c1.5,5,3.1,10,5.4,14.6c4.3,8.7,11.4,15.9,19.9,20.5
			c-1.8-4.2-2.4-8.9-1.7-13.4c15.4,13.3,36.4,20,56.7,18.1c1.2-15.5-6-31.2-17.7-41.4s-27.6-15.3-43.2-14.9c-5.6,0.1-11.4,1-16,4.2
			C150.3,43.4,148.5,45.5,148,48z"/>
	</g>
	<g>
		<g>
			<path class="st1" d="M94,592.7c0,0,2.7,12.9,2,19.2c-0.8,6.3-3.9,18.4-1.2,28.2c2.7,9.8,9,9.8,13.7,5.9
				c4.7-3.9,3.9-12.1,2.3-23.5c-1.6-11.4-3.9-22.3-5.9-28.6S95.9,583.3,94,592.7z"/>
			<path class="st0" d="M94,635.9c0,0,0.6,2.9,9.1,2.9s9.1-2.9,9.1-2.9s4.1,23.8-8.2,23.8S94,635.9,94,635.9z"/>
		</g>
		<g>
			<path class="st1" d="M204,577.5c0,0-2.7,14.1-2.3,24.7s4.7,24.7,17.6,31.3s20.4,6.7,18.4,3.1c-2-3.5-13.7-12.1-16.4-23.5
				s-0.8-25.8-6.3-32.5S206.7,570.4,204,577.5z"/>
			<path class="st0" d="M200.9,595.9c0,0-6.5,6.5-5.9,17.4c0.6,10.9,5.9,37.9,6.8,41.7c0.9,3.8,0.9,3.8,0.9,3.8l2.3,0.3
				c0,0-5.3-31.1-2.1-32.9s8.2,7.9,9.4,16.4c1.2,8.5,0.9,15,7,16.7c6.2,1.8,18.8,2.3,21.1,0.6s5.3-12.9,3.5-18.5
				c-1.8-5.6-8.3-7.9-8.3-7.9s-10.4,3.3-16.5-0.2s-10.3-8.6-12.6-16.2C204.3,609.6,202.9,596.2,200.9,595.9z"/>
		</g>
		<path class="st6" d="M104,283.9c0,0-25.3,26.4-22.9,65.2c2.3,38.8,9.4,81.6,5.9,105.7s-5.9,68.7-1.2,99.2
			c4.7,30.5,9.4,52.3,9.4,52.3l12.9-1.2c0,0-8.8-62.2-7.6-103.9c1.2-41.7,10.6-101.6,15.3-125.1c4.7-23.5,12.3-46.4,12.3-46.4
			s33.5,61.7,41.7,79.9c8.2,18.2,12.3,37.6,11.7,49.9c-0.6,12.3-5.3,20.6-2.3,37c2.9,16.4,11.7,34.1,17.6,51.1s5.3,45.8,5.3,45.8h17
			c0,0-14.7-112.7-18.2-137.4c-3.5-24.7-24.7-99.8-35.2-128.6c-10.6-28.8-16.4-35.8-16.4-35.8L104,283.9z"/>
	</g>
	<path class="st1" d="M123.3,192.7c4.3-4.3,0-24.5,0-24.5s-52.2,36.2-62,50.3c-0.4,0.6-0.8,1.3-1.2,2c4.8,0.9,9.5,2.5,14,4.6
		c0.4-0.4,0.8-0.8,1.3-1.1C85.2,216.6,119,197,123.3,192.7z"/>
	<path class="st1" d="M188.1,174c0,0,9.4,1.3,14.4,38.2s2.5,52.9,3.1,63c0.6,10,1.3,54.2,4.4,64.2c3.1,10,5.6,19.8,5,29.9
		s-3.1,19.8-4.2,14.4c-1.2-6.2,1-20.9-1-18.8c-1.6,1.6-1,14.8-2.9,19.8s-5.6,3.1-3.8-9.4c1.9-12.5,1.5-14,0.2-12.1
		c-1,1.5-1,22.8-5.4,20.5c-3.9-2.1,1.7-25.7-0.8-30.7s-5.1,6.8-6.5,12.3c-1,4.2-6.2,3.4-3.3-8.9c2.7-11.7,5.2-9.1,8.9-24.8
		s0.6-72.3-1.9-84.9s-6.3-35.1-11.3-46.4C178.1,189.1,175.6,174,188.1,174z"/>
	<path class="st7" d="M116.9,169.5c0,0,9.2-8.2,15.3-6.9c3.5,6.3,5.7,22.1,24.9,19.4s21.5-15.7,21.5-15.7s8.2,2.7,11.4,5.5
		c3.1,2.7,3.9,4.1,3.9,4.1s-9.4,12.7-9.4,20.6s1.6,15.7-3.5,25.4c-5.1,9.8-14.9,15.7-19.6,32.9s-6.7,31.7-6.3,36.8
		c0.4,5.1,3.9,14.9,3.9,14.9L95.2,296c0,0,29.4-34.1,27.4-52.9s-8.6-24.9-7.8-35.4c0.8-10.6,3.5-14.3,4.1-20
		C120.4,174,116.9,169.5,116.9,169.5z"/>
	<g>
		<path class="st8" d="M160.5,308.2c-0.6,0.7-1.5,0.9-2.3,1c-9.5,1.6-19.2,0-28.7-1.7c-12.8-2.3-25.7-4.9-37.7-10.1
			c3.5-5.1,7-10.2,10.7-15.2c17.7,5.8,36.3,8.6,54.9,8.2c1.1,4.7,2.3,9.5,3.4,14.2C161,305.8,161.3,307.2,160.5,308.2z"/>
		<g>
			<path class="st9" d="M132.8,281.7c-6.6-0.9-12.8,3.7-13.8,10.3l-1.1,7.8c-0.9,6.6,3.7,12.8,10.3,13.8c6.6,0.9,12.8-3.7,13.8-10.3
				l1.1-7.8C144.1,288.8,139.5,282.6,132.8,281.7z M137.4,294.6l-1.1,7.8c-0.4,3.1-3.1,5.4-6.3,5.4c-0.3,0-0.6,0-0.9-0.1
				c-1.7-0.2-3.1-1.1-4.1-2.5c-1-1.4-1.4-3-1.2-4.7l1.1-7.8c0.4-3.1,3.1-5.4,6.3-5.4c0.3,0,0.6,0,0.9,0.1c1.7,0.2,3.1,1.1,4.1,2.5
				C137.2,291.3,137.6,293,137.4,294.6z"/>
			<path class="st9" d="M130,298.8c-0.3,0.5-1.1,0.6-1.7,0.6c-1.2,0-2.5-0.2-3.7-0.6c-0.4-0.1-0.9-0.3-1.2-0.5
				c-0.8-0.6-1-1.7-0.6-2.6c2.1-0.1,4.4-0.3,6.3,0.9C129.8,297,130.5,298,130,298.8z"/>
		</g>
	</g>
	<path class="st1" d="M71.7,274.9c10.4,12.9,12.9,18.4,10.4,28.2c-2.5,9.8-4.9,15.3-0.8,15.7c3.6,0.4,2.5-11.1,6-13.2
		c4.6-2.6,6.4,13.1,10.7,16.8c4.3,3.7,2.7-5.8-1.2-13.2c-4.9-9.2-2.1-13.8,3.4-8.9c5.5,4.9,11.8,8.1,13.2,4.6
		c1.5-3.6-17.4-10.3-14.6-17.4c1.9-4.8,12-6,10.9-8.7c-1.2-3.2-4-2.1-10.1,1.5c-6.1,3.7-15.6,2.5-22.4-14.7
		c-6.4-16.4-11.2-32.7-3.1-40.6c-2.4-7.6-6.1-8.5-14-4.6C52.4,235.3,61.8,262.6,71.7,274.9z"/>
</g>
</svg>
