<?xml version="1.0" encoding="utf-8"?>
<!-- Generator: Adobe Illustrator 19.0.0, SVG Export Plug-In . SVG Version: 6.00 Build 0)  -->
<svg version="1.1" id="Capa_1" xmlns="http://www.w3.org/2000/svg" xmlns:xlink="http://www.w3.org/1999/xlink" x="0px" y="0px"
	 viewBox="-223 25 512 512" style="enable-background:new -223 25 512 512;" xml:space="preserve">
<style type="text/css">
	.st0{fill:#D1FF1A;}
</style>
<g>
	<g>
		<ellipse class="st0" cx="-112.8" cy="127.9" rx="29.6" ry="30.1"/>
		<path class="st0" d="M267.5,424.5l-29.2-26.9l-4.3-4l-19.7-18.1c-23.6-21.8-49.9-13.2-74.1,7.8l-0.2,0.2l-1.4,1.6
			c-3-0.5-9-2.2-12.7-7.1c-3.7-5-4.3-12.3-1.9-21.9c1-4,1.7-7.6,2-10.8h43.9c15.5,0,28-12.9,28-28.7V53.6c0-15.9-12.5-28.6-28-28.6
			h-364.3c-15.5,0-28,12.8-28,28.6v263c0,15.9,12.6,28.7,28,28.7h139.8c0,0,6.1,57.4-42.4,57.4v28.7H72.5v-28.7
			c-50.3,0-42.4-57.4-42.4-57.4h87.1c-0.3,2.3-0.8,5.1-1.7,8.6c-3.1,12.3-2,22.2,3.4,29.4c3.8,5.1,8.9,7.8,13.2,9.3l-3.2,3.7
			l-0.4,0.5c-17.2,26.4-25.8,50.3-2.7,71.5l22.9,21.1l4.6,4.2l29,26.7c26,23.9,66.3,21.9,89.8-4.6
			C295.5,489.4,293.5,448.4,267.5,424.5z M-151,277.3h-8.8v-74.1h8.8L-151,277.3z M-10.3,327.6c-9.4,0-17-7.7-17-17.3
			c0-9.6,7.6-17.3,17-17.3c9.4,0,17,7.7,17,17.3S-1,327.6-10.3,327.6z M-73.4,277.3l0-74.5h8.4v23.4c0,7.2,5.8,13.2,12.9,13.2
			c2.1,0,4-0.6,5.8-1.5l0,0.1l22.4-15.2l11.8-8l8.4-5.7c0-0.1,0-0.1,0-0.1c4.2-4.2,5-10.5,2.6-15.5c-2.5-0.4-3.7-2.5-3.8-4.7
			c-2.2-1.6-4.6-2.5-7.2-2.6c-3.6-0.1-7.3,1.1-10,3.9c0,0,0,0.1-0.1,0.1l-1.7,1.2l-15.2,10.6v-4.5c-2.8-34.2-41.8-33.7-41.8-33.7
			h-16.9l-14.2,23.8l-14.3-23.8h-16.2c-41.1,0-41.4,29.6-41.4,40.8h0v72.7h-8.4V55.5h360.3v221.8H-73.4z M131.6,461.7
			c-19.8-18.2-10.6-37,4-59.7l10.5-12.1c20.8-17.9,42-26.4,62.2-7.7l20,18.4c-4.9,16.5-13.7,32-26.1,46
			c-16.7,18.7-36.1,30.5-47.6,36.4L131.6,461.7z M265.5,509.8c-20.3,22.7-55,24.5-77.4,3.9l-24.2-22.3c19-10.7,35.2-23.5,48.1-37.9
			c15.1-16.9,22.7-32.9,26.5-43.7l23.1,21.3C284,451.7,285.7,487,265.5,509.8z"/>
		<path class="st0" d="M168.8,400.7c-6-5.5-15.3-5-20.7,1c-5.4,6.1-5,15.5,1,21l20.8,19.2c6,5.5,15.3,5,20.7-1
			c5.4-6.1,4.9-15.5-1-21L168.8,400.7z M184,434.9c-2.2,2.4-5.9,2.6-8.2,0.4L155,416.2c-2.4-2.2-2.6-6-0.4-8.4
			c2.2-2.4,5.9-2.6,8.2-0.4l20.8,19.1C186,428.7,186.2,432.4,184,434.9z"/>
	</g>
</g>
<g>
	<g id="XMLID_1_">
		<path id="XMLID_18_" class="st0" d="M31,192.6c-3.7,2.6-7.8,5.5-10,10.3c-3.9,8.4,7.9,17.6,8.4,17.9c0.1,0.1,0.3,0.1,0.4,0.1
			c0.1,0,0.3-0.1,0.4-0.2c0.2-0.2,0.3-0.5,0.2-0.8c0-0.1-4.3-8.3-4.1-14.1c0.1-2,2.9-4.4,6-6.8c2.8-2.2,5.9-4.8,7.8-7.8
			c4-6.6-0.5-13-0.5-13.1c-0.2-0.3-0.5-0.3-0.8-0.2c-0.3,0.1-0.4,0.4-0.4,0.7c0,0,0.9,4.3-1.5,8.7C35.7,189.3,33.5,190.8,31,192.6z"
			/>
		<path id="XMLID_17_" class="st0" d="M46.4,195.5c0.3-0.2,0.3-0.5,0.2-0.8c-0.2-0.3-0.5-0.4-0.8-0.3c-0.6,0.2-15.2,5.8-15.2,12.6
			c0,4.7,2,7.1,3.5,9c0.6,0.7,1.1,1.3,1.2,1.8c0.5,1.5-0.6,4.2-1.1,5.1c-0.1,0.3-0.1,0.6,0.2,0.8c0.1,0.1,0.3,0.2,0.4,0.2
			c0.1,0,0.3,0,0.4-0.1c0.3-0.2,6.1-4.3,5.1-9.3c-0.4-1.9-1.3-3.3-2.2-4.5c-1.3-1.9-2.2-3.3-0.8-5.8
			C38.9,201.2,46.3,195.6,46.4,195.5z"/>
		<path id="XMLID_16_" class="st0" d="M8.4,224c-0.3,0.7-0.1,1.5,0.3,2.1c1.6,2.2,7.2,3.4,15.8,3.4c0,0,0,0,0,0c1.2,0,2.4,0,3.7-0.1
			c13.7-0.5,18.8-4.8,19-4.9c0.2-0.2,0.3-0.5,0.1-0.8c-0.1-0.3-0.4-0.4-0.7-0.3c-4.8,1.3-13.9,1.8-20.1,1.8c-7,0-10.6-0.5-11.5-0.9
			c0.4-0.6,3.2-1.7,6.6-2.4c0.3-0.1,0.6-0.4,0.5-0.7s-0.3-0.6-0.6-0.6C19.5,220.7,9.4,220.8,8.4,224z"/>
		<path id="XMLID_6_" class="st0" d="M54.4,219.6c-2.8,0-5.5,1.4-5.6,1.5c-0.3,0.1-0.4,0.4-0.3,0.7c0.1,0.3,0.3,0.5,0.6,0.5
			c0.1,0,6,0,6.6,3.5c0.5,2.9-5.7,7.7-8.1,9.3c-0.3,0.2-0.4,0.5-0.2,0.8c0.1,0.2,0.3,0.4,0.6,0.4c0,0,0.1,0,0.1,0
			c0.6-0.1,14-3.1,12.6-10.9C59.7,220.6,56.7,219.6,54.4,219.6z"/>
		<path id="XMLID_5_" class="st0" d="M45.2,234.1c0-0.2-0.1-0.5-0.3-0.6l-3.2-2.2c-0.2-0.1-0.4-0.1-0.5-0.1c0,0-3.4,0.9-8.3,1.4
			c-1.9,0.2-4.1,0.3-6.3,0.3c-4.9,0-8.1-0.6-8.5-1c-0.1-0.1,0-0.2,0-0.2c0.1-0.2,0.5-0.5,0.8-0.6c0.3-0.1,0.5-0.5,0.4-0.8
			c-0.1-0.3-0.4-0.5-0.8-0.4c-3.2,0.8-4.8,1.9-4.7,3.2c0.2,2.4,5.8,3.7,10.6,4c0.7,0,1.4,0.1,2.2,0.1c0,0,0,0,0,0
			c7.9,0,18-2.5,18.1-2.5C44.9,234.6,45.1,234.4,45.2,234.1z"/>
		<path id="XMLID_4_" class="st0" d="M20.9,239.3c0.2-0.2,0.4-0.5,0.3-0.7c-0.1-0.3-0.3-0.5-0.6-0.5c-0.4,0-4.2,0.2-4.5,2.6
			c-0.1,0.7,0.1,1.4,0.6,2c1.4,1.6,5,2.6,11.2,2.9c0.7,0,1.5,0.1,2.2,0.1c7.9,0,13.2-2.5,13.4-2.6c0.2-0.1,0.4-0.3,0.4-0.6
			c0-0.2-0.1-0.5-0.3-0.6l-4.1-2.5c-0.1-0.1-0.3-0.1-0.5-0.1c0,0-2.6,0.5-6.5,1.1c-0.7,0.1-1.7,0.2-2.7,0.2c-3.9,0-8.2-0.6-9-1
			C20.8,239.5,20.8,239.4,20.9,239.3z"/>
		<path id="XMLID_3_" class="st0" d="M26.5,253.1c18.1,0,27.8-3.2,29.6-5.2c0.7-0.7,0.7-1.4,0.7-1.8c-0.1-1.1-1.1-1.8-1.2-1.8
			c-0.3-0.2-0.6-0.1-0.8,0.1c-0.2,0.2-0.2,0.6,0,0.8c0.1,0.1,0.2,0.4-0.2,0.7c-0.7,0.7-8.3,2.8-20.8,3.4c-1.7,0.1-3.5,0.1-5.4,0.1
			c-11.2,0-19.4-1.5-20.5-2.4c0.4-0.6,3.3-1.5,6.4-2.1c0.3-0.1,0.6-0.4,0.5-0.7c-0.1-0.3-0.4-0.6-0.7-0.5c-0.1,0-0.4,0-0.7,0.1
			c-5.1,0.3-11,1-11.3,3.6c-0.1,0.8,0.1,1.5,0.7,2.2C4.1,251.1,8.1,253.1,26.5,253.1C26.5,253.1,26.5,253.1,26.5,253.1z"/>
		<path id="XMLID_2_" class="st0" d="M59.7,248.4c-0.3-0.1-0.6-0.1-0.7,0.1c0,0-2.7,2.9-10.9,4.5c-3.1,0.6-9,0.9-17.4,0.9
			c-8.5,0-16.5-0.3-16.6-0.3c-0.3,0-0.6,0.2-0.7,0.6c0,0.3,0.2,0.6,0.5,0.7c0.1,0,8.5,2,20.1,2c5.5,0,10.9-0.4,16-1.3
			c9.5-1.7,10.2-6.4,10.2-6.6C60.1,248.8,59.9,248.6,59.7,248.4z"/>
	</g>
	<g>
	</g>
	<g>
	</g>
	<g>
	</g>
	<g>
	</g>
	<g>
	</g>
	<g>
	</g>
	<g>
	</g>
	<g>
	</g>
	<g>
	</g>
	<g>
	</g>
	<g>
	</g>
	<g>
	</g>
	<g>
	</g>
	<g>
	</g>
	<g>
	</g>
</g>
<g>
	<path class="st0" d="M120,189H87.4c-1.9,0-3.4,1.4-3.4,3.2v58.6c0,1.8,1.5,3.2,3.4,3.2h42.8c1.9,0,3.4-1.4,3.4-3.2v-48.9L120,189z
		 M105.2,230.2c-1.6,1.2-3.5,1.8-5.5,1.8c-5.2,0-9.4-4.4-9.4-9.7s4.2-9.7,9.4-9.7c2,0,3.9,0.6,5.5,1.8c1.1,0.8,1.2,2.3,0.4,3.3
		c-0.8,1-2.4,1.2-3.4,0.4c-0.7-0.6-1.6-0.8-2.5-0.8c-2.5,0-4.5,2.3-4.5,5.1s2,5.1,4.5,5.1c0.9,0,1.7-0.3,2.5-0.8
		c1.1-0.8,2.6-0.6,3.4,0.4C106.4,228,106.2,229.4,105.2,230.2z M113.1,224.1h-1.8v1.7c0,1-0.8,1.7-1.8,1.7c-1,0-1.8-0.8-1.8-1.7
		v-1.7l-1.8,0c-1,0-1.8-0.8-1.8-1.7s0.8-1.7,1.8-1.7l1.8,0v-1.7c0-1,0.8-1.7,1.8-1.7c1,0,1.8,0.8,1.8,1.7v1.7l1.8,0
		c1,0,1.8,0.8,1.8,1.7C115,223.3,114.2,224.1,113.1,224.1z M124.9,224.1h-1.8v1.7c0,1-0.8,1.7-1.8,1.7c-1,0-1.8-0.8-1.8-1.7v-1.7
		l-1.8,0c-1,0-1.8-0.8-1.8-1.7s0.8-1.7,1.8-1.7l1.8,0v-1.7c0-1,0.8-1.7,1.8-1.7c1,0,1.8,0.8,1.8,1.7v1.7l1.8,0c1,0,1.8,0.8,1.8,1.7
		C126.7,223.3,125.9,224.1,124.9,224.1z M118.7,203.9c-0.6,0-1.1-0.5-1.1-1v-9.9l11.5,10.9H118.7z"/>
	<g>
	</g>
	<g>
	</g>
	<g>
	</g>
	<g>
	</g>
	<g>
	</g>
	<g>
	</g>
	<g>
	</g>
	<g>
	</g>
	<g>
	</g>
	<g>
	</g>
	<g>
	</g>
	<g>
	</g>
	<g>
	</g>
	<g>
	</g>
	<g>
	</g>
</g>
<g>
	<g>
		<path class="st0" d="M89.1,154v18.4c0,1.2,1.5,2.4,3,2.4h48.3c1.5,0,3-1.2,3-2.4V154H89.1z M113.9,167c0,0.6-0.1,1.1-0.3,1.5
			c-0.2,0.4-0.5,0.7-0.8,1c-0.4,0.2-0.8,0.4-1.2,0.5c-0.5,0.1-0.9,0.1-1.4,0.1c-0.2,0-0.5,0-0.8-0.1c-0.3-0.1-0.7-0.1-1-0.2
			c-0.3-0.1-0.7-0.2-1-0.4c-0.3-0.1-0.6-0.3-0.8-0.5l0.8-1.4c0.1,0.1,0.3,0.2,0.5,0.2c0.2,0.1,0.4,0.2,0.7,0.2
			c0.2,0.1,0.5,0.1,0.8,0.2c0.3,0.1,0.5,0.1,0.7,0.1c0.6,0,1-0.1,1.4-0.3c0.3-0.2,0.5-0.6,0.6-1.2v-9.4h2V167z M123.4,167.9
			c-0.2,0.4-0.4,0.8-0.8,1.1c-0.3,0.3-0.7,0.6-1.2,0.8c-0.5,0.2-1,0.3-1.6,0.3c-0.3,0-0.5,0-0.8,0c-0.3,0-0.6-0.1-0.8-0.1
			c-0.3-0.1-0.6-0.2-0.8-0.3c-0.3-0.1-0.5-0.3-0.7-0.4l0.3-1.4c0.2,0.1,0.3,0.2,0.6,0.3c0.2,0.1,0.5,0.2,0.7,0.2
			c0.3,0.1,0.5,0.1,0.8,0.2c0.3,0,0.5,0.1,0.7,0.1c0.7,0,1.2-0.2,1.5-0.5c0.4-0.3,0.5-0.8,0.5-1.4c0-0.4-0.1-0.7-0.4-1
			c-0.3-0.3-0.6-0.5-0.9-0.7c-0.4-0.2-0.8-0.4-1.2-0.7c-0.4-0.2-0.9-0.5-1.2-0.8c-0.4-0.3-0.7-0.6-1-1c-0.3-0.4-0.4-0.9-0.4-1.5
			c0-0.5,0.1-1,0.3-1.5s0.5-0.8,0.8-1.1c0.3-0.3,0.7-0.5,1.2-0.7c0.4-0.2,0.9-0.2,1.4-0.2c0.5,0,1,0,1.5,0.1s0.9,0.2,1.3,0.5
			c-0.1,0.1-0.1,0.3-0.2,0.5c-0.1,0.2-0.2,0.3-0.2,0.5c-0.1,0.2-0.1,0.3-0.2,0.4c-0.1,0.1-0.1,0.2-0.1,0.2c-0.1,0-0.1-0.1-0.2-0.1
			c-0.1-0.1-0.2-0.1-0.4-0.2c-0.2-0.1-0.4-0.1-0.6-0.1c-0.3,0-0.6,0-1,0c-0.2,0-0.4,0.1-0.6,0.2s-0.4,0.2-0.5,0.4
			c-0.2,0.2-0.3,0.3-0.4,0.5c-0.1,0.2-0.1,0.4-0.1,0.6c0,0.4,0.1,0.8,0.4,1.1c0.3,0.3,0.6,0.5,0.9,0.7c0.4,0.2,0.8,0.4,1.2,0.6
			c0.4,0.2,0.8,0.4,1.2,0.7c0.4,0.3,0.7,0.6,0.9,1c0.3,0.4,0.4,1,0.4,1.6C123.7,167,123.6,167.4,123.4,167.9z"/>
		<path class="st0" d="M143.4,151.6V121c0-0.9-0.1-1.6-0.7-2.2l-14-14.2c-0.4-0.4-1-0.7-1.6-0.7h-35c-1.4,0-3,1.1-3,3.6v44.2H143.4z
			 M116.8,143c0,0.7-0.5,1.2-1.2,1.2s-1.2-0.5-1.2-1.2v-3.7c0-0.7,0.5-1.2,1.2-1.2s1.2,0.5,1.2,1.2V143z M126.5,108
			c0-0.6,0.7-0.8,1.1-0.4l12.2,12.4c0.4,0.4,0.1,1.1-0.4,1.1h-12.8V108z M125.3,132v-4.9c0-0.7-0.5-1.2-1.2-1.2
			c-0.7,0-1.2-0.5-1.2-1.2c0-0.7,0.5-1.2,1.2-1.2c2,0,3.6,1.6,3.6,3.7v4.9c0,1.4,1.1,2.4,2.4,2.4c0.7,0,1.2,0.5,1.2,1.2
			c0,0.7-0.5,1.2-1.2,1.2c-1.3,0-2.4,1.1-2.4,2.4v4.9c0,2-1.6,3.7-3.6,3.7c-0.7,0-1.2-0.5-1.2-1.2c0-0.7,0.5-1.2,1.2-1.2
			c0.7,0,1.2-0.5,1.2-1.2v-4.9c0-1.5,0.7-2.8,1.7-3.7C125.9,134.8,125.3,133.5,125.3,132z M115.6,129.6c1,0,1.8,0.8,1.8,1.8
			c0,1-0.8,1.8-1.8,1.8s-1.8-0.8-1.8-1.8C113.8,130.4,114.6,129.6,115.6,129.6z M101.2,134.4c1.3,0,2.4-1.1,2.4-2.4v-4.9
			c0-2,1.6-3.7,3.6-3.7c0.7,0,1.2,0.5,1.2,1.2c0,0.7-0.5,1.2-1.2,1.2c-0.7,0-1.2,0.5-1.2,1.2v4.9c0,1.5-0.7,2.8-1.7,3.7
			c1,0.9,1.7,2.2,1.7,3.7v4.9c0,0.7,0.5,1.2,1.2,1.2c0.7,0,1.2,0.5,1.2,1.2c0,0.7-0.5,1.2-1.2,1.2c-2,0-3.6-1.6-3.6-3.7v-4.9
			c0-1.4-1.1-2.4-2.4-2.4c-0.7,0-1.2-0.5-1.2-1.2C100,135,100.5,134.4,101.2,134.4z"/>
	</g>
	<g>
	</g>
	<g>
	</g>
	<g>
	</g>
	<g>
	</g>
	<g>
	</g>
	<g>
	</g>
	<g>
	</g>
	<g>
	</g>
	<g>
	</g>
	<g>
	</g>
	<g>
	</g>
	<g>
	</g>
	<g>
	</g>
	<g>
	</g>
	<g>
	</g>
</g>
<g>
	<g>
		<path class="st0" d="M78.2,151.7v-30.6c0-0.9-0.1-1.6-0.6-2.2l-12.9-14.2c-0.4-0.4-0.9-0.7-1.5-0.7H31c-1.3,0-2.7,1.1-2.7,3.6
			v44.2H78.2z M62.7,108.2c0-0.6,0.6-0.8,1-0.4l11.2,12.4c0.4,0.4,0.1,1.1-0.4,1.1H62.7V108.2z M59.7,126.9c-0.4-0.5-0.4-1.3,0-1.7
			c0.4-0.5,1.1-0.5,1.6,0l6.7,7.3c0.4,0.5,0.4,1.3,0,1.7l-6.7,7.3c-0.2,0.2-0.5,0.4-0.8,0.4c-0.3,0-0.6-0.1-0.8-0.4
			c-0.4-0.5-0.4-1.3,0-1.7l5.9-6.5L59.7,126.9z M39.7,132.5l6.7-7.3c0.4-0.5,1.1-0.5,1.6,0c0.4,0.5,0.4,1.3,0,1.7l-5.9,6.5l5.9,6.5
			c0.4,0.5,0.4,1.3,0,1.7c-0.2,0.2-0.5,0.4-0.8,0.4c-0.3,0-0.6-0.1-0.8-0.4l-6.7-7.3C39.3,133.8,39.3,133,39.7,132.5z"/>
		<path class="st0" d="M28.3,154.2v18.4c0,1.2,1.4,2.4,2.7,2.4h44.5c1.4,0,2.7-1.2,2.7-2.4v-18.4H28.3z M41.6,170.1h-1.8v-5.6h-4.8
			v5.6h-1.9v-12.3h1.9v5.4h4.8v-5.4h1.8V170.1z M52.3,159.1h-3.3v11h-1.8v-11h-3.3v-1.4h8.5L52.3,159.1L52.3,159.1z M64.8,170.1
			h-1.9v-8.5l-2.5,6.9h-1.6l-2.5-6.9v8.5h-1.9v-12.3h1.9l3.3,8.4l3.3-8.4h1.9L64.8,170.1L64.8,170.1z M74.6,170.1h-7v-12.3h1.9v10.8
			h5.1V170.1z"/>
	</g>
	<g>
	</g>
	<g>
	</g>
	<g>
	</g>
	<g>
	</g>
	<g>
	</g>
	<g>
	</g>
	<g>
	</g>
	<g>
	</g>
	<g>
	</g>
	<g>
	</g>
	<g>
	</g>
	<g>
	</g>
	<g>
	</g>
	<g>
	</g>
	<g>
	</g>
</g>
<g>
	<g>
		<path class="st0" d="M-2.7,160c-0.3-0.4-0.6-0.6-0.9-0.8s-0.7-0.2-1.1-0.2c-0.4,0-0.8,0.1-1.1,0.2s-0.7,0.4-1,0.8
			c-0.3,0.4-0.5,0.8-0.7,1.4c-0.2,0.6-0.2,1.3-0.3,2.1c0,0.8,0.1,1.5,0.2,2.1c0.2,0.6,0.4,1,0.6,1.4c0.3,0.4,0.6,0.6,0.9,0.8
			c0.3,0.2,0.7,0.3,1.1,0.3c0.4,0,0.8-0.1,1.1-0.2s0.7-0.4,1-0.8s0.5-0.8,0.7-1.4s0.2-1.3,0.3-2.1c0-0.8-0.1-1.5-0.2-2.1
			C-2.2,160.9-2.4,160.4-2.7,160z"/>
		<path class="st0" d="M18.3,151.7v-29.8c0-0.9-0.1-1.6-0.6-2.1L4,105.9c-0.4-0.4-1-0.7-1.6-0.7h-34.1c-1.4,0-2.9,1.1-2.9,3.5v43
			H18.3z M-7.5,144.6c0,0.7-0.5,1.2-1.2,1.2s-1.2-0.5-1.2-1.2V141c0-0.7,0.5-1.2,1.2-1.2s1.2,0.5,1.2,1.2V144.6z M1.8,109.3
			c0-0.5,0.6-0.8,1-0.4l11.8,12c0.4,0.4,0.1,1-0.4,1H1.8V109.3z M0.7,133.8v-4.8c0-0.7-0.5-1.2-1.2-1.2c-0.6,0-1.2-0.5-1.2-1.2
			c0-0.7,0.5-1.2,1.2-1.2c1.9,0,3.5,1.6,3.5,3.6v4.8c0,1.3,1.1,2.4,2.3,2.4c0.6,0,1.2,0.5,1.2,1.2c0,0.7-0.5,1.2-1.2,1.2
			c-1.3,0-2.3,1.1-2.3,2.4v4.8c0,2-1.6,3.6-3.5,3.6c-0.6,0-1.2-0.5-1.2-1.2c0-0.7,0.5-1.2,1.2-1.2c0.6,0,1.2-0.5,1.2-1.2V141
			c0-1.4,0.6-2.7,1.6-3.6C1.3,136.5,0.7,135.3,0.7,133.8z M-8.7,131.5c1,0,1.8,0.8,1.8,1.8c0,1-0.8,1.8-1.8,1.8s-1.8-0.8-1.8-1.8
			C-10.5,132.3-9.7,131.5-8.7,131.5z M-22.8,136.2c1.3,0,2.3-1.1,2.3-2.4v-4.8c0-2,1.6-3.6,3.5-3.6c0.6,0,1.2,0.5,1.2,1.2
			c0,0.7-0.5,1.2-1.2,1.2c-0.6,0-1.2,0.5-1.2,1.2v4.8c0,1.4-0.6,2.7-1.6,3.6c1,0.9,1.6,2.1,1.6,3.6v4.8c0,0.7,0.5,1.2,1.2,1.2
			c0.6,0,1.2,0.5,1.2,1.2c0,0.7-0.5,1.2-1.2,1.2c-1.9,0-3.5-1.6-3.5-3.6V141c0-1.3-1.1-2.4-2.3-2.4c-0.6,0-1.2-0.5-1.2-1.2
			C-24,136.8-23.5,136.2-22.8,136.2z"/>
		<path class="st0" d="M-34.5,154.1V172c0,1.2,1.4,2.4,2.9,2.4h47c1.5,0,2.9-1.2,2.9-2.4v-17.9H-34.5z M-21,166.7
			c0,0.6-0.1,1-0.3,1.4s-0.5,0.7-0.8,0.9c-0.3,0.2-0.7,0.4-1.2,0.5c-0.4,0.1-0.9,0.1-1.4,0.1c-0.2,0-0.5,0-0.8-0.1s-0.6-0.1-1-0.2
			c-0.3-0.1-0.7-0.2-1-0.4c-0.3-0.1-0.6-0.3-0.8-0.4l0.8-1.3c0.1,0.1,0.3,0.2,0.5,0.2c0.2,0.1,0.4,0.2,0.7,0.2s0.5,0.1,0.7,0.2
			c0.3,0.1,0.5,0.1,0.7,0.1c0.6,0,1-0.1,1.4-0.3c0.3-0.2,0.5-0.6,0.5-1.1v-9.2h2V166.7z M-11.7,167.5c-0.2,0.4-0.4,0.8-0.7,1.1
			s-0.7,0.6-1.2,0.7c-0.5,0.2-1,0.3-1.6,0.3c-0.3,0-0.5,0-0.8,0s-0.5-0.1-0.8-0.1c-0.3-0.1-0.5-0.2-0.8-0.3
			c-0.3-0.1-0.5-0.3-0.7-0.4l0.3-1.4c0.2,0.1,0.3,0.2,0.6,0.3c0.2,0.1,0.5,0.2,0.7,0.2c0.2,0.1,0.5,0.1,0.7,0.2s0.5,0.1,0.7,0.1
			c0.7,0,1.2-0.2,1.5-0.5c0.3-0.3,0.5-0.8,0.5-1.4c0-0.4-0.1-0.7-0.4-0.9c-0.2-0.3-0.6-0.5-0.9-0.7c-0.4-0.2-0.8-0.4-1.2-0.6
			c-0.4-0.2-0.8-0.5-1.2-0.7c-0.4-0.3-0.7-0.6-0.9-1c-0.2-0.4-0.4-0.9-0.4-1.5c0-0.5,0.1-1,0.3-1.4c0.2-0.4,0.5-0.8,0.8-1.1
			s0.7-0.5,1.1-0.7c0.4-0.2,0.9-0.2,1.4-0.2c0.5,0,1,0,1.5,0.1c0.5,0.1,0.9,0.2,1.2,0.4c-0.1,0.1-0.1,0.3-0.2,0.5
			c-0.1,0.2-0.2,0.3-0.2,0.5c-0.1,0.1-0.1,0.3-0.2,0.4c-0.1,0.1-0.1,0.2-0.1,0.2c-0.1,0-0.1-0.1-0.2-0.1c-0.1-0.1-0.2-0.1-0.3-0.2
			c-0.2-0.1-0.3-0.1-0.6-0.1s-0.6,0-0.9,0c-0.2,0-0.4,0.1-0.6,0.2c-0.2,0.1-0.4,0.2-0.5,0.4c-0.2,0.2-0.3,0.3-0.4,0.5
			c-0.1,0.2-0.1,0.4-0.1,0.5c0,0.4,0.1,0.8,0.4,1.1c0.2,0.3,0.6,0.5,0.9,0.7c0.4,0.2,0.8,0.4,1.2,0.6c0.4,0.2,0.8,0.4,1.2,0.7
			c0.4,0.3,0.7,0.6,0.9,1s0.4,0.9,0.4,1.6C-11.4,166.7-11.5,167.1-11.7,167.5z M-0.2,166.2c-0.3,0.8-0.6,1.4-1,1.9s-1,0.9-1.6,1.2
			c-0.6,0.3-1.2,0.4-1.9,0.4s-1.4-0.1-1.9-0.4s-1.1-0.6-1.6-1.2c-0.4-0.5-0.8-1.2-1-1.9c-0.3-0.8-0.4-1.7-0.4-2.7
			c0-1,0.1-1.9,0.4-2.7c0.3-0.8,0.6-1.4,1-1.9c0.4-0.5,1-0.9,1.6-1.2c0.6-0.3,1.2-0.4,1.9-0.4c0.7,0,1.4,0.1,1.9,0.4
			c0.6,0.3,1.1,0.7,1.6,1.2s0.8,1.1,1,1.9s0.4,1.7,0.4,2.7C0.2,164.5,0.1,165.4-0.2,166.2z M11.4,169.6h-2l-4.6-8.3v8.3h-2v-12h2
			l4.6,8.3v-8.3h2V169.6z"/>
	</g>
	<g>
	</g>
	<g>
	</g>
	<g>
	</g>
	<g>
	</g>
	<g>
	</g>
	<g>
	</g>
	<g>
	</g>
	<g>
	</g>
	<g>
	</g>
	<g>
	</g>
	<g>
	</g>
	<g>
	</g>
	<g>
	</g>
	<g>
	</g>
	<g>
	</g>
</g>
</svg>
