<?xml version="1.0" encoding="utf-8"?>
<!-- Generator: Adobe Illustrator 19.0.0, SVG Export Plug-In . SVG Version: 6.00 Build 0)  -->
<svg version="1.1" id="Capa_1" xmlns="http://www.w3.org/2000/svg" xmlns:xlink="http://www.w3.org/1999/xlink" x="0px" y="0px"
	 viewBox="-223 -156 512 512" style="enable-background:new -223 -156 512 512;" xml:space="preserve">
<style type="text/css">
	.st0{fill:#FFC445;}
	.st1{fill:#FFDA44;}
</style>
<g>
	<path class="st0" d="M-99.8,56.1c-1.4-3.1-4.5-5.1-7.9-5.1c0,0,0,0,0,0c-3.4,0-6.5,2-7.9,5.1l-43.4,94.8c-2,4.4-0.1,9.6,4.3,11.6
		c1.2,0.5,2.4,0.8,3.6,0.8c3.3,0,6.5-1.9,8-5.1l10.9-23.8h49.5l11,23.8c2,4.4,7.2,6.3,11.6,4.3c4.4-2,6.3-7.2,4.3-11.6L-99.8,56.1z
		 M-124.3,117l16.6-36.2l16.8,36.2H-124.3z"/>
	<path class="st0" d="M1.3,50H-41c-4.8,0-8.8,3.9-8.8,8.8v95.9c0,4.8,3.9,8.8,8.8,8.8s8.8-3.9,8.8-8.8v-36.4H1.3
		c18.8,0,34.1-15.3,34.1-34.1C35.4,65.3,20.1,50,1.3,50z M1.3,100.7h-33.6V67.5H1.3c9.2,0,16.6,7.4,16.6,16.6
		C17.9,93.2,10.5,100.7,1.3,100.7z"/>
	<path class="st0" d="M50.9,50c-4.8,0-8.8,3.9-8.8,8.8v95.9c0,4.8,3.9,8.8,8.8,8.8s8.8-3.9,8.8-8.8V58.7C59.7,53.9,55.8,50,50.9,50z
		"/>
	<path class="st0" d="M273.3-93.4h-480.5c-8.7,0-15.7,7.1-15.7,15.7v355.2c0,8.7,7.1,15.7,15.7,15.7h480.5c8.7,0,15.7-7.1,15.7-15.7
		V-77.6C289-86.3,281.9-93.4,273.3-93.4z M155.5,193.3c7-16.4,23-27,40.8-27c5.9,0,11.8,1.2,17.3,3.5c22.5,9.5,33,35.6,23.5,58.1
		c-7,16.4-23,27-40.8,27c0,0,0,0,0,0c-5.9,0-11.8-1.2-17.3-3.5c-10.9-4.6-19.3-13.2-23.8-24.2C150.8,216.3,150.9,204.2,155.5,193.3z
		 M209.3-48.5c9.2,0,16.7,7.5,16.7,16.7c0,9.2-7.5,16.7-16.7,16.7c-9.2,0-16.7-7.5-16.7-16.7C192.6-41,200.1-48.5,209.3-48.5z
		 M159.3-48.5c9.2,0,16.7,7.5,16.7,16.7c0,9.2-7.5,16.7-16.7,16.7c-9.2,0-16.7-7.5-16.7-16.7C142.6-41,150.1-48.5,159.3-48.5z
		 M109.2-48.5c9.2,0,16.7,7.5,16.7,16.7c0,9.2-7.5,16.7-16.7,16.7c-9.2,0-16.7-7.5-16.7-16.7C92.5-41,100-48.5,109.2-48.5z
		 M-194.3,267.1V34.6h454.7v90.6c-2.1-3-5-5.4-8.5-6.9L224,106.5c-2.5-1-5.1-1.6-7.8-1.6c-8,0-15.2,4.8-18.4,12.2l-1.7,4
		c-12.4,0.2-24.8,3-36,8.3l-3.3-2.8c-1.6-1.4-3.4-2.5-5.3-3.3c-2.5-1-5.1-1.6-7.8-1.6c-5.8,0-11.2,2.5-15,6.9l-19.8,22.8
		c-3.5,4-5.2,9.2-4.8,14.5c0.4,5.3,2.8,10.2,6.8,13.6l3.3,2.8c-3.7,11.9-4.8,24.5-3.2,36.8l-3.7,2.2c-9.4,5.7-12.5,17.9-6.8,27.3
		l11.9,19.7H-193C-193.7,268.4-194.3,267.8-194.3,267.1z"/>
</g>
<g>
	<g>
		<path class="st1" d="M-130.9,207c-1.1,0-1.9,0.1-2.2,0.2v5.7c0.5,0.1,1,0.1,1.8,0.1c2.9,0,4.8-1.2,4.8-3.2
			C-126.5,208-128.1,206.9-130.9,207z"/>
		<path class="st1" d="M-85.8,178.8h-29.7c-0.1,0-0.3,0-0.4,0V172l-58,6.4v68.1l58,6.6v-7c0.1,0,0.3,0,0.4,0h29.7
			c3.5,0,6.3-2.3,6.3-5.2V184C-79.5,181.1-82.4,178.8-85.8,178.8z M-159.4,215.7c0,5-2.7,6.6-6.8,6.5c-1,0-2.2-0.2-3-0.5l0.5-3.1
			c0.6,0.2,1.3,0.3,2.1,0.4c1.8,0.1,2.9-0.7,2.9-3.3v-10.9l4.4-0.1L-159.4,215.7L-159.4,215.7z M-150.6,222.8
			c-2.4-0.1-4.7-0.7-5.8-1.3l0.9-3.3c1.2,0.6,3.2,1.2,5.2,1.3c2.2,0.1,3.4-0.7,3.4-1.9c0-1.1-1-1.8-3.6-2.6
			c-3.5-1.1-5.7-2.7-5.7-5.3c0-3,2.9-5.4,7.9-5.6c2.4-0.1,4.3,0.3,5.6,0.8l-1.1,3.4c-0.9-0.3-2.4-0.8-4.5-0.8
			c-2.1,0-3.1,0.9-3.1,1.8c0,1.2,1.2,1.7,3.9,2.6c3.9,1.2,5.7,3,5.7,5.6C-141.9,220.5-144.7,223-150.6,222.8z M-123.2,214.4
			c-2,1.4-4.8,2-8.1,2c-0.7,0-1.4-0.1-1.9-0.1v6.9l-5.3-0.2v-18.7c1.6-0.3,3.9-0.5,7.2-0.6c3.4-0.1,5.9,0.4,7.6,1.4
			c1.6,1,2.8,2.6,2.8,4.6C-120.8,211.6-121.7,213.3-123.2,214.4z M-83.1,240.8c0,1.2-1.2,2.2-2.7,2.2h-29.7c-0.1,0-0.3,0-0.4,0
			v-18.2c2,0.2,4.8,0.4,8.7,0.4c10.8,0,15.5-1.6,16.3-2.3c0.8-0.7-0.2-1.2-0.2-1.2s0.4,0.3-0.1,0.7c-0.5,0.4-4.8,1.4-11.8,1.7
			c-4.9,0.2-10-0.1-12.8-0.6v-1.7c0.9-0.2,1.8-0.3,1.8-0.3c-0.2,0-0.9,0-1.8,0.1v-8.1c1.6,0.6,4.8,1,9.6,0.9
			c8.5-0.3,9.5-1.6,10.4-2.2c-4.9,1.1-18,1-18.1,0.2c-0.1-0.8,4-1.5,4-1.5s-4,0-6,0.7v-29.7c0.1,0,0.3,0,0.4,0h29.7
			c1.5,0,2.7,1,2.7,2.2L-83.1,240.8L-83.1,240.8z"/>
		<path class="st1" d="M-100,196.9c2.1-2.9-0.3-5.7-0.3-5.7s0.5,2.1-0.9,4.2c-1.4,2.1-6.7,3.4-8.8,7.1c-2.1,3.7,4.6,7.9,4.6,7.9
			s-2.4-3.8-2.3-6.7C-107.7,201.8-102.2,199.8-100,196.9z"/>
		<path class="st1" d="M-96.4,198.7c0,0-8.3,2.6-8.3,5.5c0,3,2.2,3.9,2.6,4.9c0.4,1-0.6,2.6-0.6,2.6s3.2-1.8,2.7-4
			c-0.5-2.1-3-2.8-1.6-5C-100.6,201.4-96.4,198.7-96.4,198.7z"/>
		<path class="st1" d="M-94.7,211c0,0,3.7,0,4,1.8c0.4,1.8-4.7,4.6-4.7,4.6s7.9-1.3,7.2-4.7C-89,208.7-94.7,211-94.7,211z"/>
		<path class="st1" d="M-112.2,215.9c-0.4-0.5,0.6-0.8,0.6-0.8c-4.5,0.9-2,2.4,3.2,2.7c4.5,0.3,9.5-1.1,9.5-1.1l1.6-1
			c0,0-3.6,0.4-6.3,0.7C-107.4,216.7-111.9,216.4-112.2,215.9z"/>
		<path class="st1" d="M-110.7,219.4c-0.2-0.3,0.2-0.5,0.2-0.5s-2,0-2.2,0.9c-0.1,0.9,0.6,1.3,5.7,1.2c6-0.1,7-0.7,7.6-1.1l1.5-0.9
			c-3.9,0.4-4.2,0.5-6.4,0.6C-106.6,219.7-110.5,219.8-110.7,219.4z"/>
		<path class="st1" d="M-95.2,225.8c-4.7,0.8-19.1,0.3-19.1,0.3s9.3,1.8,20,0.3c5.1-0.7,5.4-2.8,5.4-2.8S-90.5,225-95.2,225.8z"/>
	</g>
	<g>
	</g>
	<g>
	</g>
	<g>
	</g>
	<g>
	</g>
	<g>
	</g>
	<g>
	</g>
	<g>
	</g>
	<g>
	</g>
	<g>
	</g>
	<g>
	</g>
	<g>
	</g>
	<g>
	</g>
	<g>
	</g>
	<g>
	</g>
	<g>
	</g>
</g>
<g>
	<g>
		<path class="st1" d="M-62.2,188.8c-0.6,0-1,0.1-1.3,0.1v4.3c0.3,0.1,0.6,0.1,1,0.1c1.6,0,2.6-0.9,2.6-2.4
			C-59.8,189.6-60.6,188.8-62.2,188.8z"/>
		<path class="st1" d="M-34.1,190.9c0-1.3-0.9-2.1-2.4-2.1c-0.6,0-1.1,0.1-1.3,0.1v4.3c0.3,0.1,0.6,0.1,1,0.1
			C-35.1,193.3-34.1,192.4-34.1,190.9z"/>
		<path class="st1" d="M-17.2,171.1h-30.3c-4.4,0-8,3.9-8,8.6v1.6h-13.8c-1.8,0-3.2,1.6-3.2,3.5v17.7c0,1.9,1.4,3.5,3.2,3.5h13.8
			v37.5c0,4.8,3.6,8.6,8,8.6h41.3c4.4,0,8-3.9,8-8.6v-52L-17.2,171.1z M-58,194.3c-1.1,1.1-2.6,1.5-4.4,1.5c-0.4,0-0.8,0-1-0.1v5.2
			h-3v-14.4c0.9-0.2,2.3-0.3,4.2-0.3c1.9,0,3.3,0.4,4.2,1.2c0.9,0.7,1.5,2,1.5,3.4C-56.7,192.3-57.2,193.5-58,194.3z M-46.6,192
			v-5.6h3.1V201h-3.1v-6.1h-5.1v6.1h-3.1v-14.6h3.1v5.6C-51.7,192-46.6,192-46.6,192z M-6.2,246.9h-41.3c-1.7,0-3.1-1.5-3.1-3.3V206
			h21.9c1.8,0,3.2-1.6,3.2-3.5v-17.7c0-1.9-1.4-3.5-3.2-3.5h-21.9v-1.6c0-1.8,1.4-3.3,3.1-3.3l28.4,0v11.3c0,3.3,2.5,6,5.6,6l10.3,0
			l0.1,49.9C-3.1,245.4-4.5,246.9-6.2,246.9z M-40.9,201v-14.4c0.9-0.2,2.3-0.3,4.2-0.3c1.9,0,3.2,0.4,4.2,1.2
			c0.9,0.7,1.4,2,1.4,3.4c0,1.4-0.4,2.6-1.2,3.5c-1,1.1-2.6,1.5-4.4,1.5c-0.4,0-0.8,0-1-0.1v5.2L-40.9,201L-40.9,201z"/>
		<path class="st1" d="M-26.8,219.4c0-0.8-0.4-1.5-1-2c-0.6-0.4-1.4-0.5-2.1-0.1l-12,6c-1,0.5-1.6,1.6-1.6,2.7
			c0,1.2,0.6,2.2,1.6,2.7l12,6c0.7,0.3,1.4,0.3,2.1-0.1c0.6-0.4,1-1.2,1-2c0-0.9-0.5-1.8-1.3-2.1l-9.5-4.5l9.5-4.5
			C-27.3,221.1-26.8,220.3-26.8,219.4z"/>
		<path class="st1" d="M-16.7,212.9c-1.4,0-2.7,0.3-3.7,0.6c-0.9,0.3-1.5,1.4-1.2,2.4c0.3,1,1.3,1.6,2.2,1.3
			c0.5-0.2,1.1-0.2,1.5-0.2c1.6,0.1,2.3,0.9,2.3,2.1c0,1.2-0.8,2.3-1.9,3.6c-1.4,1.9-2,3.7-1.9,5.4l0,0.3c0,0.3,0.3,0.6,0.6,0.6h3.1
			c0.3,0,0.6-0.3,0.6-0.6c0-1.6,0.4-2.9,1.6-4.3c1.2-1.4,2.7-3.2,2.7-5.8C-10.6,215.4-12.5,212.9-16.7,212.9z"/>
		<path class="st1" d="M-17.2,230.6c-1.7,0-2.9,1.3-2.9,3.1c0,1.8,1.2,3.1,2.9,3.1c1.7,0,2.9-1.3,2.9-3.1
			C-14.3,231.9-15.5,230.6-17.2,230.6z"/>
	</g>
	<g>
	</g>
	<g>
	</g>
	<g>
	</g>
	<g>
	</g>
	<g>
	</g>
	<g>
	</g>
	<g>
	</g>
	<g>
	</g>
	<g>
	</g>
	<g>
	</g>
	<g>
	</g>
	<g>
	</g>
	<g>
	</g>
	<g>
	</g>
	<g>
	</g>
</g>
<g>
	<g>
		<path class="st1" d="M86.9,186.3C86.9,186.3,86.9,186.3,86.9,186.3c0-0.1,0-0.1,0-0.1c0,0,0-0.1,0-0.1c0,0,0,0,0,0
			c0,0,0-0.1,0-0.1c0,0,0,0,0,0c0,0,0-0.1,0-0.1c0,0,0,0,0,0c0,0,0-0.1-0.1-0.1c0,0,0,0,0,0c0,0,0,0-0.1-0.1c0,0,0,0,0,0
			c0,0-0.1-0.1-0.1-0.1l-17.6-15.2c0,0-0.1-0.1-0.1-0.1c0,0,0,0,0,0c0,0-0.1,0-0.1-0.1c0,0,0,0,0,0c0,0-0.1,0-0.1,0c0,0,0,0,0,0
			c0,0-0.1,0-0.1,0c0,0,0,0,0,0c0,0-0.1,0-0.1,0c0,0,0,0,0,0c0,0-0.1,0-0.1,0c0,0,0,0,0,0c0,0-0.1,0-0.1,0c0,0-0.1,0-0.1,0H27
			c-4,0-7.2,2.8-7.2,6.3v6.4h-5.9c-3.2,0-5.8,2.2-5.8,5v12.7c0,2.8,2.6,5,5.8,5h5.9v39.4c0,3.5,3.2,6.3,7.2,6.3h52.7
			c4,0,7.2-2.8,7.2-6.3v-58.3C86.9,186.4,86.9,186.4,86.9,186.3z M69.3,174.1l12.9,11.2h-8.4c-2.5,0-4.5-1.7-4.5-3.9V174.1z
			 M10.8,200.4v-12.7c0-1.4,1.4-2.6,3-2.6h41c1.7,0,3,1.2,3,2.6v12.7c0,1.4-1.4,2.6-3,2.6H21.1c0,0,0,0,0,0c0,0,0,0,0,0h-7.3
			C12.1,203,10.8,201.9,10.8,200.4z M79.7,248.7H27c-2.5,0-4.5-1.7-4.5-3.9v-39.4h32.3c3.2,0,5.8-2.2,5.8-5v-12.7c0-2.8-2.6-5-5.8-5
			H22.5v-6.4c0-2.1,2-3.9,4.5-3.9h39.6v9c0,3.5,3.2,6.3,7.2,6.3h10.3v57.1C84.2,246.9,82.2,248.7,79.7,248.7z"/>
		<path class="st1" d="M57.7,222.1c-0.4,0-0.7,0.1-1,0.3c-0.3,0.2-0.4,0.5-0.4,0.8c0,0.3,0.1,0.6,0.4,0.8c0.3,0.2,0.6,0.3,1,0.3
			s0.7-0.1,1-0.3c0.3-0.2,0.4-0.5,0.4-0.8c0-0.3-0.1-0.6-0.4-0.8C58.4,222.2,58.1,222.1,57.7,222.1z"/>
		<path class="st1" d="M57.7,230.9c-0.4,0-0.7,0.1-1,0.3c-0.3,0.2-0.4,0.5-0.4,0.8s0.1,0.6,0.4,0.8c0.3,0.2,0.6,0.3,1,0.3
			s0.7-0.1,1-0.3c0.3-0.2,0.4-0.5,0.4-0.8s-0.1-0.6-0.4-0.8C58.4,231.1,58.1,230.9,57.7,230.9z"/>
		<path class="st1" d="M21.1,200.3c1.6,0,3.2-0.6,4.3-1.7c0.5-0.5,0.5-1.2-0.1-1.7c-0.6-0.4-1.4-0.4-1.9,0.1
			c-0.6,0.6-1.4,0.9-2.2,0.9h-1.5c-1.7,0-3-1.2-3-2.6v-2.5c0-1.4,1.4-2.6,3-2.6h1.5c0.9,0,1.6,0.3,2.2,0.9c0.5,0.5,1.4,0.5,1.9,0.1
			c0.6-0.4,0.6-1.2,0.1-1.7c-1.1-1.1-2.7-1.7-4.3-1.7h-1.5c-3.2,0-5.8,2.2-5.8,5v2.5c0,2.8,2.6,5,5.8,5H21.1z"/>
		<path class="st1" d="M29.9,195.3h3v2.6c0,0.7,0.6,1.2,1.4,1.2c0.8,0,1.4-0.5,1.4-1.2v-2.6h3c0.8,0,1.4-0.5,1.4-1.2
			c0-0.7-0.6-1.2-1.4-1.2h-3v-2.6c0-0.7-0.6-1.2-1.4-1.2c-0.8,0-1.4,0.5-1.4,1.2v2.6h-3c-0.8,0-1.4,0.5-1.4,1.2
			C28.5,194.7,29.1,195.3,29.9,195.3z"/>
		<path class="st1" d="M44.5,195.3h3v2.6c0,0.7,0.6,1.2,1.4,1.2s1.4-0.5,1.4-1.2v-2.6h3c0.8,0,1.4-0.5,1.4-1.2
			c0-0.7-0.6-1.2-1.4-1.2h-3v-2.6c0-0.7-0.6-1.2-1.4-1.2s-1.4,0.5-1.4,1.2v2.6h-3c-0.8,0-1.4,0.5-1.4,1.2
			C43.2,194.7,43.8,195.3,44.5,195.3z"/>
		<path class="st1" d="M46,219.4h1.5c1.3,0,2.5,0.4,3.6,1c0.6,0.4,1.5,0.3,1.9-0.2c0.5-0.5,0.3-1.3-0.3-1.7c-1.5-1-3.3-1.5-5.2-1.5
			H46c-5.6,0-10.2,3.9-10.2,8.8v3.8c0,4.9,4.6,8.8,10.2,8.8h1.5c1.9,0,3.7-0.5,5.2-1.5c0.6-0.4,0.7-1.1,0.3-1.7
			c-0.5-0.5-1.3-0.6-1.9-0.2c-1,0.7-2.3,1-3.6,1H46c-4.1,0-7.4-2.9-7.4-6.4v-3.8C38.6,222.2,41.9,219.4,46,219.4z"/>
		<path class="st1" d="M61.9,215.3c-0.2-0.6-1-1-1.7-0.8c-0.7,0.2-1.1,0.9-0.9,1.5l8.8,22.8c0.2,0.5,0.7,0.8,1.3,0.8
			c0.1,0,0.3,0,0.4-0.1c0.7-0.2,1.1-0.9,0.9-1.5L61.9,215.3z"/>
	</g>
	<g>
	</g>
	<g>
	</g>
	<g>
	</g>
	<g>
	</g>
	<g>
	</g>
	<g>
	</g>
	<g>
	</g>
	<g>
	</g>
	<g>
	</g>
	<g>
	</g>
	<g>
	</g>
	<g>
	</g>
	<g>
	</g>
	<g>
	</g>
	<g>
	</g>
</g>
</svg>
