<?xml version="1.0" encoding="utf-8"?>
<!-- Generator: Adobe Illustrator 19.0.0, SVG Export Plug-In . SVG Version: 6.00 Build 0)  -->
<svg version="1.1" id="Capa_1" xmlns="http://www.w3.org/2000/svg" xmlns:xlink="http://www.w3.org/1999/xlink" x="0px" y="0px"
	 viewBox="-223 25 512 512" style="enable-background:new -223 25 512 512;" xml:space="preserve">
<style type="text/css">
	.st0{fill:#FF99C9;}
</style>
<g>
	<path class="st0" d="M-183.4,128.2c2,0,3.9-0.8,5.3-2.2c1.4-1.4,2.2-3.3,2.2-5.3c0-2-0.8-3.9-2.2-5.3c-1.4-1.4-3.3-2.2-5.3-2.2
		c-2,0-3.9,0.8-5.3,2.2c-1.4,1.4-2.2,3.3-2.2,5.3c0,2,0.8,3.9,2.2,5.3C-187.3,127.4-185.4,128.2-183.4,128.2z"/>
	<path class="st0" d="M-159.4,128.2c2,0,3.9-0.8,5.3-2.2c1.4-1.4,2.2-3.3,2.2-5.3c0-2-0.8-3.9-2.2-5.3c-1.4-1.4-3.3-2.2-5.3-2.2
		c-2,0-3.9,0.8-5.3,2.2c-1.4,1.4-2.2,3.3-2.2,5.3c0,2,0.8,3.9,2.2,5.3C-163.3,127.4-161.3,128.2-159.4,128.2z"/>
	<path class="st0" d="M-135.3,128.2c2,0,3.9-0.8,5.3-2.2c1.4-1.4,2.2-3.3,2.2-5.3c0-2-0.8-3.9-2.2-5.3c-1.4-1.4-3.3-2.2-5.3-2.2
		s-3.9,0.8-5.3,2.2c-1.4,1.4-2.2,3.3-2.2,5.3c0,2,0.8,3.9,2.2,5.3C-139.2,127.4-137.3,128.2-135.3,128.2z"/>
	<path class="st0" d="M249.4,81.1h-432.8c-21.8,0-39.6,17.8-39.6,39.6v320.6c0,21.8,17.8,39.6,39.6,39.6h432.8
		c21.8,0,39.6-17.8,39.6-39.6V120.7C289,98.9,271.2,81.1,249.4,81.1z M-183.4,96.1h432.8c13.5,0,24.5,11,24.5,24.5v24.5H-208v-24.5
		C-208,107.2-197,96.1-183.4,96.1z M249.4,465.9h-432.8c-13.5,0-24.5-11-24.5-24.5v-281H274v281C274,454.8,263,465.9,249.4,465.9z"
		/>
</g>
<g>
	<g>
		<g>
			<path class="st0" d="M92.3,443.7c-0.5-0.4-1.1-0.6-1.8-0.6H16.1c-0.7,0-1.3,0.2-1.8,0.6c-0.5,0.4-0.7,0.9-0.7,1.5v4.1
				c0,0.6,0.2,1.1,0.7,1.5c0.5,0.4,1.1,0.6,1.8,0.6h74.4c0.7,0,1.3-0.2,1.8-0.6c0.5-0.4,0.7-0.9,0.7-1.5v-4.1
				C93,444.6,92.8,444.1,92.3,443.7z"/>
			<path class="st0" d="M-26.8,382.6c-0.5-0.4-1.1-0.6-1.8-0.6c-0.7,0-1.3,0.2-1.8,0.6l-3.9,3.2c-0.5,0.4-0.8,0.9-0.8,1.5
				c0,0.6,0.3,1.1,0.8,1.5l30.5,25.4l-30.5,25.4c-0.5,0.4-0.8,0.9-0.8,1.5c0,0.6,0.3,1.1,0.8,1.5l3.9,3.2c0.5,0.4,1.1,0.6,1.8,0.6
				c0.7,0,1.3-0.2,1.8-0.6l36.1-30.1c0.5-0.4,0.8-0.9,0.8-1.5c0-0.6-0.3-1.1-0.8-1.5L-26.8,382.6z"/>
		</g>
	</g>
	<g>
	</g>
	<g>
	</g>
	<g>
	</g>
	<g>
	</g>
	<g>
	</g>
	<g>
	</g>
	<g>
	</g>
	<g>
	</g>
	<g>
	</g>
	<g>
	</g>
	<g>
	</g>
	<g>
	</g>
	<g>
	</g>
	<g>
	</g>
	<g>
	</g>
</g>
<g>
	<g>
		<path class="st0" d="M177.3,340.3h-17.1v-27.6l-21-0.2v19.7H-93.1V194.7h232.3v46.3l21,1v-56.1c0-6.6-5.4-11.9-12.1-11.9h-250.2
			c-6.7,0-12.1,5.3-12.1,11.9v154.4h-16.4c-3,0-5.5,2.4-5.5,5.4c0,12.9,10.6,23.3,23.7,23.3H78.4v-10.1c0-3.6,3-6.5,6.6-6.5
			c3.6,0,6.6,2.9,6.6,6.5V369h10.8v-10.1c0-3.6,3-6.5,6.6-6.5c3.6,0,6.6,2.9,6.6,6.5V369h43.5c13.1,0,23.7-10.5,23.7-23.3
			C182.8,342.7,180.3,340.3,177.3,340.3z"/>
		<path class="st0" d="M-24.6,230.9c-1.6-5.1-4.9-8.9-9.9-7.3c-4.9,1.5-5.8,6.4-4.2,11.7c1.7,5.2,5.1,8.9,10,7.4
			C-24,241.2-22.9,236.6-24.6,230.9z M-29.7,239.4c-1.7,0.5-3.4-1.2-4.7-5.4c-1.4-4.3-0.9-6.6,0.7-7.1c1.8-0.5,3.3,1.4,4.6,5.4
			C-27.7,236.5-28,238.9-29.7,239.4z"/>
		<path class="st0" d="M-7.4,228.1c-0.8-5.2-3.6-9.5-8.8-8.7c-5,0.8-6.7,5.5-5.8,11c0.9,5.4,3.8,9.5,8.8,8.7
			C-8.2,238.4-6.5,234-7.4,228.1z M-13.6,235.8c-1.8,0.3-3.2-1.7-3.8-6c-0.7-4.4,0.1-6.7,1.7-6.9c1.8-0.3,3.1,1.8,3.8,6
			C-11.2,233.2-11.8,235.5-13.6,235.8z"/>
		<polygon class="st0" points="5.5,218 1.7,218.1 -3.4,220.6 -2.6,224 1.1,222.1 1.2,222.1 1.6,237.4 6.1,237.3 		"/>
		<path class="st0" d="M20.8,218.3c-5.1-0.4-7.8,3.8-8.3,9.4c-0.4,5.5,1.4,10.1,6.5,10.5c5,0.4,7.8-3.5,8.3-9.5
			C27.7,223.4,26,218.7,20.8,218.3z M22.7,228.4c-0.4,4.4-1.5,6.5-3.3,6.4c-1.8-0.1-2.7-2.3-2.3-6.7c0.3-4.5,1.7-6.5,3.3-6.4
			C22.3,221.8,23,224.1,22.7,228.4z"/>
		<polygon class="st0" points="38,220.8 32.5,222.2 32.6,225.7 36.6,224.6 36.7,224.6 34,239.7 38.3,240.5 41.8,221.4 		"/>
		<polygon class="st0" points="54.3,244.2 59.3,225.5 55.6,224.6 50,225.6 49.8,229 53.9,228.3 54,228.3 50,243.1 		"/>
		<path class="st0" d="M73.4,229.6c-4.8-1.6-8.5,1.8-10.4,7.1c-1.8,5.2-1.2,10.1,3.6,11.8c4.7,1.6,8.4-1.5,10.4-7.1
			C78.8,236.3,78.4,231.3,73.4,229.6z M72.7,239.9c-1.5,4.2-3.1,5.9-4.8,5.4c-1.7-0.6-2-2.9-0.5-7.1c1.5-4.3,3.2-5.9,4.8-5.3
			C74,233.4,74.1,235.8,72.7,239.9z"/>
		<path class="st0" d="M82,254.2c4.6,1.9,8.5-1,10.8-6.5c2-4.9,1.9-9.9-2.9-11.9c-4.7-1.9-8.6,1.3-10.8,6.5
			C77,247.3,77.3,252.3,82,254.2z M83.4,243.9c1.7-4.2,3.6-5.7,5.1-5.1c1.7,0.7,1.7,3.1,0,7.1c-1.7,4.1-3.4,5.7-5.1,5.1
			C81.8,250.4,81.6,248,83.4,243.9z"/>
		<polygon class="st0" points="101.4,261.2 107.9,242.9 104.3,241.7 98.6,242.2 98.2,245.7 102.3,245.2 102.4,245.3 97.2,259.7 		
			"/>
		<path class="st0" d="M120.5,246.3c-4.9-1.3-8.4,2.4-9.8,7.8c-1.4,5.3-0.4,10.2,4.5,11.5c4.8,1.3,8.3-2.1,9.8-7.9
			C126.4,252.6,125.6,247.6,120.5,246.3z M120.6,256.6c-1.1,4.3-2.7,6.1-4.4,5.7c-1.7-0.5-2.2-2.8-1-7c1.1-4.3,2.8-6.1,4.4-5.7
			C121.4,250.1,121.7,252.5,120.6,256.6z"/>
		<polygon class="st0" points="135.5,249.9 130,251.4 130.1,254.9 134.1,253.8 134.2,253.8 131.6,268.9 135.9,269.6 139.3,250.5 		
			"/>
		<polygon class="st0" points="151.4,251.9 146.1,253.9 146.6,257.3 150.4,255.8 150.5,255.8 149.4,271.1 153.9,271.4 155.2,252.1 
					"/>
		<path class="st0" d="M168.9,271.7c5-0.2,7.2-4.5,6.9-10.4c-0.3-5.3-2.5-9.8-7.8-9.5c-5.1,0.2-7.3,4.8-7,10.4
			C161.3,267.6,163.8,272,168.9,271.7z M168.1,255.2c1.8-0.1,2.9,2.1,3.1,6.4c0.2,4.4-0.6,6.6-2.4,6.7c-1.8,0.1-3-2-3.2-6.4
			C165.4,257.4,166.4,255.2,168.1,255.2z"/>
		<polygon class="st0" points="183,250.4 178.4,253.7 179.8,256.9 183.1,254.5 183.2,254.4 186,269.5 190.4,268.7 186.8,249.7 		"/>
		<path class="st0" d="M205.4,264.8c4.7-1.7,5.6-6.3,3.6-12c-1.8-5-5.3-8.6-10.3-6.9c-4.8,1.7-5.5,6.6-3.6,11.9
			C197,263,200.6,266.5,205.4,264.8z M199.8,249.2c1.7-0.6,3.4,1.2,4.8,5.2c1.5,4.1,1.3,6.5-0.3,7.1c-1.7,0.6-3.4-1-4.9-5.2
			C197.9,252.1,198.2,249.8,199.8,249.2z"/>
		<polygon class="st0" points="-35.1,253.8 -39.4,257.6 -37.7,260.6 -34.6,257.8 -34.5,257.8 -30,272.4 -25.7,271.2 -31.5,252.7 		
			"/>
		<path class="st0" d="M-16.2,249.1c-5,0.8-6.7,5.5-5.8,11c0.9,5.4,3.8,9.5,8.8,8.7c4.9-0.8,6.7-5.2,5.8-11.1
			C-8.2,252.6-11,248.3-16.2,249.1z M-13.6,265.5c-1.8,0.3-3.2-1.7-3.8-6c-0.7-4.4,0.1-6.7,1.7-6.9c1.8-0.3,3.1,1.8,3.8,6
			C-11.2,262.9-11.8,265.2-13.6,265.5z"/>
		<polygon class="st0" points="-3.4,250.4 -2.6,253.7 1.1,251.9 1.2,251.9 1.6,267.2 6.1,267.1 5.5,247.7 1.7,247.8 		"/>
		<path class="st0" d="M20.8,248c-5.1-0.4-7.8,3.8-8.3,9.4c-0.4,5.5,1.4,10.1,6.5,10.5c5,0.4,7.8-3.5,8.3-9.5
			C27.7,253.2,26,248.4,20.8,248z M22.7,258.1c-0.4,4.4-1.5,6.5-3.3,6.4c-1.8-0.1-2.7-2.3-2.3-6.7c0.3-4.5,1.7-6.5,3.3-6.4
			C22.3,251.5,23,253.9,22.7,258.1z"/>
		<polygon class="st0" points="38.3,270.2 41.8,251.2 38,250.5 32.5,252 32.6,255.4 36.6,254.3 36.7,254.4 34,269.4 		"/>
		<path class="st0" d="M46.5,262c-1.4,5.3-0.4,10.2,4.5,11.5c4.8,1.3,8.3-2.1,9.8-7.9c1.4-5.1,0.6-10.1-4.5-11.4
			C51.5,252.9,48,256.6,46.5,262z M51,263.1c1.1-4.3,2.8-6.1,4.4-5.7c1.8,0.5,2.1,2.9,1,7c-1.1,4.3-2.7,6.1-4.4,5.7
			C50.3,269.7,49.8,267.4,51,263.1z"/>
		<path class="st0" d="M66.6,278.1c4.7,1.6,8.4-1.5,10.4-7.1c1.8-5,1.3-10-3.6-11.7c-4.8-1.6-8.5,1.8-10.4,7.1
			C61.2,271.6,61.9,276.5,66.6,278.1z M67.4,267.9c1.5-4.3,3.2-5.9,4.8-5.3c1.7,0.6,1.9,3,0.5,7.1c-1.5,4.2-3.1,5.9-4.8,5.4
			C66.2,274.4,65.9,272,67.4,267.9z"/>
		<path class="st0" d="M82,283.9c4.6,1.9,8.5-1,10.8-6.5c2-4.9,1.9-9.9-2.9-11.9c-4.7-1.9-8.6,1.3-10.8,6.5
			C77,277,77.3,282,82,283.9z M83.4,273.7c1.7-4.2,3.6-5.7,5.1-5.1c1.7,0.7,1.7,3.1,0,7.1c-1.7,4.1-3.4,5.7-5.1,5.1
			C81.8,280.1,81.6,277.8,83.4,273.7z"/>
		<path class="st0" d="M98.2,290.1c4.7,1.6,8.4-1.4,10.4-7.1c1.8-5,1.4-10-3.6-11.7c-4.8-1.7-8.6,1.7-10.4,7
			C92.8,283.5,93.4,288.5,98.2,290.1z M99,279.9c1.5-4.2,3.3-5.9,4.9-5.3c1.7,0.6,1.9,3,0.4,7.1c-1.5,4.2-3.1,5.9-4.8,5.3
			C97.8,286.4,97.5,284,99,279.9z"/>
		<polygon class="st0" points="118.4,295.8 123.5,277.1 119.8,276.2 114.1,277.2 114,280.6 118.1,279.9 118.1,279.9 114.1,294.7 		
			"/>
		<polygon class="st0" points="135.9,299.3 139.3,280.3 135.5,279.6 130,281.1 130.1,284.6 134.1,283.5 134.2,283.5 131.6,298.6 		
			"/>
		<polygon class="st0" points="153.9,301.1 155.2,281.9 151.4,281.6 146.1,283.6 146.6,287.1 150.4,285.6 150.5,285.6 149.4,300.8 
					"/>
		<path class="st0" d="M168.9,301.4c5-0.2,7.2-4.5,6.9-10.4c-0.3-5.3-2.5-9.8-7.8-9.5c-5.1,0.2-7.3,4.8-7,10.4
			C161.3,297.3,163.8,301.7,168.9,301.4z M168.1,284.9c1.8-0.1,2.9,2.1,3.1,6.4c0.2,4.4-0.6,6.6-2.4,6.7c-1.8,0.1-3-2-3.2-6.4
			C165.4,287.1,166.4,285,168.1,284.9z"/>
		<polygon class="st0" points="183,280.1 178.4,283.4 179.8,286.6 183.1,284.2 183.2,284.2 186,299.2 190.4,298.4 186.8,279.4 		"/>
		<path class="st0" d="M198.7,275.7c-4.8,1.7-5.5,6.6-3.6,11.9c1.9,5.1,5.5,8.6,10.3,7c4.7-1.7,5.6-6.3,3.6-12
			C207.2,277.6,203.7,274,198.7,275.7z M204.3,291.3c-1.7,0.6-3.4-1-4.9-5.2c-1.6-4.2-1.2-6.6,0.4-7.1c1.7-0.6,3.4,1.2,4.8,5.2
			C206.2,288.3,206,290.7,204.3,291.3z"/>
	</g>
	<g>
	</g>
	<g>
	</g>
	<g>
	</g>
	<g>
	</g>
	<g>
	</g>
	<g>
	</g>
	<g>
	</g>
	<g>
	</g>
	<g>
	</g>
	<g>
	</g>
	<g>
	</g>
	<g>
	</g>
	<g>
	</g>
	<g>
	</g>
	<g>
	</g>
</g>
</svg>
