<?xml version="1.0" encoding="utf-8"?>
<!-- Generator: Adobe Illustrator 19.0.0, SVG Export Plug-In . SVG Version: 6.00 Build 0)  -->
<svg version="1.1" id="Capa_1" xmlns="http://www.w3.org/2000/svg" xmlns:xlink="http://www.w3.org/1999/xlink" x="0px" y="0px"
	 viewBox="-223 -156 512 512" style="enable-background:new -223 -156 512 512;" xml:space="preserve">
<style type="text/css">
	.st0{fill:#38D9F5;}
	.st1{fill:#FFFFFF;}
	.st2{fill:#37E2F4;}
</style>
<g>
	<path class="st0" d="M33,132.8c35.3,0,118.4-42.5,118.4-144.4C151.4-91.4,140.6-156,33-156C-74.6-156-85.4-91.4-85.4-11.6
		C-85.4,90.2-2.3,132.8,33,132.8z M-67.7-35.7c8.3-16.1,26.3-34.7,65-33.8c0,0,23.1,55.9,136.2,30.8c0.5,8.9,0.6,18,0.6,27.1
		c0,49.8-22,80.6-40.4,97.8c-23.2,21.6-49,29.4-60.7,29.4s-37.5-7.8-60.7-29.4c-18.4-17.1-40.4-48-40.4-97.8
		C-68.1-19.7-68-27.8-67.7-35.7z"/>
	<path class="st0" d="M252.8,280.8c-6-37.6-18.5-86-43.4-103.2c-17-11.8-76.5-43.5-101.9-57.1l-0.4-0.2c-2.9-1.6-6.4-1.2-9,0.8
		c-13.3,10.4-27.9,17.5-43.3,20.9c-2.6,0.6-4.8,2.4-5.9,4.9L33,185.3L17.2,147c-1-2.5-3.2-4.4-5.9-4.9c-15.4-3.4-30-10.5-43.3-20.9
		c-2.6-2-6.1-2.3-9-0.8c-25.1,13.4-85.3,45.8-102.2,57.3c-28.7,19.4-41.3,89.4-43.5,103.2c-0.2,1.4-0.1,2.8,0.4,4.1
		c1,2.9,27.4,71.1,219.4,71.1s218.4-68.2,219.4-71.1C252.9,283.6,253,282.2,252.8,280.8z"/>
	<path class="st0" d="M10.2,28.5C23.5,21.6,28.1-1.6,28.3-2.6c0,0,0.4-1.6,4.6-1.6l0.3,0c3.3,0,4.3,1.1,4.4,1.8
		c0.2,1,5,24.1,18.1,30.9c8.8,4.6,19.4,5.6,26.7,5.6c9.4,0,18.7-1.6,23.4-4.1c10-5.3,10.9-9.1,14.5-31.1c0.1-0.8,0.4-1.5,0.7-2.1
		c0.1-0.2,0.3-0.4,0.5-0.6c1-1,2.4-2.6,2.3-6.2c0-0.5,0-1.2,0-2.1l0-0.2c0-1.5,0.1-3.3,0-4.2c-0.3-5.4-5-7.6-7.4-8
		c-9-1.8-19.1-2.8-30.1-2.8c-4.7,0-9.6,0.2-14.5,0.5L71-26.7c-10,0.7-15.5,1.1-22.2,4.1c-1.4,0.6-2.9,1.3-4.5,2.2
		c-2.3,1.2-5.7,2.5-7.5,2.9c-3,0.7-4.7,0.7-7.7,0c-1.7-0.4-5.2-1.7-7.5-2.9c-1.6-0.8-3.1-1.6-4.5-2.2C10.5-25.6,5-26-5-26.7
		l-0.8-0.1c-4.9-0.3-9.8-0.5-14.5-0.5c-11,0-21.1,0.9-30,2.8c-2.5,0.4-7.2,2.6-7.5,8c-0.1,1,0,2.8,0,4.2l0,0.6c0,0.7,0,1.3,0,1.7
		c-0.1,3.6,1.4,5.2,2.3,6.2c0.2,0.2,0.4,0.4,0.5,0.6c0.3,0.5,0.6,1.2,0.7,2.1c3.6,22,4.5,25.8,14.5,31.1c4.6,2.4,14,4.1,23.4,4.1
		C-9.1,34.1,1.4,33.1,10.2,28.5z M48.5-10.2c0.2-0.6,3-5.8,27.7-7.2c4.3-0.2,7.9-0.4,11-0.4c13.7,0,18,2.3,20.5,6.1
		c1.5,2.2,2.5,7.2,2.5,10.2c0,6.9-1.3,19.1-10.6,23.6c-4.4,2.1-11,3.4-17.8,3.4c-12.8,0-23-4.3-27.2-11.4
		C45.4-1.2,48.5-10.1,48.5-10.2z M-44.1-1.4c0-3,1-8,2.5-10.2c2.5-3.8,6.7-6.1,20.5-6.1c3.1,0,6.7,0.1,11,0.4
		C13.9-16,17.2-11,17.5-10c0,0.1,2.9,9.1-6.1,24.2C7.2,21.3-3,25.6-15.8,25.6c-6.7,0-13.4-1.3-17.8-3.4
		C-42.8,17.7-44.2,5.5-44.1-1.4z"/>
</g>
<path class="st1" d="M-138.5,263.8c-6.5-2.1-4.7-1.3,2,2.8c-1.4-3.6,0.7-3.2,6,0.2c-1-2.6,1.2-2.1,5.2,0.4c1.2-0.4,4.7,1,7.6,2.3
	c2.3,0.8,4,1.5,4,1.5l-2,6c0,0-3.8-1.6-8.2-3.1c-1.9-1.2-4-1.5-4.6-0.5c-3.4-2.2-5.5-3.1-4.6-1.6c-5.2-2.4-7.4-2.3-6.6,1
	c-2.7-4.7-2.3-6,2.4-3.9c-6.4-2.8-9.6-1.8-11.6,3c-2.7-5.1-4.2-6.3-5.8-4.2c-0.5-2.2-1-1.2-1.5,3.3c1.9-5.3,3.8-7.1,7.6-5.2
	c-3.8-1.9-6-0.3-8.7,4.7c0.2-4.7-0.2-6.1-2-4.4c2.2-1.6,5.2-5.2,9.9-5.4c-4.7,0.2-4.3,0.2-1.8,2.6c1.3-5,3-5.9,6.6-3.2
	c0-4.9,1.9-6.1,7.7-4.9c-1.6-3.3,1.3-4.4,9.3-5.1c-2.3-1.7,0.5-2.9,6.8-4.2c1.3-1.9,5.5-5.9,6.3-3.6c-0.8-2.2,0.8,6.2,1.7,6.2
	c-0.9,0-2.6,0.7-3.3,1.9c-4.6,0.9-8.1,2.3-7.4,4.9c-5.9-0.4-8.1,0.5-5.8,3.9c-6.6-1.4-8.8-0.4-7,4.2
	C-143.3,261-145,261.7-138.5,263.8z"/>
<path class="st1" d="M-95.8,233.9c-5.9-7.3-8.4-6.6-10.2,2.6c-0.7-7.9-2.3-17.1-2-5.6c0.7-12,1.6-13.5,6-2.2
	c-2.1-11.9-0.2-10.5,7.1-0.9c-4.2-9.6,0.7-5.2,7.4,1.2c-3.7-5.2,1.4-0.3,4.6,3.1c-1.1-1.1,1.8,2.4,2.4,4.2c0.3,1.3,0.7,3,0.7,4.4
	c0,1.8-0.3,3.3-1,4.7c-0.7,1.4-1.5,2.7-2.5,3.8c-1,1.2-2.1,2.3-3.3,3.4c-1.2,1.1-2.3,2.2-3.3,3.4c-1,1.2-1.8,2.4-2.5,3.8
	c-0.7,1.4-1,2.9-1,4.6c0,0.3,0,0.5,0,0.9c0,0.3,0,0.6,0.1,0.9h-6.1c-0.2-1-0.3-2.1-0.3-3.3c0-1.7,0.3-3.2,0.9-4.5
	c0.6-1.3,1.4-2.6,2.3-3.8c0.9-1.2,1.9-2.2,3-3.3c1.1-1,2-2,3-3.1c0.9-1,1.7-2.1,2.3-3.3c0.6-1.1,0.8-2.6,0.9-3.7
	c-0.1-2.4-3-7.5-2.1-5.3C-92.9,231.4-97.1,226.6-95.8,233.9z M-90.8,278.7c0,1.4-0.5,2.6-1.4,3.6c-0.9,1-2.2,1.6-3.9,1.6
	c-1.6,0-2.9-0.5-3.9-1.6c-0.9-1-1.4-2.3-1.4-3.6c0-1.4,0.5-2.6,1.4-3.6c0.9-1,2.2-1.6,3.9-1.6c1.6,0,2.9,0.5,3.9,1.6
	C-91.3,276.1-90.8,277.3-90.8,278.7z"/>
<path class="st1" d="M-50,233.5c-0.9,1.8-2,1.4-3.3-0.5c-0.6,0.2-1.1-1-1.3-2.1c0.2-1.8,0.7-2.9,0.7-1.2c1.8-3.5,2.9-3.9,3.2,0.2
	c2.4-4.1,3.5-3.7,3.8,0.5c1.5-2.5,2-1.4,1.8,0.8c0.2,0.8-0.2,1.9-1.3,1.3C-47.1,234.8-48.3,235.3-50,233.5z M-46.3,288.6
	c1.2-7.3-1-6.5-7.4-1c2.8-6,1.3-7.4-6.1-4.6c6.6-0.1,6.6-4.6-3.1-8.5c9.8-8,9.8-15.5,5-28.8c4.8,1.3,4.8-3.2,3.1-7.4
	c1.7,4.2,9,4.2,8.3-1.2c0.7,5.4,0.7,9.9-1.3,6.5c2.1,15.3,2.1,22.8-2.8,31.7C-45.9,278.4-45.9,282.9-46.3,288.6z"/>
<path class="st1" d="M-11.3,286c-5.3,1.6-6.6,2.5-4,5c-5.6-3.9-7.2-6.1-1.9-3.9c-7.9-1.5-11.5-7.2-4.8-3.4
	c-10.1-7.6-11.4-9.8-3.8-11c-9.3-3.9-9.7-6.7-3.4-16.9c-6.3,4-5.8,1.1-0.7-10c-3.3,5.9-2,3.7,2.7-4c-1.4,4,0.7,2.5,5-1.3
	c0.6,1.7,4.4-2.2,6.9,0.6c1.9-2.8,3.7-3.5,5,1c2-4,3.5-1.2,5.2,1.5c-0.1-2.1-1.7,6.1-1.4,6c-1.4-0.4-2.7-0.8-3.3-1.7
	c-2.3,0.3-3.8,0.1-3.7-1.4c-5.9,1.5-9,2.7-6.6,0.4c-5.7,6.2-6.5,7.7-0.6,3.6c-7,7.8-7.3,10,1.6,7.8c-8.9,6.8-8.6,8.8,2,9.7
	c-9.6,2.7-8.8,4.3,1.8,7.4c-8.5-0.5-7,0.7,2.4,3.5c-6.1-1.3-4-0.1,3.5,0.1c-3.3-0.3-1.5-0.9,3-1.3c-1.5-0.3-0.1-1.3,2.3-1.5
	c-1.5-0.2-1.5,9.6,0.2,6c-2.1,3.8-2.9,5.4-1.4,0.9c-2.9,4.9-3.9,6.4-1.9,1c-2.8,2.5-3.5,4.4-2.4,5.5c-2.1-0.7-2.5-2.2,0.3-4.5
	c-3.6,2.3-4.2,4.2-2.5,5.8C-14.4,289.4-14.9,287.6-11.3,286z"/>
<path class="st1" d="M38.6,274.3c0-8.4-0.5-5.5-2.8,11.1c0.4-11.4-0.9-9.2-5.3,3.1c1-8.6-1.7-2.4-6.4,0.4c1.7-3.8,0.5-1.7-2.2,1.8
	c0.2-2.4-1.1-3.4-4.9-3.6c1.6,0.2,0.4,0.7-2,1.2c-0.4-2.1-1.9-4.3-4.8-4.6c-0.1,0.2-2.9-3.8-5.5-5.1c-0.8-2.4-2.1-4.6-3.9-6.9
	c-0.1-2.9-0.6-5.8-1.8-8.8c1.2-3.3,1.7-6.2,0.6-9c3-2.4,4.3-4.7,2.7-7.5c5-0.9,7.6-3.8,4.3-6c7.9,0.2,11-2.9,5.7-4.6
	c10.2,1.7,12.5,3.3,6.8-2.6c10,7.7,12.4,12.2,7.1,1.4c8.7,14.7,10,16.9,7.6,12C38,256.7,38.5,259.6,38.6,274.3z M19.2,271.2
	c11.7-10.8,11.4-12.8-3.2-15.6c13.5-0.9,12.8-2.4-1.5-10.2c11.1,3.8,8.3,2.3-5.4-2.4c6.6,4.7,3.7,6.2-5.4,7.5c6,2.7,5.3,4.2-1.3,5.9
	c5.6,1.9,5.3,4,0.1,7.2c5.2,1.3,5.5,3.4,1.6,6.9c4.9,0.1,5.7,1.7,2.7,5.4c6.1,0.3,8.9,1.7,7.6,6.8c8.5-5.1,11.3-6.5,6.8,0.9
	c7.6-11.4,8.4-12.9,0.6-3.2C30.6,267,30.9,265,19.2,271.2z"/>
<path class="st1" d="M75.3,223.9c0.2-0.7,12.4-7,7.3-1.2c4.1-3.9,4.3-3.1,0.8,1c3-0.3-0.8,5.4-0.8,8.2c0,2.8,0,6,0,9.5
	c0,1.7,0,3.5,0,5.3c0,1.8,0,3.7-0.1,5.5c0.1,3.7,0.1,7.4-0.9,10.6c1,3.7,1,6.9-0.4,9.7c1.4,5.5,1.1,10.2,0.5,9.4
	c-1,1.2-4.3,6.6-5.5,1.1c-0.9,2.3-1.9,5.1-2.6,6.3c-0.8,1.2-1.4,0.9-1.8-3c-0.8,4.1-1.5,5.1-2.2,4.2c-0.7-0.9-1.5-3.6-1.7-6.1
	c-1.7,3.5-3,4-4,3.8c-2.1-1.7-3.7-4.2-2.5-2.4c-4.4-1.8-7.5-5.9-4.4-0.3c-6.6-9.3-8-11.5-1.7-3.1C47,268.9,46.5,266,58.5,271
	c-12-11.3-11.5-14.2,3.1-21.2c-13,1.9-11.8-0.4,0.7-10.4c-9.4,6.4-7.4,4.9,2.9-2.2c-5.7,5-3.1,4.5,4.6,1.7c-2.4,2.8-0.3,3.1,3.9,2.7
	c-0.6,1.7,0.8,2.3,2.8,2.5c-1.1,0.4-1.1-4.7-1.1-9.8C75.3,229,75.5,223.2,75.3,223.9z M77.2,250.8c-2.8-0.4-4.1-1.1-2.2-2.7
	c-5.3,0.2-7.1-0.1-2.7-2.2c-8.5,2.1-10.3,2.5-2.3-0.2c-10.9,4.2-12.1,5.2-1,3.3c-13,4.6-13.7,6.1-0.4,7.7c-14.1,2-14.3,4-1.6,10.6
	c-12.8-2.2-12.5-0.1-2.3,8.5c-9-5-8.1-3.4-0.2,3.6c-4.3-3.2-1.2-1.9,5.2-0.2c-0.4-1.7,1.3-1.8,3.5-1.5c0.5-0.7,1.5-0.9,2.5-1
	c-0.1-0.1-0.2-1.7,0-4c0.2-2.4,0.7-5.5,1.6-8.5c-0.9-3.4-1.4-6.6-1.4-9.1C75.8,252.6,76.2,250.9,77.2,250.8z"/>
<path class="st1" d="M87.8,261.1c5.1-1.9,5.6-5,3.5-9.9c4.2-0.4,5.6-2.6,5.3-6.8c3.8,0.7,5.8-0.7,6.6-4.3c3.8,1.8,6.7-2.1,7.4-2.1
	c3.9,0,6.2,2.5,8.1,0c2.1,4.1,4.1,7,6.7,2.3c0.4,8.1,1.5,10.2,5.5,4.7c-2.6,10.6-2.2,13.7,4.6,9.6c-6.8,7.8-6.8,8.2,0.4,1.7
	c-7.2,7.5-7.3,7.9,0.4,2.1c-7.7,6.3-14.7,6.3-27.1-1c-1.6,7.3-8.6,7.3-16.9,4.2c8.6,7.3,9.8,10.4,2,14.1c12.1,0.7,15.5,1.7,14.1,7.8
	c8.5-6.1,10.7-6.3,13.7-0.6c0.5-6.6,1.9-7,8.6-3.1c-5.9-4.4-4.8,1.7,0.3,10.1c-6.1-8-8.5-5.6-8.7,2.8c-4-7.5-7.4-3.4-13.4-0.1
	c2.6-6.1,1-5.2-6,1.7c4-7.8,2.8-9.6-6.3-7c5.7-1.8,3-7.7-6.3-7.5c6-4,4.8-6.2-2.8-8.9C93.3,268.7,92.9,265.9,87.8,261.1z M122,248.8
	c-0.9,6.8-1.7,4.1-3.9-6.4c-1.2,6.3-3.5,5.3-8.7-0.9c0.4,6.2-1,6.5-5.3,1.8c1.7,6,0.6,6.8-4.2,2.9c3,6,2.3,7.2-3.3,3.8
	c4.5,6.1,4.2,7.5-2.4,4.5c6.4,4.4,11.5,4.4,10.9-3.8C116,258.8,121.1,258.8,122,248.8z"/>
<path class="st1" d="M164.9,233.9c-4.5-6-7.1-3.5-10.2,2.6c0.1-4.6-1-16-2-5.6c1.1-5.5,2-9.1,2.9-9.7c0.9-0.7,1.9,1.5,3.1,7.5
	c0-12.6,1.6-12,7.1-0.9c-2.2-11.1,1.9-6,7.4,1.2c-2.5-6,2.2,0,4.6,3.1c-0.3-0.8,2,2.6,2.4,4.2c0.4,1.5,0.7,3,0.7,4.4
	c0,1.8-0.3,3.3-1,4.7c-0.7,1.4-1.5,2.7-2.5,3.8c-1,1.2-2.1,2.3-3.3,3.4c-1.2,1.1-2.3,2.2-3.3,3.4c-1,1.2-1.8,2.4-2.5,3.8
	c-0.7,1.4-1,2.9-1,4.6c0,0.3,0,0.5,0,0.9c0,0.3,0,0.6,0.1,0.9c0,0-6.1,0-5.9,0c-0.4-1-0.5-2.1-0.4-3.3c-0.2-1.6,0.2-3.1,0.8-4.5
	c0.6-1.3,1.4-2.6,2.3-3.8c0.9-1.2,1.9-2.2,3-3.3c1-1,2-2,3-3.1c0.9-1,1.7-2.1,2.3-3.3c0.6-1.1,0.9-2.4,0.9-3.7c0-2.2-1.6-6-2.1-5.3
	C168.9,232.7,165.5,227.9,164.9,233.9z M169.8,278.7c0,1.4-0.5,2.6-1.4,3.6c-0.9,1-2.2,1.6-3.9,1.6c-1.6,0-2.9-0.5-3.8-1.5
	c-1.1-1.1-1.5-2.3-1-3.6c-0.5-1.5-0.1-2.7,1.2-3.7c0.6-1.1,1.9-1.6,3.5-1.6c1.6,0,2.9,0.5,3.9,1.6
	C169.4,276.1,169.8,277.3,169.8,278.7z"/>
<path class="st1" d="M187.2,248.4l2-6c0,0,3.8,1.6,5.7,3.2c5.9,1.5,12.3,2.4,4.1,2.3c17.3,2.2,20,3.4,0.9,6.3
	c21.8-1.8,26.7-2.3,12.1,1.8c18.1-3.3,16.7-2.2-5,9.1c21.7-11.2,24.1-11.8,14.3,1c9.5-10.4,6.7-7.5-9,9c15.8-16.5,16.2-17.3,1.6-2.6
	c10.5-12.4,6-9.4-7.9,0.6c10.2-8.6,7.4-7.4-2.7-1.3c2.2-2.3-2.7,0.3-5.4,1.5c-4.9,2-8.6,3.6-8.6,3.6l-2-6c0,0,1.7-0.7,4.4-1.8
	c2.6-1.1,6.1-2.5,6.5-2.5c6.7-2.8,12.8-5.4,4.3-1.5c16.3-7.2,18-7.9,0.3,0.3c17.7-8.2,16.4-9-1.6-5.8c10.6-4.3,4.5-4.5-5.2-5.2
	c1.8-1.9-1.7-3.3-4.5-4.4C188.9,249.1,187.2,248.4,187.2,248.4z"/>
<circle class="st2" cx="-16" cy="3" r="13"/>
<circle class="st2" cx="78" cy="2" r="13"/>
</svg>
