<?xml version="1.0" encoding="iso-8859-1"?>
<!-- Generator: Adobe Illustrator 19.0.0, SVG Export Plug-In . SVG Version: 6.00 Build 0)  -->
<svg xmlns="http://www.w3.org/2000/svg" xmlns:xlink="http://www.w3.org/1999/xlink" version="1.1" id="Capa_1" x="0px" y="0px" viewBox="0 0 105.554 105.554" style="enable-background:new 0 0 105.554 105.554;" xml:space="preserve" width="512px" height="512px">
<g id="_x0A_paper-a">
	<g>
		<path style="fill-rule:evenodd;clip-rule:evenodd;" d="M92.615,71.467c-0.07-4.656-0.405-9.307-0.626-13.961    c-0.15-3.174-0.316-6.348-0.455-9.521c-0.037-0.845-0.101-1.708,0.016-2.539c0.529-3.799,0.302-7.619,0.42-11.428    c0.092-2.963,0.271-5.924,0.384-8.885c0.039-1.057,0.015-2.116-0.023-3.172c-0.033-0.951-0.165-1.9-0.185-2.849    c-0.094-4.241-0.161-8.48-0.242-12.721c-0.013-0.634,0.03-1.285-0.087-1.903c-0.331-1.759-1.027-3.23-3.055-3.588    c-0.725-0.129-1.414-0.479-2.14-0.602c-1.876-0.322-3.75-0.668-5.492,0.618c-0.457,0.338-1.195,0.405-1.805,0.403    c-5.829-0.014-11.662,0.018-17.487-0.151c-2.216-0.065-4.42-0.089-6.635-0.046c-3.391,0.07-6.785,0.02-10.178,0.02v0.094    c-3.922,0-7.846,0-11.767,0.002c-0.742,0-1.488-0.031-2.225,0.035c-0.399,0.033-0.923,0.127-1.152,0.395    c-0.954,1.127-1.997,2.239-2.652,3.538c-0.439,0.872-0.967,1.598-1.574,2.32c-3.203,3.814-6.387,7.637-8.505,12.212    c-0.349,0.756-0.888,1.435-1.395,2.106c-0.889,1.182-1.821,2.33-2.735,3.492c-0.032,1.587-0.089,3.174-0.091,4.761    c-0.002,1.272,0.051,2.544,0.109,3.815c0.029,0.635,0,1.312,0.218,1.887c0.549,1.439,0.479,2.913,0.458,4.396    c-0.056,4.341-0.325,8.676-0.483,13.011c-0.264,7.2-0.106,14.416-0.136,21.624c-0.021,4.877-0.127,9.752-0.07,14.628    c0.044,3.803-0.397,7.629,0.379,11.402c0.15,0.734-0.298,1.197-0.488,1.779c-0.375,1.154,0.022,2.154,1.106,2.579    c0.481,0.189,1.016,0.313,1.528,0.331c0.629,0.021,1.271-0.059,1.892-0.169c4.497-0.81,9.024-1.147,13.595-1.081    c5.512,0.079,11.026,0.041,16.538,0.041c0.954,0,1.908-0.041,2.859-0.112c4.115-0.306,8.224-0.702,12.343-0.927    c6.253-0.342,12.481,0.492,18.728,0.541c0.735,0.008,1.464,0.222,2.201,0.276c1.688,0.124,3.379,0.236,5.069,0.3    c1.065,0.042,1.958-0.52,2.262-1.459c0.705-2.186,1.789-4.216,1.738-6.688C92.607,88.006,92.734,79.735,92.615,71.467z     M27.718,13.248c0.139-0.106,0.457-0.202,0.536-0.131c1.389,1.254,2.657,2.607,3.21,4.463c0.058,0.191,0.009,0.412,0.009,0.65    c-0.058,0.162-0.079,0.407-0.213,0.525c-0.075,0.065-0.4-0.018-0.502-0.135c-1.163-1.33-2.31-2.674-3.445-4.029    C27.029,14.252,27.22,13.626,27.718,13.248z M25.04,17.616c0.013,0.026,0.015,0.059,0.02,0.09    c0.036,0.032,0.071,0.064,0.106,0.095l0.136,0.137c0.159,0.059,0.261,0.174,0.326,0.326l0.169,0.17    c0.037,0.082,0.066,0.17,0.113,0.246c0.029,0.045,0.087,0.074,0.133,0.11c-0.111-0.089-0.223-0.177-0.335-0.265    c-0.02-0.095-0.047-0.182-0.081-0.262c-0.109-0.108-0.217-0.218-0.326-0.326c-0.065-0.024-0.136-0.043-0.224-0.045    c-0.007-0.062-0.01-0.125-0.019-0.187c-0.069-0.061-0.138-0.124-0.208-0.186C24.918,17.552,25.015,17.567,25.04,17.616z     M21.421,21.292c0.689-0.869,1.249-0.759,1.77,0.336c0.251,0.532,0.01,1.093-0.561,1.16c-0.5,0.058-1.016,0.038-1.518-0.008    c-0.108-0.009-0.193-0.28-0.337-0.505C20.974,21.966,21.171,21.608,21.421,21.292z M86.269,96.738    c-0.151,0.475-0.473,0.744-0.913,0.705c-2.868-0.247-5.642,0.9-8.514,0.562c-0.839-0.098-1.688-0.123-2.53-0.192    c-1.054-0.086-2.106-0.249-3.161-0.262c-2.651-0.033-5.326-0.215-7.951,0.053c-4.431,0.453-8.881,0.431-13.313,0.851    c-3.784,0.358-7.621,0.158-11.435,0.183c-0.509,0.001-1.075-0.022-1.516-0.238c-0.593-0.293-0.114-0.973-0.297-1.441    c-0.11-0.287-0.205-0.626-0.417-0.814c-0.2-0.177-0.658-0.346-0.81-0.24c-0.599,0.418-1.269,0.853-1.646,1.449    c-1.134,1.778-2.754,2.151-4.673,1.912c-0.509-0.066-0.731-0.358-0.589-0.858c0.172-0.601,0.447-1.196,0.476-1.804    c0.018-0.324-0.319-0.834-0.622-0.961c-0.296-0.124-0.891,0.004-1.113,0.243c-1.005,1.085-1.91,2.265-2.88,3.383    c-0.636,0.733-1.481,0.726-2.35,0.551c-0.411-0.083-0.696-0.621-0.489-0.967c0.327-0.544,0.641-1.102,1.025-1.604    c0.967-1.261,1.975-2.493,2.962-3.741c0.329-0.412,0.679-0.813,0.968-1.256c0.298-0.456,0.471-0.95,0.04-1.45    c-0.38-0.445-0.896-0.656-1.417-0.473c-1.054,0.374-2.074,0.847-3.107,1.282c0.003,0.039,0,0.076,0.006,0.116    c-0.07,0.028-0.142,0.053-0.207,0.09c-0.038,0.054-0.076,0.108-0.115,0.162c0.028-0.051,0.043-0.119,0.085-0.148    c0.009-0.007,0.021-0.008,0.029-0.014c0.041-0.058,0.082-0.115,0.123-0.173l0.078-0.033c-0.073-0.867,0.523-1.502,0.824-2.24    c0.28-0.682,0.659-1.342,0.815-2.048c0.067-0.312-0.238-0.79-0.502-1.067c-0.334-0.35-0.84-0.242-1.147,0.059    c-0.677,0.667-1.277,1.413-1.929,2.108c-0.116,0.126-0.314,0.177-0.476,0.264c-0.081-0.192-0.2-0.376-0.236-0.576    c-0.198-1.107,0.151-2.058,0.75-2.996c1.196-1.875,2.323-3.795,3.462-5.705c0.271-0.453,0.498-0.936,0.711-1.422    c0.194-0.443-0.04-1.119-0.462-1.399c-0.487-0.325-1.018-0.337-1.488-0.02c-0.435,0.292-0.844,0.646-1.192,1.036    c-0.423,0.473-0.767,1.014-1.154,1.518c-0.06,0.076-0.226,0.172-0.266,0.146c-0.146-0.097-0.35-0.231-0.367-0.371    c-0.069-0.523-0.102-1.057-0.095-1.583c0.09-8.064-0.059-16.139,0.358-24.184c0.362-7.002,0.262-13.989,0.291-20.984    c0.003-0.95,0.031-1.938-0.199-2.842c-0.416-1.631-0.612-2.167,1.835-1.998c1.374,0.094,2.737,0.013,4.097-0.359    c0.905-0.248,1.905-0.342,2.839-0.255c2.621,0.241,5.002-0.764,7.474-1.289c1.03-0.218,1.624-1.04,1.79-2.024    c0.138-0.824,0.155-1.703,0.025-2.529c-0.602-3.864-0.946-7.777-2.055-11.553c-0.177-0.606-0.292-1.236-0.357-1.863    c-0.123-1.171,0.187-1.52,1.314-1.677c1.047-0.145,2.085-0.407,3.136-0.459c1.367-0.073,2.777-0.175,4.102,0.085    c1.159,0.228,2.295,0.338,3.458,0.344c2.758,0.014,5.517,0.016,8.275,0.042c2.541,0.023,5.093-0.12,7.598,0.488    c0.101,0.025,0.211,0.019,0.317,0.025c4.867,0.232,9.738,0.439,14.605,0.712c2.425,0.135,4.844,0.378,7.264,0.603    c0.487,0.046,0.765,0.477,0.682,0.913c-0.578,3.077,0.333,6.105,0.265,9.168c-0.064,2.969-0.116,5.955,0.128,8.907    c0.376,4.559,0.227,9.114,0.265,13.669c0.115,14.322,0.172,28.644,0.276,42.967c0.01,1.479,0.133,2.963,0.291,4.433    C87.652,90.765,87.225,93.777,86.269,96.738z M75.981,83.609c-0.202-0.705-0.584-1.358-0.861-2.043    c-0.361-0.881-0.645-1.797-1.056-2.65c-0.577-1.2-0.45-2.465-0.576-3.723c-0.129-1.301-1.881-1.684-2.061-3.091    c-0.067-0.511-0.335-0.999-0.538-1.489c-0.774-1.857-1.547-3.715-2.341-5.562c-0.623-1.445-1.925-1.896-3.319-2.076    c-0.791-0.101-1.501,0.323-1.789,1.07c-0.341,0.878-0.552,1.814-0.739,2.742c-0.669,3.317-1.309,6.642-1.947,9.967    c-0.132,0.687-0.535,1.136-1.136,1.429c-0.856,0.414-1.766,0.737-2.564,1.24c-0.73,0.463-1.292,1.198-1.151,2.123    c0.152,0.995,0.958,1.234,1.873,1.375c1.21,0.186,1.38,0.521,1.061,1.693c-0.308,1.122-0.724,2.221-0.965,3.354    c-0.195,0.922-0.288,1.883-0.273,2.825c0.017,1.054,1.154,1.615,2.067,1.111c0.644-0.352,1.276-0.721,1.934-1.037    c1.045-0.502,1.578-1.287,1.74-2.456c0.294-2.092,0.712-4.168,1.07-6.251c0.119-0.688,0.453-1.116,1.165-1.322    c1.007-0.29,1.985-0.688,2.974-1.041c0.915,0.842,0.993,2.045,1.336,3.127c0.449,1.41,0.819,2.844,1.251,4.26    c0.186,0.604,0.403,1.204,0.672,1.773c0.274,0.581,1.102,0.854,1.634,0.533c0.725-0.432,1.456-0.877,2.104-1.413    c0.693-0.571,0.956-1.371,0.785-2.276C76.222,85.07,76.184,84.314,75.981,83.609z M65.634,76.114    c-0.149-0.015-0.409-0.241-0.399-0.354c0.096-1.227,0.222-2.455,0.382-3.678c0.02-0.152,0.279-0.273,0.46-0.438    c0.023-0.002,0.17-0.027,0.175-0.01c0.326,1.078,0.679,2.153,0.94,3.247C67.305,75.358,66.248,76.172,65.634,76.114z M59.3,53.587    c1.76,0.662,3.543,0.459,5.932,0.551c1.75,0.218,4.022-0.34,6.309-0.735c0.712-0.126,0.989-1.318,0.426-1.809    c-0.306-0.268-0.701-0.55-1.079-0.588c-0.835-0.087-1.686-0.018-2.529-0.021c-3.05-0.013-6.107,0.433-9.138-0.476    c-0.958-0.285-2.099-0.041-3.143,0.069c-0.729,0.076-1.45,0.302-2.154,0.528c-1.455,0.47-2.891,0.548-4.354,0.027    c-0.495-0.174-1.053-0.163-1.548-0.336c-1.654-0.574-3.382-0.58-5.026-0.283c-3.323,0.596-6.607,1.408-9.892,2.191    c-0.469,0.112-0.884,0.519-1.28,0.845c-0.305,0.253-0.118,0.982,0.238,1.059c0.305,0.066,0.612,0.136,0.921,0.161    c2.572,0.209,5.034-0.413,7.509-0.976c2.608-0.593,5.257-0.718,7.861-0.073c2.421,0.599,4.779,0.69,7.186-0.04    C56.762,53.308,58.106,53.136,59.3,53.587z M34.271,44.075c0.44,0.258,0.981,0.358,1.491,0.476    c0.923,0.215,1.89,0.289,2.773,0.605c2.743,0.987,5.384,0.909,7.993-0.441c0.649-0.338,1.362-0.62,2.076-0.752    c1.349-0.252,2.72-0.475,4.087-0.525c1.687-0.067,3.413-0.13,5.064,0.146c1.817,0.304,3.546,0.322,5.342-0.07    c1.772-0.388,3.497-0.396,5.213,0.621c1.563,0.926,3.29,0.666,4.77-0.436c0.268-0.199,0.426-0.762,0.369-1.117    c-0.056-0.354-0.418-0.682-0.699-0.967c-0.129-0.129-0.411-0.211-0.59-0.17c-1.608,0.37-3.106,0.11-4.585-0.595    c-0.447-0.213-1.045-0.173-1.569-0.143c-1.479,0.08-2.955,0.226-4.434,0.319c-0.836,0.053-1.7,0.194-2.507,0.046    c-3.388-0.629-6.753-0.43-10.116,0.111c-1.037,0.165-2.131,0.307-3.062,0.746c-2.241,1.061-4.479,1.078-6.809,0.453    c-0.809-0.216-1.662-0.271-2.394-0.386c-0.854,0.101-1.609,0.107-2.31,0.302c-0.331,0.093-0.762,0.537-0.778,0.842    C33.577,43.447,33.953,43.889,34.271,44.075z M83.776,71.359c-0.574-0.146-1.358,0.353-1.72-0.35    c-0.273-0.528-0.296-1.199-0.368-1.815c-0.074-0.626,0.009-1.277-0.126-1.886c-0.133-0.604-0.392-1.2-0.704-1.738    c-0.415-0.721-1.631-0.82-2.223-0.204c-0.283,0.294-0.542,0.656-0.678,1.036c-0.434,1.216-0.451,2.452-0.191,3.731    c0.353,1.732,0.371,3.396-1.769,4.1c-0.183,0.059-0.318,0.269-0.469,0.414c-0.933,0.895-0.814,2.3,0.331,2.942    c0.627,0.35,1.387,0.455,2.057,0.738c0.25,0.105,0.515,0.369,0.605,0.622c0.243,0.683,0.298,1.446,0.608,2.091    c0.391,0.801,1.108,1.25,2.108,1.157c1.019-0.058,1.827-0.726,1.876-1.723c0.049-0.944,0.009-1.898-0.082-2.84    c-0.083-0.868,0.287-1.374,1.022-1.748c0.46-0.237,0.927-0.513,1.291-0.873c0.829-0.819,0.773-2.319-0.15-3.085    C84.822,71.619,84.27,71.486,83.776,71.359z M36.659,34.099c2.205,0.859,4.459,1.376,6.805,0.608    c1.035-0.338,2.082-0.547,3.107-0.14c1.943,0.771,3.961,0.596,5.966,0.587c1.589-0.005,3.178-0.104,4.767-0.12    c1.904-0.021,3.782-0.029,5.67-0.512c1.308-0.337,2.735-0.27,4.11-0.266c1.266,0.002,2.535,0.158,4.325,0.283    c0.217-0.023,0.973-0.027,1.67-0.226c0.326-0.091,0.774-0.581,0.75-0.856c-0.025-0.311-0.473-0.741-0.817-0.838    c-0.705-0.194-1.477-0.129-2.192-0.294c-2.942-0.685-5.863-0.671-8.801,0.051c-0.814,0.2-1.681,0.204-2.525,0.265    c-1.583,0.113-3.167,0.221-4.75,0.299c-2.545,0.126-5.084,0.209-7.524-0.752c-1.225-0.484-2.541-0.508-3.755-0.16    c-1.698,0.483-3.315,0.513-4.99-0.013c-0.614-0.193-1.302-0.144-1.801,0.327c-0.278,0.264-0.505,0.678-0.556,1.051    C36.09,33.608,36.412,34.003,36.659,34.099z M45.583,23.516c1.225-0.133,2.749,0.095,3.747,0.467    c0.486,0.183,1.021,0.284,1.539,0.318c1.069,0.071,2.096-0.109,3.082-0.585c1.069-0.517,2.17-0.508,3.379-0.416    c2.522,0.191,5.072,0.117,7.604,0.018c1.896-0.072,3.781-0.356,5.673-0.547c0.005,0.063,0.009,0.127,0.015,0.191    c1.059,0,2.118,0.013,3.174-0.005c0.548-0.01,1.044-0.504,1.038-0.998c-0.009-0.58-0.295-1-0.81-1.253    c-0.187-0.091-0.399-0.184-0.602-0.182c-2.115,0.005-4.273-0.226-6.336,0.113c-3.072,0.499-6.131,0.446-9.179,0.233    c-2.045-0.142-3.981-0.158-5.896,0.629c-0.713,0.295-1.453,0.225-2.062-0.372c-0.301-0.294-0.62-0.578-0.965-0.819    c-0.446-0.316-0.948-0.475-1.493-0.252c-0.88,0.36-1.772,0.697-2.629,1.104c-0.581,0.275-0.793,1.023-0.556,1.641    C44.492,23.283,45.016,23.578,45.583,23.516z M50.031,60.985c-1.268-0.772-2.724-0.825-3.982-0.331    c-1.635,0.641-3.044,0.467-4.572-0.191c-1.19-0.513-2.441-0.431-3.735-0.128c-1.268,0.297-2.365,0.89-3.51,1.428    c-0.827,0.389-1.758,1.043-2.352-0.346c-0.217,0.162-0.485,0.289-0.627,0.502c-0.078,0.118-0.008,0.436,0.107,0.564    c0.851,0.943,1.903,1.312,3.135,0.906c0.599-0.197,1.167-0.498,1.734-0.78c1.911-0.948,3.799-1.136,5.771-0.093    c0.719,0.38,1.588,0.482,2.197,0.654c2.222-0.361,4.167-0.789,6.048-1.488c0.082-0.031,0.202-0.196,0.185-0.221    C50.317,61.289,50.2,61.089,50.031,60.985z" fill="#eb5781"/>
	</g>
</g>
<g>
</g>
<g>
</g>
<g>
</g>
<g>
</g>
<g>
</g>
<g>
</g>
<g>
</g>
<g>
</g>
<g>
</g>
<g>
</g>
<g>
</g>
<g>
</g>
<g>
</g>
<g>
</g>
<g>
</g>
</svg>
