<?xml version="1.0" encoding="iso-8859-1"?>
<!-- Generator: Adobe Illustrator 16.0.0, SVG Export Plug-In . SVG Version: 6.00 Build 0)  -->
<!DOCTYPE svg PUBLIC "-//W3C//DTD SVG 1.1//EN" "http://www.w3.org/Graphics/SVG/1.1/DTD/svg11.dtd">
<svg xmlns="http://www.w3.org/2000/svg" xmlns:xlink="http://www.w3.org/1999/xlink" version="1.1" id="Capa_1" x="0px" y="0px" width="512px" height="512px" viewBox="0 0 429.736 429.736" style="enable-background:new 0 0 429.736 429.736;" xml:space="preserve">
<g>
	<path d="M85.481,175.662c-23.702,0-42.986,19.284-42.986,42.983c0,23.702,19.284,42.989,42.986,42.989s42.986-19.287,42.986-42.989   C128.467,194.946,109.184,175.662,85.481,175.662z M120.11,214.83v7.634c0,3.168-2.568,5.733-5.733,5.733H94.688v18.631   c0,3.168-2.571,5.733-5.733,5.733h-7.643c-3.159,0-5.728-2.565-5.728-5.733v-18.631H58.026c-3.165,0-5.73-2.565-5.73-5.733v-7.634   c0-3.165,2.565-5.733,5.73-5.733h17.558V190.48c0-3.165,2.568-5.733,5.728-5.733h7.643c3.162,0,5.733,2.568,5.733,5.733v18.616   h19.689C117.542,209.096,120.11,211.665,120.11,214.83z M335.92,134.408c-30.653,0-57.789,14.525-74.913,36.91   c-13.678,2.887-29.021,4.847-46.127,4.951c-16.97,0.109-32.199-1.703-45.8-4.492c-17.106-22.636-44.396-37.368-75.265-37.368   C41.999,134.408,0,175.736,0,226.708c0,6.489,0.698,12.814,1.992,18.926c2.282,42.197,12.088,131.385,48.596,166.163   c43.985,41.885,102.466-113.545,102.466-113.545s12.371-14.553,63.322-14.553c50.95,0,60.751,15.244,60.751,15.244   c3.776,12.265,59.775,153.313,102.262,112.854c37.084-35.322,46.618-128.074,48.705-168.16c1.04-5.492,1.643-11.137,1.643-16.929   C429.736,175.736,387.734,134.408,335.92,134.408z M85.481,265.848c-26.861,0-48.71-21.853-48.71-48.716   c0-26.859,21.849-48.702,48.71-48.702c26.862,0,48.71,21.843,48.71,48.702C134.192,243.996,112.343,265.848,85.481,265.848z    M327.976,171.341c7.95-6.127,19.347-4.649,25.476,3.298c6.124,7.947,4.641,19.337-3.298,25.464   c-7.95,6.126-19.352,4.648-25.476-3.298C318.555,188.858,320.033,177.458,327.976,171.341z M298.127,234.462   c-6.124-7.956-4.646-19.349,3.298-25.476c7.944-6.124,19.346-4.649,25.47,3.301c6.117,7.947,4.64,19.349-3.298,25.461   C315.647,243.873,304.25,242.394,298.127,234.462z M355.26,274.507c-7.949,6.124-19.34,4.646-25.463-3.298   c-6.124-7.95-4.646-19.353,3.298-25.464c7.944-6.129,19.34-4.651,25.47,3.299C364.688,256.988,363.21,268.378,355.26,274.507z    M381.694,235.03c-7.944,6.123-19.334,4.651-25.464-3.298c-6.111-7.944-4.646-19.338,3.298-25.461   c7.95-6.127,19.353-4.649,25.476,3.298C391.127,217.516,389.644,228.906,381.694,235.03z M208.815,164.012   c-0.428-13.143-3.546-28.703,6.319-39.481c10.125-11.059,27.172-11.621,36.812-22.147c28.07-30.662-10.705-59.4-26.416-82.849   c-4.361-6.508,6.136-12.56,10.451-6.114c17.082,25.475,43.538,41.553,35.411,76.645c-3.446,14.922-12.005,23.788-25.812,29.899   c-7.749,3.44-19.423,6.732-23.218,15.321c-3.972,9.017-1.749,19.29-1.436,28.72C221.181,171.82,209.07,171.793,208.815,164.012z" fill="#FFFFFF"/>
</g>
<g>
</g>
<g>
</g>
<g>
</g>
<g>
</g>
<g>
</g>
<g>
</g>
<g>
</g>
<g>
</g>
<g>
</g>
<g>
</g>
<g>
</g>
<g>
</g>
<g>
</g>
<g>
</g>
<g>
</g>
</svg>
