<?xml version="1.0" encoding="iso-8859-1"?>
<!-- Generator: Adobe Illustrator 19.1.0, SVG Export Plug-In . SVG Version: 6.00 Build 0)  -->
<svg xmlns="http://www.w3.org/2000/svg" xmlns:xlink="http://www.w3.org/1999/xlink" version="1.1" id="Capa_1" x="0px" y="0px" viewBox="0 0 189.997 189.997" style="enable-background:new 0 0 189.997 189.997;" xml:space="preserve" width="512px" height="512px">
<g id="XMLID_132_">
	<path id="XMLID_359_" d="M135.242,121.312c0.553-0.712,1.093-1.408,1.634-2.102   c3.652-4.685,6.855-9.628,8.756-15.315c1.497-4.478,1.925-9.074,1.51-13.763c-0.377-4.267-1.528-8.388-2.372-12.566   c-0.624-3.091-1.136-6.188-1.013-9.381c-1.252,3.53-2.662,6.981-4.454,10.366c-0.199-0.378-0.02-0.585,0.067-0.792   c2.432-5.813,4.019-11.856,4.878-18.089c0.257-1.867,0.353-3.755,0.543-5.632c0.093-0.923-0.318-1.71-0.632-2.52   c-2.606-6.716-5.542-13.282-9.143-19.53c-2.23-3.87-4.669-7.603-7.85-10.785c-0.901-0.901-1.89-1.706-2.871-2.538   c0.723,0.091,1.323,0.443,1.921,0.793c3.35,1.961,6.066,4.648,8.603,7.537c3.188,3.63,5.918,7.591,8.413,11.719   c0.126,0.209,0.267,0.41,0.494,0.757c0.04-0.686-0.132-1.185-0.244-1.684c-1.387-6.211-3.773-11.994-7.483-17.19   c-2.935-4.111-6.427-7.674-10.665-10.452c-3.132-2.053-6.634-3.224-10.261-4.014c-7.151-1.558-14.378-1.571-21.641-1.067   C85.273,5.631,77.38,7.434,69.61,9.888c-3.105,0.981-6.251,1.811-9.483,2.258c-0.51,0.071-0.749,0.296-0.768,0.767   c-0.181,4.335-2.148,8.043-4.143,11.73c-3.817,7.052-7.566,14.133-10.546,21.596c-1.535,3.845-2.133,7.846-2.271,11.943   c-0.106,3.149,0.094,6.289,0.366,9.425c0.021,0.245,0.079,0.486,0.116,0.729c0.07,0.455,0.438,0.455,0.755,0.45   c0.451-0.007,0.303-0.375,0.289-0.618c-0.081-1.419-0.245-2.837-0.258-4.256c-0.057-6.335,1.086-12.453,3.388-18.36   c1.432-3.676,3.258-7.167,4.938-10.728c1.727-3.661,3.394-7.35,5.065-11.037c0.637-1.405,0.742-2.967,1.21-4.425   c0.083-0.26,0.13-0.532,0.2-0.796c0.717-2.692,2.372-3.453,4.8-2.072c4.172,2.373,7.769,5.473,11.041,8.969   c4.859,5.192,8.93,10.999,13.035,16.772c4.536,6.381,9.729,12.168,15.295,17.656c3.913,3.858,7.694,7.853,11.082,12.195   c0.74,0.949,1.473,1.91,2.122,2.921c1.287,2.005,2.739,3.888,4.127,5.82c3.344,4.656,4.287,9.756,2.512,15.251   c-1.532,4.742-3.331,9.389-5.725,13.769c-2.639,4.83-6.205,8.924-10.325,12.553c-3.128,2.755-6.393,5.318-10.045,7.357   c-4.193,2.341-8.709,3.807-13.348,4.939c-2.391,0.584-4.784,1.118-7.27,1.179c-5.298,0.131-9.407-2.063-12.528-6.252   c-1.999-2.683-3.311-5.718-4.469-8.83c-0.162-0.436-0.343-0.864-0.52-1.294c-0.04-0.097-0.096-0.186-0.199-0.381   c0.118,2.996,0.229,5.872,0.792,8.712c0.671,3.384,0.891,6.829,1.305,10.248c0.79,6.518,2.596,12.737,5.466,18.651   c1.378,2.839,3.016,5.518,4.755,8.142c0.113,0.171,0.29,0.324,0.251,0.58c-0.372,0.043-0.573-0.211-0.8-0.381   c-8.45-6.344-13.353-14.808-15.035-25.191c-0.469-2.896-0.506-5.826-0.66-8.747c-0.135-2.567-0.296-5.132-0.356-7.704   c0.011,2.432-0.055,4.859-0.27,7.283c-0.215,2.427-0.561,4.831-1.035,7.221c-0.479,2.42-1.119,4.796-1.939,7.118   c-0.812,2.298-1.795,4.522-2.994,6.653c-1.207,2.144-2.521,4.204-4.199,6.043c-0.243-0.263-0.026-0.409,0.047-0.542   c3.176-5.802,5.034-12.038,6.156-18.523c0.929-5.37,1.421-10.785,1.676-16.224c0.232-4.944,0.384-9.893,0.693-14.833   c0.069-1.104-0.233-1.949-0.728-2.844c-1.974-3.567-3.969-7.127-5.229-11.032c-1.084-3.358-1.782-6.771-1.357-10.329   c0.044-0.368-0.073-0.703-0.164-1.046c-1.704-6.429-3.114-12.915-3.896-19.531c-0.906-7.669,0.15-15.009,3.119-22.16   c2.636-6.35,5.545-12.56,8.609-18.707c1.184-2.375,2.334-4.774,2.788-7.424c0.213-1.242,0.357-2.492,0.135-3.754   c-0.107-0.608,0.05-1.203,0.16-1.789c0.104-0.551,0.596-0.681,1.069-0.734c1.82-0.206,3.623-0.516,5.413-0.898   c3.271-0.697,6.413-1.837,9.597-2.828c5.705-1.776,11.495-3.135,17.443-3.813c4.026-0.459,8.061-0.79,12.11-0.729   c6.533,0.099,12.98,0.8,19.225,2.909c6.101,2.06,10.972,5.825,15.128,10.622c5.788,6.68,9.291,14.443,10.88,23.105   c0.509,2.775,0.804,5.574,0.893,8.392c0.028,0.88,0.525,1.545,0.882,2.265c3.053,6.164,5.642,12.51,7.752,19.062   c1.908,5.924,3.316,11.96,4.362,18.086c1.15,6.736,1.68,13.524,1.337,20.349c-0.432,8.582-2.372,16.807-6.056,24.617   c-2.769,5.87-6.769,10.696-11.83,14.694c-0.081,0.064-0.182,0.101-0.289,0.159c-0.144-0.311,0.098-0.436,0.225-0.574   c5.517-6.044,8.669-13.249,10.553-21.124c1.711-7.149,2.074-14.391,1.722-21.681c-0.379-7.862-1.674-15.592-3.641-23.218   c-1.093-4.235-2.053-8.505-3.22-12.722c-0.277-1-0.613-1.985-0.946-2.968c-0.1-0.296-0.19-0.734-0.577-0.695   c-0.335,0.034-0.31,0.458-0.379,0.743c-0.423,1.765-0.355,3.591-0.639,5.369c-0.563,3.516,0.587,6.698,1.77,9.888   c1.332,3.59,2.687,7.173,3.348,10.969c1.33,7.637-0.049,14.74-4.177,21.304c-2.978,4.735-6.981,8.462-11.509,11.669   C135.663,121.313,135.547,121.465,135.242,121.312z M54.756,73.013c-0.86-0.875-1.338-1.752-1.389-2.756   c-0.041-0.819-0.355-1.075-1.112-0.922c-0.241,0.049-0.487,0.069-0.728,0.115c-1.534,0.29-3.072,0.532-4.641,0.42   c-1.026-0.074-1.055-0.049-0.899,1.003c0.044,0.297,0.068,0.6,0.139,0.891c0.776,3.208,0.708,6.447,0.424,9.704   c-0.235,2.699-0.346,5.389,0.232,8.086c0.964,4.503,2.94,8.573,5.17,12.54c3.355,5.969,6.461,12.054,8.869,18.476   c0.962,2.567,2.055,5.069,3.616,7.344c2.831,4.127,6.656,6.286,11.742,6.058c2.341-0.105,4.602-0.623,6.861-1.166   c3.972-0.954,7.91-2.053,11.521-4.002c8.067-4.355,14.909-10.131,20.054-17.789c2.243-3.338,4.011-6.902,4.792-10.891   c0.552-2.821,0.843-5.676,1.098-8.536c0.172-1.932,0.412-3.841-0.182-5.768c-0.648-2.1-1.53-4.068-2.822-6.078   c-1.032,7.194-3.195,13.753-7.58,19.496c-0.198-0.297-0.046-0.459,0.017-0.629c0.722-1.947,1.482-3.881,2.167-5.842   c1.625-4.651,2.798-9.437,4.193-14.158c0.135-0.457,0-0.79-0.245-1.141c-1.975-2.834-4.207-5.46-6.496-8.04   c-0.365-0.411-0.715-0.481-1.221-0.21c-0.501,0.268-1.059,0.442-1.608,0.605c-2.116,0.627-4.265,0.599-6.423,0.262   c-0.325-0.051-0.734-0.191-0.833,0.243c-0.212,0.929-0.587,1.783-1.223,2.727c1.835-0.483,3.153-1.46,4.518-2.368   c-1.067,2.076-2.738,3.431-4.888,4.22c-2.497,0.916-5.059,0.716-7.625,0.42c-2.307-0.266-4.608-0.637-6.943-0.255   c-0.38,0.062-0.763,0.323-1.311,0.047c0.961-0.643,1.94-1.011,2.959-1.273c1.493-0.385,3.019-0.492,4.558-0.471   c0.265,0.003,0.594,0.09,0.768-0.164c0.206-0.301-0.138-0.486-0.263-0.705c-0.34-0.598-0.683-1.2-0.733-1.898   c-0.044-0.611-0.333-0.732-0.869-0.586c-1.408,0.382-2.771,0.868-3.965,1.73c-0.785,0.567-1.538,1.177-2.347,1.8   c-0.026-0.158-0.064-0.242-0.046-0.312c0.059-0.238,0.12-0.478,0.211-0.705c1.023-2.567,2.845-4.39,5.322-5.545   c2.822-1.317,5.823-1.405,8.85-1.09c2.369,0.246,4.674,0.875,7.017,1.282c1.048,0.182,2.105,0.377,3.18,0.219   c0.493-0.072,0.685-0.182,0.26-0.689c-1.375-1.642-3.018-3.01-4.524-4.516c-3.308-3.308-6.751-6.484-9.83-10.016   c-0.321-0.368-0.624-0.476-1.07-0.295c-0.886,0.361-1.797,0.666-2.668,1.06c-5.049,2.289-9.376,5.409-11.97,10.501   c-0.023,0.046-0.125,0.052-0.255,0.102c0.017-0.186,0.016-0.318,0.043-0.443c0.573-2.598,1.826-4.862,3.515-6.876   c2.491-2.97,5.597-5.127,9.163-6.614c0.68-0.283,0.74-0.518,0.287-1.092c-2.29-2.9-4.413-5.924-6.567-8.925   c-3.717-5.179-7.383-10.398-11.862-14.977c-1.938-1.981-4.04-3.765-6.228-5.455c-0.326-0.252-0.669-0.645-1.129-0.158   c-1.276,1.351-2.619,2.636-3.634,4.219c-3.547,5.533-6.907,11.163-9.537,17.208c-1.661,3.82-3.22,7.663-4.156,11.737   c-0.17,0.738,0.066,0.899,0.71,0.795c2.266-0.365,4.417,0.162,6.504,0.941c4.522,1.688,8.162,4.613,11.267,8.248   c0.357,0.418,0.796,0.801,0.882,1.439c-0.775-0.586-1.525-1.189-2.303-1.753c-3.579-2.598-7.326-4.892-11.499-6.423   c-1.679-0.616-3.404-1.006-5.208-0.958c-0.616,0.017-0.889,0.292-0.994,0.935c-0.532,3.258-0.548,6.536-0.475,9.821   c0.027,1.212,0.168,1.389,1.367,1.64c0.265,0.056,0.541,0.072,0.813,0.081c1.845,0.057,3.645-0.339,5.456-0.584   c4.483-0.607,8.3,1.15,10.372,4.876c0.284,0.511,0.547,1.039,0.662,1.65c-0.41,0.009-0.53-0.281-0.734-0.443   c-0.47-0.375-0.931-0.762-1.399-1.14c-0.263-0.212-0.517-0.258-0.599,0.154c-0.132,0.669-0.598,1.135-1.056,1.71   c1.262,0.338,2.578,0.11,3.817,0.921c-0.733,0.106-1.29,0.176-1.844,0.267c-2.239,0.368-4.469,0.831-6.756,0.715   c-2.161-0.11-4.237-0.512-6.005-1.888c-0.838-0.652-1.406-1.467-1.589-2.563C49.691,72.632,52.134,72.775,54.756,73.013z    M44.676,80.901c0.744-3.717-0.004-7.337-0.554-10.97c-0.076-0.502-0.408-0.668-0.79-0.647c-0.463,0.025-0.293,0.458-0.265,0.713   c0.147,1.327,0.302,2.655,0.502,3.975C43.92,76.284,44.305,78.59,44.676,80.901z M52.607,107.504   c0.222,1.984,0.447,3.767,0.614,5.555c0.168,1.806,0.278,3.618,0.416,5.427c0-2.677-0.043-5.355,0.021-8.03   C53.684,109.362,53.194,108.542,52.607,107.504z M55.841,71.126c0.535,0.012,1.081-0.507,1.046-0.992   c-0.042-0.584-0.42-0.891-0.967-0.921c-0.606-0.033-0.933,0.401-0.939,0.921C54.976,70.648,55.287,71.061,55.841,71.126z    M93.815,70.565c-0.085-0.517-0.36-0.93-0.924-0.962c-0.572-0.033-0.942,0.329-0.959,0.9c-0.017,0.565,0.332,0.956,0.889,0.993   C93.397,71.534,93.697,71.139,93.815,70.565z" fill="#02f5e9"/>
	<path id="XMLID_358_" d="M130.049,127.96c-1.217,1.823-2.588,3.382-4.005,4.895   c-7.763,8.289-16.297,15.723-25.304,22.616c-6.96,5.327-14.246,10.171-21.94,14.39c-6.483,3.555-13.32,6.221-20.381,8.362   c-4.647,1.409-9.365,2.467-14.202,2.876c-3.263,0.276-6.54,0.736-9.819,0.234c-2.612-0.4-4.747-1.531-5.625-4.249   c-0.423-1.31-0.39-2.662-0.031-3.971c1.242-4.532,3.924-8.007,7.89-10.497c0.547-0.344,1.16-0.579,1.804-0.694   c0.102,0.231-0.059,0.274-0.162,0.339c-4.392,2.751-6.686,6.858-7.28,11.87c-0.261,2.202,0.797,3.603,3.481,3.835   c2.095,0.181,4.143-0.271,6.193-0.582c13.102-1.992,25.149-6.939,36.715-13.202c6.427-3.48,12.621-7.347,18.744-11.338   c9.219-6.009,18.17-12.389,26.878-19.112c2.25-1.737,4.486-3.502,6.492-5.531C129.607,128.091,129.701,127.938,130.049,127.96z" fill="#02f5e9"/>
	<path id="XMLID_357_" d="M149.592,113.519c0.128,1.114-0.015,2.21-0.192,3.3   c-0.959,5.888-3.293,11.265-6.169,16.432c-3.378,6.07-7.458,11.652-11.885,16.991c-2.219,2.675-4.539,5.256-6.92,7.789   c-4.72,5.022-9.631,9.846-14.857,14.338c-5.472,4.704-11.28,8.933-17.811,12.088c-5.943,2.871-12.173,4.687-18.763,5.308   c-3.888,0.366-7.755,0.272-11.63-0.067c-0.319-0.028-0.633-0.113-0.95-0.329c0.867-0.07,1.734-0.162,2.603-0.207   c5.409-0.278,10.694-1.238,15.846-2.908c5.026-1.629,9.72-3.96,14.156-6.815c5.075-3.265,9.702-7.101,14.161-11.151   c5.509-5.003,10.867-10.164,16.045-15.508c5.885-6.074,11.579-12.322,16.514-19.213c3.45-4.817,6.532-9.846,8.508-15.478   C148.773,116.593,149.176,115.065,149.592,113.519z" fill="#02f5e9"/>
	<path id="XMLID_356_" d="M109.105,20.678c2.002,1.587,3.856,3.32,5.596,5.173   c3.906,4.161,7.438,8.61,10.371,13.518c3.702,6.195,6.144,12.863,7.511,19.941c1.058,5.478,1.47,11.008,1.251,16.573   c-0.468,11.866-3.288,23.193-7.994,34.072c-1.457,3.369-3.126,6.63-4.924,9.828c-0.117,0.209-0.272,0.397-0.448,0.649   c-0.16-0.292,0.003-0.47,0.078-0.638c3.05-6.927,5.508-14.057,7.267-21.419c1.381-5.779,2.349-11.626,2.744-17.565   c0.194-2.923,0.346-5.845,0.261-8.773c-0.303-10.509-2.257-20.646-6.96-30.137c-2.917-5.886-6.583-11.287-10.711-16.388   C111.824,23.879,110.399,22.335,109.105,20.678z" fill="#02f5e9"/>
	<path id="XMLID_355_" d="M88.701,145.633c0.451-1.24,1.293-2.199,2.112-3.166   c3.399-4.01,7.674-6.925,12.117-9.62c4.584-2.78,9.367-5.218,13.892-8.103c4.674-2.981,8.725-6.681,12.482-10.719   c2.686-2.887,5.107-5.99,7.352-9.237c2.605-3.768,4.098-7.952,4.855-12.429c0.664-3.921,0.825-7.882,0.863-11.849   c0.015-1.607,0.003-3.214,0.123-4.828c0.388,0.232,0.362,0.563,0.384,0.866c0.251,3.49,0.568,6.978,0.634,10.477   c0.15,7.926-1.668,15.24-6.391,21.793c-3.932,5.456-8.413,10.364-13.554,14.659c-2.007,1.677-4.281,3.033-6.563,4.337   c-5.135,2.935-10.566,5.294-15.751,8.131c-4.123,2.255-7.998,4.848-11.276,8.256C89.536,144.662,89.127,145.155,88.701,145.633z" fill="#02f5e9"/>
	<path id="XMLID_327_" d="M85.878,109.727c-0.016,0.725-0.318,1.363-0.665,1.962   c-2.069,3.574-5.288,5.485-9.272,6.057c-2.845,0.409-5.687,0.053-8.388-0.978c-2.735-1.044-4.717-2.832-5.288-5.862   c-0.071-0.376-0.143-0.748-0.03-1.118c0.189-0.082,0.27,0.047,0.335,0.155c1.336,2.206,3.275,3.487,5.847,3.736   c3.7,0.358,7.402,0.747,11.062-0.358c2.209-0.666,4.221-1.653,5.855-3.321C85.464,109.868,85.573,109.688,85.878,109.727z" fill="#02f5e9"/>
	<path id="XMLID_326_" d="M61.111,108.975c-0.101-1.083,0.264-1.764,0.949-2.292   c1.439-1.11,3.103-1.106,4.784-0.898c1.371,0.17,2.652,0.656,3.871,1.295c0.415,0.218,0.791,0.324,1.224,0.041   c3.285-2.142,6.734-2.129,10.287-0.774c1.871,0.713,3.772,1.309,5.803,1.337c0.104,0.001,0.219,0.013,0.289,0.269   c-0.956,0.345-1.936,0.58-2.966,0.64c-1.679,0.098-3.337-0.135-4.982-0.385c-2.902-0.441-5.488,0.313-7.834,1.955   c-0.778,0.544-1.317,0.562-2.08-0.033c-1.361-1.062-2.878-1.89-4.53-2.444c-0.846-0.284-1.712-0.332-2.593-0.287   C62.342,107.451,61.707,108.054,61.111,108.975z" fill="#02f5e9"/>
	<path id="XMLID_325_" d="M66.851,99.211c-1.368-0.052-2.113-0.868-2.557-1.991   c-0.744-1.883-0.71-3.851-0.532-5.826c0.362-4.023,1.443-7.895,2.434-11.791c0.802-3.156,1.043-6.358,0.432-9.592   c-0.235-1.245-0.715-2.4-1.276-3.612c0.377-0.012,0.453,0.259,0.577,0.425c1.902,2.545,2.459,5.496,2.577,8.579   c0.125,3.282-0.849,6.375-1.626,9.503c-0.744,2.996-1.58,5.973-1.906,9.059c-0.081,0.766-0.119,1.535-0.031,2.293   C65.09,97.526,65.553,98.629,66.851,99.211z" fill="#02f5e9"/>
	<path id="XMLID_324_" d="M102.587,66.191c-0.626-0.432-1.254-0.861-1.877-1.297   c-3.043-2.131-6.309-2.321-9.765-1.197c-3.148,1.023-5.611,3.006-7.792,5.399c-0.894,0.981-1.724,2.019-2.734,3.207   c0.087-0.661,0.358-0.972,0.574-1.301c1.673-2.55,3.464-5.022,6.104-6.653c3.765-2.327,7.725-3.348,11.954-1.206   c1.415,0.717,2.584,1.772,3.692,2.883C102.691,66.08,102.639,66.135,102.587,66.191z" fill="#02f5e9"/>
	<path id="XMLID_323_" d="M63.908,70.46c-1.729-3.094-4.147-5.075-7.401-5.926   c-3.234-0.846-6.337-0.791-9.103,1.864c0.171-0.705,0.512-1.013,0.84-1.311c2.089-1.896,4.593-2.362,7.268-1.904   c3.911,0.669,6.771,2.774,8.339,6.494c0.053,0.125,0.093,0.257,0.127,0.389C63.99,70.112,63.963,70.167,63.908,70.46z" fill="#02f5e9"/>
	<path id="XMLID_322_" d="M74.114,99.283c4.833-1.03,5.477-4.44,1.733-8.091   c0.195-0.201,0.351-0.011,0.498,0.063c1.886,0.955,2.865,2.622,3.503,4.538c0.182,0.546,0.065,1.083-0.282,1.554   C78.512,98.784,76.151,99.669,74.114,99.283z" fill="#02f5e9"/>
	<path id="XMLID_321_" d="M71.519,98.245c0.171-1.162,1.054-1.913,2.015-1.819   c0.814,0.079,1.348,0.709,1.358,1.808C73.742,97.052,72.642,97.687,71.519,98.245z" fill="#02f5e9"/>
</g>
<g>
</g>
<g>
</g>
<g>
</g>
<g>
</g>
<g>
</g>
<g>
</g>
<g>
</g>
<g>
</g>
<g>
</g>
<g>
</g>
<g>
</g>
<g>
</g>
<g>
</g>
<g>
</g>
<g>
</g>
</svg>
