<?xml version="1.0" encoding="utf-8"?>
<!-- Generator: Adobe Illustrator 19.0.0, SVG Export Plug-In . SVG Version: 6.00 Build 0)  -->
<svg version="1.1" id="Capa_1" xmlns="http://www.w3.org/2000/svg" xmlns:xlink="http://www.w3.org/1999/xlink" x="0px" y="0px"
	 viewBox="-223 25 512 512" style="enable-background:new -223 25 512 512;" xml:space="preserve">
<style type="text/css">
	.st0{fill:#FFDA44;}
	.st1{fill:#F94B8A;}
</style>
<g>
	<g>
		<polygon class="st0" points="-115,441.1 -115,423.6 -182.1,423.6 -206,328.2 -223,332.5 -195.9,441.1 -182.1,441.1 -199.7,480 
			-189,484.8 -169.2,441.1 -140.1,441.1 -121.1,484.7 -110.4,480 -127.4,441.1 		"/>
		<polygon class="st0" points="261.9,440.4 289,331.7 272,327.5 248.1,422.8 181,422.8 181,440.4 193.4,440.4 176.4,479.3 
			187.1,484 206.2,440.4 235.3,440.4 255.1,484.1 265.7,479.2 248.1,440.4 		"/>
		<polygon class="st0" points="-64.8,394.5 -64.8,488.1 -57.8,488.1 -57.8,394.5 -60.3,394.5 		"/>
		<polygon class="st0" points="184.9,417.5 209.2,417.5 217.3,417.5 222.7,417.5 236.8,417.5 213.5,301.9 174.8,301.9 148.2,344.6 
			149.2,342.3 148,344.1 118.6,332.4 112.5,347.2 -46.8,347.1 -52.6,333.1 -82,344.9 -108.8,302.6 -147.5,302.6 -170.8,418.2 
			-156.8,418.2 -151.2,418.2 -143.2,418.2 -118.9,418.2 -117.4,418.2 -104,418.2 -95.5,418.2 -95.5,394.5 -107.6,394.5 
			-107.6,394.5 -122.1,394.5 -105.6,341 -100,350.1 -104.3,350.1 -104.3,368.8 -92.6,368.8 -92.6,394.5 -92.6,418.2 -92.6,488.1 
			-88.5,488.1 -67.7,488.1 -67.7,394.5 -67.7,368.8 136.6,368.8 136.6,393.7 136.6,488.1 154.5,488.1 161.5,488.1 161.5,417.5 
			161.5,393.7 161.5,368.8 172,368.8 172,350.1 165.5,350.1 171.6,340.2 188.1,393.7 173.6,393.7 173.6,393.7 164.4,393.7 
			164.4,417.5 170.1,417.5 183.4,417.5 		"/>
		<polygon class="st0" points="123.9,393.7 123.9,488.1 133.6,488.1 133.6,393.7 126.3,393.7 		"/>
		<path class="st0" d="M-129.9,244c-0.7,1.4-1.3,2.8-1.8,4.2c-0.6,1.8-1,3.8-1.4,5.8c-1.8,11.6,2.3,22.8,10.1,30.5
			c0.2,0.2,0.4,0.4,0.6,0.7c0.6,0.6,1.3,1,1.9,1.6c1.2,1,2.5,2.1,3.9,3c0,0,0.1,0,0.1,0.1c3.8,2.4,8.2,4,12.8,4.7
			c0.1,0,0.2,0.1,0.4,0.1c0.4,0.1,0.8,0,1.2,0.1c1.2,0.1,2.3,0.3,3.5,0.3c0.4,0,0.8-0.1,1.1-0.1c1.9,0,3.7-0.3,5.5-0.5
			c0.1,0,0.2,0,0.3-0.1c14.6-2.6,26.6-14.1,29-29.5c0.6-3.9,0.3-7.7-0.3-11.4l8.7-8.8l-12.1-6.5l4.5-12.7l-16.3,2l-4.9-16.2
			l-15.5,11.9l-8.5-13.6l-7.3,15.1l-15.8-8l4.1,15l-12.6,1.5L-129.9,244z"/>
		<path class="st0" d="M143.3,227.5l-16.3-2.1l4.5,12.7l-12.1,6.5l8.7,8.8c-0.6,3.7-0.9,7.5-0.3,11.4c3,19.5,21.2,32.8,40.6,29.8
			c3.4-0.5,6.4-1.6,9.4-3c0,0,0.1,0,0.1-0.1c1.7-0.8,3.2-1.6,4.7-2.6c1.4-0.9,2.7-1.9,4-3c0.2-0.2,0.4-0.3,0.6-0.5
			c6.3-5.7,10.4-13.7,11.1-22.7c0.1-0.7,0.2-1.4,0.2-2.1c0-0.1,0-0.3,0-0.4c0-0.4-0.1-0.9-0.1-1.3c0-1.7,0-3.3-0.3-5
			c-0.3-2-0.8-3.9-1.3-5.8c-0.5-1.4-1.2-2.9-1.8-4.2l8.8-10.8l-12.6-1.5l4.1-15l-15.8,8l-7.3-15.1l-8.5,13.6l-15.5-11.9L143.3,227.5
			z"/>
		<path class="st0" d="M-56.1,187l-17.6,30.7l7.6-1.2c0.5-0.1,51-7.9,85.7-18.2c5.3-1.6,10.3-3.3,15.1-5.1c4.8,1.8,9.8,3.5,15.1,5.1
			c34.7,10.3,85.2,18.1,85.7,18.2l7.6,1.2L125.5,187c22.6-11.9,36-30.4,36-50.1c0-34.7-41.1-63-91.6-63c-12.5,0-24.3,1.7-35.2,4.8
			C23.9,75.7,12,73.9-0.4,73.9c-50.5,0-91.6,28.3-91.6,63C-92.1,156.6-78.7,175.1-56.1,187z M69.9,81.3c46.4,0,84.2,25,84.2,55.6
			c0,17.8-13.2,34.7-35.4,45.2l-3.6,1.7L129,208c-15.4-2.6-50.9-9-77.1-16.8c-2.1-0.6-4.6-1.4-7.2-2.3c29.7-13.4,46.4-31.7,46.4-52
			c0-22.5-17.4-42.3-43.3-53.5C54.9,82.2,62.2,81.3,69.9,81.3z"/>
	</g>
	<g>
		<path class="st0" d="M83.5,268.1H-17.4v66.6H83.5V268.1z M75.9,327.1H-9.9v-51.4h85.8V327.1z"/>
		<path class="st0" d="M83.5,337.7h-49h-2.9h-49l-14.5,0.7v10H98v-10L83.5,337.7z M47.3,344.3H17v-2h30.2V344.3z"/>
	</g>
</g>
<g id="XMLID_3_">
	<path id="XMLID_4_" class="st1" d="M-66.5,129.8c-1.5-0.1-2.6,0.3-3.6-0.4c-0.9,0.6-1.6-0.9-2.2-1c-0.5-0.7-0.9-1.1-1.1-1.6
		c-0.2-1.4-0.3-2.3-0.3-2.1c0-1,0-3,0-4.3c0-2.7,0-5.8,0-7.9c0-2.7,0-5,0-4.3c0,1.4,5,0.1,5-0.7c0-1.4,0,2.6,0,4.2
		c0,1.7,0,5.4,0,7.8c0,1.7,0,3.5,0,4.2c0,0.8,0,1.4,0.1,1c0.1,2.3,0.2-0.5,0.4,0.8c0.2-0.2,0.5,0.6,0.8,0.5c0.4-0.8,0.8,0.6,1.4,0.3
		C-65.7,124.8-66.5,129.7-66.5,129.8z"/>
	<path id="XMLID_6_" class="st1" d="M-63.7,122.2c0-3.2,0.2-3.1,0.7-3.5c0.5-1,1.1-3.3,1.9-2.5c0.8-1.2,1.7,0.3,2.7-1.5
		c1-0.4,2.1,0.1,3.1-0.5c1.3,0.7,2.4,2.2,3.4,0.5c1,0.3,1.9,0.9,2.6,1.5c0.7,0.2,1.3,0.8,1.6,2.4c0.4,2.3,0.5,0.8,0.5,3.3
		c0,0.9,0-0.5,0,0.8c0-1,0,1.4-0.1,0.8c0,0.3-2.8-0.2-5.7,0c-2.8,0.7-5.7-1.2-5.7,0c0.1-0.1,0.6,1.2,1.4,2.1c0.9,2.1,2,0.9,3.4,0.8
		c0.9,0.6,1.8,0.7,2.7-0.2c0.9,1.3,1.6,0.6,2.2-0.5c0-0.1,0.7,3.5,0.7,3.4c-0.3,1.8-0.6,2.3-1.1,0.3c-0.4-0.9-0.9-1.6-1.5,0.3
		c-0.6,0.5-1.1-1-1.8,0.2c-0.6-1-1.3-0.8-1.9,0.1c-1.6-0.3-3,0.5-4.2-0.6c-1.2-0.5-2.2-1-2.9-1.6c-0.8-2.3-1.3-1.8-1.7-2.5
		C-63.5,124.9-63.7,124-63.7,122.2z M-51.9,120.6c0,0.2-0.1-0.9-0.2-1c-0.1,1.2-0.3-1.8-0.6-0.9c-0.3,0.3-0.6-2.9-1-0.7
		c-0.4-1.8-0.9-1.7-1.5-0.3c-0.6-0.3-1,1.4-1.4,0.2c-0.4-0.9-0.7-0.4-1,0.6c-0.3,0-0.5,0.7-0.6,0.9c-0.1,0.2-0.3,1.9-0.3,1.1
		c0-0.6,1.7-0.6,3.3,0C-53.6,120-51.9,119.3-51.9,120.6z"/>
	<path id="XMLID_9_" class="st1" d="M-43.4,110.9c0,0.5,5-0.7,5-0.7s0,5.2,0,4.4c0,0.8,1.5,0,3,0s3,0,3,0v3.5c0,0-1.5,0-3,0
		s-3-0.4-3,0c0-1.4,0,1.6,0,2.6c0,2.5,0,2.3,0,2.6c0,0.3,0.2,1.6,0.6,2.1c0.4,0.5,1.1,0.8,2.2,0.8c0.5,0,1.1,0,1.7-0.1
		c0.6-0.1,1.1-0.2,1.6-0.4l0.7,3.3c-0.6,0.2-1.3,0.4-2,0.5c-0.7,0.2-1.6,0.2-2.7,0.2c-1.4,0-2.5-0.2-3.4-0.5
		c-0.9-0.3-1.6-0.9-2.2-1.3c-0.5-0.2-0.9-0.7-1.1-2c-0.2-0.9-0.3-0.3-0.3-2.6c0-1,0-2,0-6.3C-43.4,113.6-43.4,110.7-43.4,110.9z"/>
	<path id="XMLID_11_" class="st1" d="M-23.2,126.5c0.9,0,1.6-0.1,2-0.2c0.4-0.2,0.6-0.4,0.6-0.9c0-0.3-0.2-0.6-0.7-0.9
		c-0.5-0.3-1.2-0.5-2.3-0.9c-0.8-0.2-1.5-0.5-2.1-0.8c-0.6-0.3-1.2-0.6-1.6-1c-0.4-0.4-0.8-0.8-1-1.3c-0.2-0.5-0.4-1.1-0.4-1.8
		c0-1.4,0.6-2.5,1.9-3.3c1.2-0.8,2.9-1.2,5.1-1.2c1.1,0,2.1,0.1,3.1,0.2c1,0.2,1.8,0.3,2.4,0.5l-0.9,3.3c-0.6-0.2-1.2-0.3-1.9-0.5
		c-0.7-0.1-1.5-0.2-2.3-0.2c-1.6,0-2.4,0.4-2.4,1.1c0,0.2,0,0.3,0.1,0.5c0.1,0.1,0.2,0.3,0.4,0.4c0.2,0.1,0.5,0.3,0.8,0.4
		c0.3,0.1,0.8,0.3,1.3,0.5c1.1,0.3,2,0.7,2.7,1c0.7,0.3,1.3,0.7,1.7,1.1c0.4,0.4,0.7,0.8,0.9,1.3c0.2,0.5,0.3,1,0.3,1.6
		c0,1.5-0.7,2.6-2,3.3c-1.3,0.8-3.2,1.1-5.6,1.1c-1.6,0-2.9-0.1-3.9-0.3c-1-0.2-1.8-0.4-2.2-0.6l0.8-3.4c0.9,0.3,1.7,0.5,2.6,0.7
		C-25,126.4-24.1,126.5-23.2,126.5z"/>
	<path id="XMLID_13_" class="st1" d="M12.6,122.1c0,1.4-0.2,3.1-0.6,3.2c-0.4,1.7-1,1.2-1.8,2.5c-0.8-0.3-1.8,3-2.9,1.6
		c-1.1,0.7-2.4-1-3.9,0.6c-0.6,0.2-1.2,0.1-1.9-0.1c-0.7-0.1-1.3-0.1-2-0.2c-0.6,0.9-1.3-0.5-1.8-0.3c-0.6-0.1-1.1-0.2-1.5-0.3
		c0,0,0-0.8,0-5.4c0-3.9,0-7.2,0-10c0-3.1,0-5.4,0-5.4c0,0,5-0.1,5-0.7c0-0.2,0,2.4,0,3.7c0,2.9,0,3.3,0,3.7
		c0.6-0.2,1.1-1.1,1.8-0.5c0.6-0.9,1.3-1.4,2-0.2c1.3,1.5,2.4-1,3.3,0.6c1-0.8,1.8-1.2,2.4,1.6c0.7,0.3,1.1-0.6,1.5,2.5
		C12.4,121.2,12.6,121.7,12.6,122.1z M7.5,122c0-2.7-0.3-2.7-0.9-3.1c-0.6-1.5-1.5-0.4-2.7-1c-0.5-0.3-1,0.4-1.5,0.2
		c-0.5,0.2-0.9,1.5-1.2,0.4c0,0.9,0,1.7,0,3.8c0,2.9,0,3.3,0,3.8c0.2,0,0.6,2.4,0.9,0.1c0.4,0,0.8,0.6,1.2,0
		c1.4,0.1,2.4-1.4,3.1-1.2C7.1,122.8,7.5,121.9,7.5,122z"/>
	<path id="XMLID_16_" class="st1" d="M31.6,129c-0.9,0.3-2-0.8-3.3,0.6c-1.3,1.4-2.8-0.7-4.2,0.3c-1.5,0.1-2.8,1.7-3.8-0.5
		c-1,0.1-1.8-0.4-2.4-1.4c-0.6-0.8-1,0.1-1.2-2.2c-0.2-0.9-0.4-2-0.4-2.8c0-1.4,0-1.3,0-4.2c0-2.3,0-5.1,0-4.2c0,1,5,1.6,5,0
		c0,0.4,0,1.9,0,3.9c0,1,0,4.2,0,3.9c0,2.2,0.2,2.4,0.6,3c0.4,0.2,1.2,1,2.4,0.9c0.4-1.7,0.7-1,1.1,0c0.4-1.4,0.8,0.5,1.1-0.1
		c0,0,0-2.3,0-5.8c0-4.4,0-7,0-5.8c0,1,5-0.4,5,0c0-0.5,0,2.4,0,7.2C31.6,126.2,31.6,128.8,31.6,129z"/>
	<path id="XMLID_18_" class="st1" d="M41.8,110.3c0,0.8-0.3,1.3-0.9,1.8c-0.6,0.4-1.3,0.7-2.1,0.7c-0.8-0.9-1.5,2.3-2.1-0.7
		c-0.6-2-0.9-1.9-0.9-1.8c0-1.3,0.3-1.9,0.9-1.8c0.6-0.4,1.3-0.7,2.1-0.7c0.8,0,1.5,0.2,2.1,0.7C41.5,108.9,41.8,109.5,41.8,110.3z
		 M41.3,129.5c0-0.5-5,1.1-5,0c0,0.7,0-2.1,0-3.9c0-1.9,0-4.6,0-7.2c0-2.8,0-4.7,0-3.9c0-0.7,5-1.1,5,0c0-0.6,0,2.5,0,3.9
		c0,1,0,5.6,0,7.2C41.3,128.1,41.3,129.4,41.3,129.5z"/>
	<path id="XMLID_21_" class="st1" d="M53.1,129.8c-1.5,0.1-2.6,0.8-3.6-0.4c-0.9-0.3-1.6-1.5-2.2-1c-0.5,0.6-0.9-1.3-1.1-1.6
		c-0.2-1.1-0.3-2.1-0.3-2.1c0-0.8,0-0.8,0-4.3c0-1.8,0-5.1,0-7.9c0-3.5,0-5.4,0-4.3c0-1.1,5-1.1,5-0.7c0-0.7,0,2.5,0,4.2
		c0,2.5,0,6.4,0,7.8c0,2.7,0,3.6,0,4.2c0,0.3,0,1.4,0.1,1c0.1,1,0.2-0.8,0.4,0.8c0.2,1.7,0.5-0.7,0.8,0.5c0.4,0.4,0.8-0.6,1.4,0.3
		C53.8,127.7,53.1,130.2,53.1,129.8z"/>
	<path id="XMLID_23_" class="st1" d="M72.3,129.1c-0.4,0.6-1,0-1.5,0.3c-0.6,1-1.2,0.2-1.8,0.3c-0.6-0.6-1.3,1.1-2,0.2
		c-0.7-1.2-1.3,0.1-1.9,0.1c-1.5,0.3-2.8-0.6-3.9-0.5c-1.1-0.6-2.1-1.5-2.9-1.5c-0.8-0.8-1.4-2.1-1.8-2.4c-0.4-2.5-0.6-1.8-0.6-3.2
		c0-1,0.2-2.8,0.5-3.3c0.4-1.4,0.9-2.1,1.5-2.5c0.7,0.1,1.5-1.8,2.5-1.6c1-1,2.1-0.4,3.4-0.5c0.7,1.5,1.3-1.5,1.9,0.2
		c0.5,0.9,1.1,1.1,1.7,0.5c0-0.6,0-2.4,0-3.4c0-2.7,0-2.5,0-3.4c0,0.9,5,0.3,5-0.7c0,0,0,2.7,0,5.6c0,2.5,0,7,0,10.4
		C72.3,126.5,72.3,129.8,72.3,129.1z M61,122c0,0.6,0.3,3.1,1,3.1c0.7,0.1,1.7,0.4,3.1,1.2c0.4-0.3,0.9-0.3,1.2,0
		c0.4-2,0.7,0.5,0.9-0.1c0-0.8,0-1.7,0-3.8c0-1.8,0-4,0-3.8c-0.3,0.9-0.7-1.7-1.2-0.4c-0.5,0.5-1-1.2-1.5-0.2
		c-1.2-0.7-2.1,1.1-2.7,1C61.2,120.9,61,121,61,122z"/>
	<path id="XMLID_26_" class="st1" d="M-59.1,148.3c1.5-0.3,2.7-1.5,3.7,0.4c1-0.6,1.8-0.7,2.4,1.2c0.6-0.4,1,2.1,1.3,1.9
		c0.2-0.4,0.4-0.9,0.4,2.5c0,0.8,0,2.2,0,4.4c0,2.9,0,3.8,0,4.4c-0.7,0.3-1.7,0.3-3,0.5c-1.3,0.4-2.8-0.5-4.6,0.3
		c-1.1,0-2.2,0.5-3.1-0.3c-0.9-1.1-1.7,0.4-2.4-0.8c-0.7-0.4-1.2-2.1-1.5-1.5c-0.4,0.7-0.5,0.4-0.5-2.3c0-2.4,0.2-1.2,0.6-2.2
		c0.4,1.7,1-2,1.7-1.4c0.7-2.9,1.5-1,2.4-0.8c0.9,0.3,1.8,1.1,2.8-0.2c0.7,2.7,1.2-0.8,1.7,0.1c0.5,0.9,0.9,0.7,1.2,0.2
		c0,0.6,0-2,0-0.4c0-0.5-0.3-0.9-0.8-1.7c-0.5,0.1-1.4-1.2-2.7-0.7c-0.9,0.5-1.7,2.3-2.5,0.2c-0.8,0.3-1.5,0.9-2.2,0.4
		c0-1-0.6-3.1-0.6-3.4c0.3-1.3,0.7,1.7,1.1-0.2c0.4-0.2,0.9-0.4,1.4-0.2c0.5,0.3,1.1,3.1,1.6-0.2C-60.2,148.5-59.7,148.2-59.1,148.3
		z M-58.7,160.6c0.5,1.8,1-1.6,1.4,0c0.4,0.1,0.8-1,1.1-0.1c0,1.2,0-4.6,0-3.2c-0.2,1.3-0.5-1.4-0.9-0.1c-0.4-1.5-0.8,0.2-1.1-0.1
		c-0.5-0.9-0.9,0.4-1.3,0.1c-0.4-0.9-0.8,0.1-1.1,0.3c-0.3,1-0.6,0.7-0.7,0.5c-0.2,0.1-0.3,1.6-0.3,0.9c0,0.2,0.3,0.3,0.8,1.4
		C-60.3,160.9-59.6,161.8-58.7,160.6z"/>
	<path id="XMLID_29_" class="st1" d="M-46.8,149.2c0.9-0.4,2-0.2,3.3-0.6c1.3-1.9,2.8,0.8,4.2-0.3c1.5,0.7,2.8-0.2,3.8,0.5
		c1,0.1,1.8,1.4,2.4,1.4c0.6-0.9,1,2.1,1.2,2.2c0.2-0.6,0.4,0,0.4,2.8c0-1.2,0,1.9,0,4.2c0,1.7,0,3.1,0,4.2c0,0.2-5-0.7-5,0
		c0-1,0-3.3,0-4c0-2,0-1.8,0-4c0,0-0.2-4-0.6-2.9c-0.4-1.4-1.2-3.1-2.4-0.9c-0.4-1-0.7-1.6-1.1,0c-0.4-0.9-0.8,1.7-1.1,0.1
		c0,0.9,0,4.2,0,5.8c0,2.6,0,7.5,0,5.8c0,1-5,2-5,0c0-0.1,0-3.1,0-7.2C-46.8,153.9-46.8,151.7-46.8,149.2z"/>
	<path id="XMLID_31_" class="st1" d="M-12.6,148.3c1.5,0,2.7,0.1,3.7,0.4c1,0.3,1.8,0.7,2.4,1.2c0.6,0.5,1,1.2,1.3,1.9
		c0.2,0.8,0.4,1.6,0.4,2.5v8.8c-0.7,0.1-1.7,0.3-3,0.5c-1.3,0.2-2.8,0.3-4.6,0.3c-1.1,0-2.2-0.1-3.1-0.3c-0.9-0.2-1.7-0.4-2.4-0.8
		c-0.7-0.4-1.2-0.9-1.5-1.5c-0.4-0.6-0.5-1.4-0.5-2.3c0-0.9,0.2-1.6,0.6-2.2c0.4-0.6,1-1.1,1.7-1.4c0.7-0.4,1.5-0.6,2.4-0.8
		c0.9-0.2,1.8-0.2,2.8-0.2c0.7,0,1.2,0,1.7,0.1c0.5,0,0.9,0.1,1.2,0.2v-0.4c0-0.7-0.3-1.3-0.8-1.7c-0.5-0.4-1.4-0.7-2.7-0.7
		c-0.9,0-1.7,0.1-2.5,0.2c-0.8,0.1-1.5,0.3-2.2,0.4l-0.6-3.4c0.3-0.1,0.7-0.2,1.1-0.2c0.4-0.1,0.9-0.2,1.4-0.2
		c0.5-0.1,1.1-0.1,1.6-0.2C-13.7,148.3-13.1,148.3-12.6,148.3z M-12.1,160.6c0.5,0,1,0,1.4,0c0.4,0,0.8,0,1.1-0.1v-3.2
		c-0.2,0-0.5-0.1-0.9-0.1c-0.4,0-0.8-0.1-1.1-0.1c-0.5,0-0.9,0-1.3,0.1c-0.4,0-0.8,0.1-1.1,0.3c-0.3,0.1-0.6,0.3-0.7,0.5
		c-0.2,0.2-0.3,0.5-0.3,0.9c0,0.7,0.3,1.1,0.8,1.4C-13.8,160.5-13.1,160.6-12.1,160.6z"/>
	<path id="XMLID_34_" class="st1" d="M16.2,156.1c0,1-0.2,2.4-0.5,3.1c-0.3,2.5-0.8,0.7-1.5,2.4c-0.7,0.9-1.5,1.1-2.4,1.6
		c-1-0.6-2.1,0.9-3.3,0.6c-0.7,1.6-1.3-1-2-0.2c-0.6,0.8-1.2-0.8-1.8-0.5c0,0.9,0,1.1,0,2.8c0,1.3,0,2.5,0,2.8c0-1.7-5,0-5,0v-19.7
		c0.4-0.1,1-0.2,1.5-0.3c0.6-0.1,1.2-0.2,1.8-0.3c0.6-0.1,1.3-0.1,2-0.2c0.7,0,1.3-0.1,1.9-0.1c1.5,0,2.8-0.3,3.9,0.6
		c1.1,1.7,2.1,1.7,2.9,1.6c0.8,0.8,1.4,1.6,1.8,2.5C16,153.6,16.2,154.9,16.2,156.1z M11.1,156.2c0-1.2-0.3-2-1-3.1
		c-0.7-1.2-1.7-1.5-3.1-1.2c-0.4-0.7-0.9,1.6-1.2,0c-0.4,0-0.7,0.1-0.9,0.1c0,0,0,3.5,0,3.8c0,2.4,0,4,0,3.8
		c0.3,1.3,0.7-0.4,1.2,0.4c0.5,1.1,1-0.9,1.5,0.2c1.2,0.7,2.1-0.2,2.7-1C10.8,159.9,11.1,157.5,11.1,156.2z"/>
	<path id="XMLID_37_" class="st1" d="M36.5,156.1c0,2.1-0.2,3.2-0.5,3.1c-0.3,1.6-0.8,2.5-1.5,2.4c-0.7-0.8-1.5,2.8-2.4,1.6
		c-1,1-2.1,0.8-3.3,0.6c-0.7-0.5-1.3,1.2-2-0.2c-0.6-0.1-1.2-0.4-1.8-0.5c0-0.4,0,0.9,0,2.8c0,1.3,0,2.7,0,2.8c0,0.5-5-0.5-5,0
		c0-0.1,0-1.6,0-5.1c0-3.8,0-7.6,0-9.5c0-1.8,0-4.2,0-5.1c0.4-1.4,1,0.8,1.5-0.3c0.6,0.6,1.2-0.1,1.8-0.3c0.6,1.4,1.3-1.7,2-0.2
		c0.7,1.1,1.3-1.2,1.9-0.1c1.5-0.2,2.8,1.8,3.9,0.6c1.1,0.1,2.1,0.5,2.9,1.6c0.8,0.8,1.4,0.6,1.8,2.5
		C36.3,153.5,36.5,155.1,36.5,156.1z M31.4,156.2c0-1.4-0.3-3.1-1-3.1c-0.7-1.7-1.7-0.7-3.1-1.2c-0.4,1.3-0.9,1.1-1.2,0
		c-0.4,1.5-0.7-0.3-0.9,0.1c0,1.2,0,1.6,0,3.8c0,2.4,0,4.4,0,3.8c0.3-1.3,0.7,1.5,1.2,0.4c0.5,0.4,1,0.7,1.5,0.2
		c1.2,1.1,2.1-0.6,2.7-1C31.1,159,31.4,158.2,31.4,156.2z"/>
</g>
<g id="XMLID_1_">
	<path id="XMLID_46_" class="st0" d="M100.9,157.6c0.5-1,0.6,3.6,0.6,3.6c-0.1,1.8-0.3,2.7-0.8,3.2c-0.4-0.5-1.2,1.1-2.1,2.6
		c-1,2.7-2,0.6-3.3,1.9c-1.4,2.1-2.5,0.4-3.7,0.7c-1.1-1.1-2.2-2.3-3.3-0.7c-1,0.5-1.8-3.2-2.7-2c-0.8,0.5-1.4-1.6-1.8-3.1
		c-0.4-1.4-0.6-2.9-0.5-3.6c0,0.8,0.2,0.9,0.9-3.2c0.5-0.1,1.2-1.2,2.1-2.6c1-2.1,2-0.7,3.2-1.8c1.2,0.6,2.5-2.1,3.7-0.7
		c1.3-1.8,2.3-0.2,3.3,0.7c1.1-0.7,1.9,0.8,2.7,1.9C99.8,155,100.5,154.9,100.9,157.6z M95.8,159.5c-0.4-2.3-1.1-2.9-2.1-2.9
		c-0.8-2.7-2,2.2-3-0.2c-1.1-0.6-1.8-0.2-2.2,2.1c-0.3,1-0.3,3.8,0.2,3.5c0.6-0.3,1.2,2.2,2.1,2.9c0.9,0.2,1.8,3.7,3.1,0.3
		c1.2-1.4,1.8-0.8,2.2-2.1C96.4,161.4,96.3,159.9,95.8,159.5z"/>
	<path id="XMLID_44_" class="st0" d="M108.9,152.4c0.3,1,0.7-2.4,1-2c0.4-2.4,0.7-2.8,1-2c0.3-1.6,0.6-1.4,0.9-1.9
		c0.3-1.3,0.4,0.6,0.7-1.6c0-1.1,1.5-0.3,2.9-1.1c1.4,0.2,2.9,1.1,2.9-1.1c-0.8,3-1.5,2.8-2.2,4.7c-0.7-0.1-1.6,4.8-2.5,4.7
		c0.9-0.1,1.8-1.3,2.7,1.2c1-0.6,1.9,1.7,2.9,1.5c0.9,0.5,1.8,1.2,2.7,1.7c0.8,1.3,1.5,2.1,2.2,1.7c0-0.7-5.7,1.5-5.7,2
		c-0.6,0.7-1.1-2.5-1.8-1.3c-0.7-0.2-1.4-1.3-2.1-1.3c-0.7-1.7-1.5,0.3-2.2-1.2c-0.7-0.9-1.5,0.1-2.2-0.8c-0.1,3.2,0.6,2.9,1.2,3.4
		c0.6,1,1.2,4.6,1.2,3.4c0-0.7-4.9,0.6-4.9,1.8c0,1.1-0.8-3.3-2.1-5.7c-1.2-2-2.7-7.2-3.8-10.6c-1.2-3.5-2.1-5.1-2.1-5.7
		c0,0.2,4.6-0.2,4.7-2.5c0,0.3,1.2,1.3,2.3,6.5C107.7,149.2,108.9,151.2,108.9,152.4z"/>
	<path id="XMLID_41_" class="st0" d="M134.9,139.8c0.2,3.2,0.2,3.2-0.2,2.4c-0.4-0.6-1.1,0.9-1.9,1.5c-0.8-0.3-1.5-1.2-2.4,0.1
		c-0.8,0.3-1.3-1.7-1.7-1.7c-0.2-2.6-0.2-2,0.2-2.4c0.5-0.7,1.1-0.1,1.9-1.5c0.8-1,1.7-3.2,2.4-0.1
		C134.1,138.5,134.6,140.5,134.9,139.8z M138.7,150.2c0.4-0.3,0.3,1.1-0.2,2.4c-0.5,1.2-1.2,3.3-1.9,1.5c-0.8-0.1-1.6,0.2-2.4,0.1
		c-0.8,0.2-1.3-1.2-1.7-1.7c-0.4,0-0.2-3.2,0.2-2.4c0.4,0.9,1.1-2,1.9-1.5c0.8-0.9,1.6,0,2.4-0.1
		C137.8,149.4,138.3,150.7,138.7,150.2z"/>
	<path id="XMLID_2_" class="st0" d="M142,141.8c-0.3-3.9-1-1.5-1.5-3.3c-0.6-0.6-1.3-1.2-2.1-2.9c-0.7-2.3-1.7-0.8-2.5-2.5
		c-0.9-0.4-1.8-1.2-2.8-2c0,0.4,2.8-3.8,2.7-3.2c1.2,2,2.5,2.3,3.6,2.2c1.2-2.1,2.2-0.2,3.1,2.8c0.9,1.1,1.7,4.7,2.5,3.3
		c0.7,0.5,1.3,3.2,1.8,3.8c0.5,0.7,0.9,2,1,4.1c0.1,3.3,0.3,2.2,0.2,4.1c-0.1,0.7-0.3,2.8-0.6,4.1c-0.4,2.6-0.8,2.4-1.4,4
		c0-1.1-4.2-0.5-4.2-0.7c0.4-2.1,0.7-2.7,0.8-3.3c0.2,0,0.4-3.4,0.3-3.5c0.1-2.8-0.1-2.1-0.2-3.6C142.6,145.8,142.3,146,142,141.8z"
		/>
</g>
</svg>
