<?xml version="1.0" encoding="utf-8"?>
<!-- Generator: Adobe Illustrator 19.0.0, SVG Export Plug-In . SVG Version: 6.00 Build 0)  -->
<svg version="1.1" id="Capa_1" xmlns="http://www.w3.org/2000/svg" xmlns:xlink="http://www.w3.org/1999/xlink" x="0px" y="0px"
	 viewBox="-223 25 512 512" style="enable-background:new -223 25 512 512;" xml:space="preserve">
<style type="text/css">
	.st0{fill:#00CAF7;}
	.st1{fill:#D1FF1A;}
</style>
<g>
	<g>
		<path class="st0" d="M-105.2,196.4l34.1,5.9c-2.6-8.4-4.3-17.3-5-26.4l31.7,4.6v19.4h83.1v-13.7h14.7v13.7h83.1v-18.9l26.5-4.1
			c-0.3,6.4-1.1,13.2-2.4,20.1l26.3-5C181.3,121,154.1,25,41.4,25c-16,0-34.7,2-42.8,5.6c-8.1,3.6-9.6,11.9-14.8,13.7
			c-5.5,1.8-13.2,1.1-18,3.4c-75.1,36.2-72.5,124.3-72.5,124.3L-105.2,196.4z M29.4,190.5h-64.7v-32.9h64.7V190.5z M127.2,190.5
			H62.5v-32.9h64.6V190.5z M-75.7,154.7c33.4-2.3,71.2-28.6,74.1-65.2c42.3,35,102.2,36.7,152.2,41.2c6.2,2.9,10.8,15.5,12.1,32.1
			l-26.2,4.1v-18.5H53.3v19.2H38.6v-19.2h-83.1v18l-32.1-4.6C-76.3,159.4-76,157.1-75.7,154.7z"/>
		<path class="st0" d="M241,364.1c0-17.3-7-32.4-17.3-41V199.6l-188.4,30l-188.5-30v120.2c-12.9,7.6-21.9,24.5-21.9,44.3
			c0,19.7,9,36.6,21.9,44.2V507l188.5,30l188.4-30V405.1C234.1,396.4,241,381.3,241,364.1z M26.8,518.3L-136,492.4v-79.9
			c19.6-1.3,35.3-22.4,35.3-48.4c0-26-15.6-47.1-35.3-48.4v-96l162.8,26V518.3z M206.6,492.4L43.8,518.3V245.6l162.8-26V254v61.8
			c-0.9-0.1-1.8-0.3-2.7-0.3c-20.5,0-37.1,21.8-37.1,48.6c0,26.9,16.6,48.6,37.1,48.6c1,0,1.8-0.3,2.7-0.3V492.4z"/>
	</g>
</g>
<g>
	<g>
		<path class="st1" d="M-78.8,281.5v-28c0-0.9-0.1-1.5-0.6-2l-12.5-13c-0.4-0.4-0.9-0.6-1.4-0.6h-31.1c-1.3,0-2.6,1-2.6,3.3v40.4
			H-78.8z M-93.8,241.6c0-0.5,0.6-0.8,0.9-0.4l10.8,11.3c0.3,0.4,0.1,1-0.4,1h-11.4V241.6z M-96.7,258.7c-0.4-0.4-0.4-1.1,0-1.6
			c0.4-0.4,1.1-0.4,1.5,0l6.4,6.7c0.4,0.4,0.4,1.1,0,1.6l-6.4,6.7c-0.2,0.2-0.5,0.3-0.8,0.3c-0.3,0-0.5-0.1-0.8-0.3
			c-0.4-0.4-0.4-1.1,0-1.6l5.7-5.9L-96.7,258.7z M-116,263.9l6.4-6.7c0.4-0.4,1.1-0.4,1.5,0c0.4,0.4,0.4,1.1,0,1.6l-5.7,5.9l5.7,5.9
			c0.4,0.4,0.4,1.1,0,1.6c-0.2,0.2-0.5,0.3-0.8,0.3c-0.3,0-0.5-0.1-0.8-0.3l-6.4-6.7C-116.4,265-116.4,264.3-116,263.9z"/>
		<path class="st1" d="M-127,283.7v16.8c0,1.1,1.3,2.2,2.6,2.2h43c1.3,0,2.6-1.1,2.6-2.2v-16.8H-127z M-114.2,298.3h-1.8v-5.1h-4.7
			v5.1h-1.8V287h1.8v4.9h4.7V287h1.8V298.3z M-103.9,288.3h-3.2v10h-1.8v-10h-3.2V287h8.2L-103.9,288.3L-103.9,288.3z M-91.8,298.3
			h-1.8v-7.8l-2.4,6.3h-1.6l-2.4-6.3v7.8h-1.8V287h1.8l3.2,7.7l3.2-7.7h1.8L-91.8,298.3L-91.8,298.3z M-82.3,298.3h-6.8V287h1.8v9.9
			h5V298.3z"/>
	</g>
	<g>
	</g>
	<g>
	</g>
	<g>
	</g>
	<g>
	</g>
	<g>
	</g>
	<g>
	</g>
	<g>
	</g>
	<g>
	</g>
	<g>
	</g>
	<g>
	</g>
	<g>
	</g>
	<g>
	</g>
	<g>
	</g>
	<g>
	</g>
	<g>
	</g>
</g>
<g>
	<g id="XMLID_1_">
		<path id="XMLID_18_" class="st1" d="M168.9,244.9c-3.8,2.5-8.1,5.4-10.4,10.2c-4,8.3,8.2,17.3,8.7,17.7c0.1,0.1,0.3,0.1,0.4,0.1
			c0.2,0,0.3,0,0.4-0.1c0.2-0.2,0.3-0.5,0.2-0.8c0-0.1-4.4-8.2-4.2-13.9c0.1-2,3-4.3,6.2-6.7c2.9-2.2,6.1-4.7,8-7.7
			c4.2-6.5-0.5-12.8-0.5-12.9c-0.2-0.2-0.5-0.3-0.8-0.2c-0.3,0.1-0.5,0.4-0.4,0.7c0,0,0.9,4.3-1.6,8.6
			C173.9,241.6,171.6,243.1,168.9,244.9z"/>
		<path id="XMLID_17_" class="st1" d="M184.9,247.7c0.3-0.2,0.3-0.5,0.2-0.8c-0.2-0.3-0.5-0.4-0.8-0.3c-0.6,0.2-15.7,5.8-15.7,12.5
			c0,4.6,2.1,7.1,3.6,8.8c0.6,0.7,1.1,1.3,1.3,1.8c0.5,1.5-0.7,4.2-1.1,5.1c-0.1,0.3-0.1,0.6,0.2,0.8c0.1,0.1,0.3,0.2,0.4,0.2
			c0.1,0,0.3,0,0.4-0.1c0.3-0.2,6.3-4.3,5.3-9.2c-0.4-1.9-1.4-3.2-2.2-4.5c-1.3-1.9-2.3-3.2-0.8-5.7
			C177.1,253.3,184.8,247.8,184.9,247.7z"/>
		<path id="XMLID_16_" class="st1" d="M145.6,275.9c-0.3,0.7-0.1,1.5,0.4,2.1c1.6,2.2,7.4,3.4,16.3,3.4c0,0,0,0,0,0
			c1.2,0,2.5,0,3.8-0.1c14.2-0.5,19.5-4.7,19.7-4.9c0.2-0.2,0.3-0.5,0.2-0.8c-0.1-0.3-0.5-0.4-0.8-0.3c-5,1.3-14.3,1.8-20.8,1.8
			c-7.3,0-10.9-0.5-11.9-0.9c0.5-0.6,3.3-1.7,6.9-2.4c0.3-0.1,0.6-0.4,0.5-0.7c0-0.3-0.3-0.6-0.7-0.6
			C157.1,272.6,146.7,272.7,145.6,275.9z"/>
		<path id="XMLID_6_" class="st1" d="M193.1,271.5c-2.9,0-5.7,1.4-5.8,1.5c-0.3,0.1-0.4,0.4-0.3,0.7c0.1,0.3,0.3,0.5,0.7,0.5
			c0.1,0,6.3,0,6.8,3.4c0.5,2.9-5.9,7.6-8.3,9.2c-0.3,0.2-0.4,0.5-0.2,0.8c0.1,0.2,0.4,0.4,0.6,0.4c0,0,0.1,0,0.1,0
			c0.6-0.1,14.5-3,13-10.7C198.7,272.5,195.6,271.5,193.1,271.5z"/>
		<path id="XMLID_5_" class="st1" d="M183.6,285.8c0-0.2-0.1-0.5-0.3-0.6L180,283c-0.2-0.1-0.4-0.1-0.6-0.1c0,0-3.5,0.9-8.6,1.4
			c-2,0.2-4.2,0.3-6.5,0.3c-5,0-8.3-0.6-8.8-1c-0.1-0.1,0-0.2,0-0.2c0.1-0.2,0.6-0.5,0.9-0.6c0.3-0.1,0.5-0.5,0.4-0.8
			c-0.1-0.3-0.5-0.5-0.8-0.4c-3.3,0.8-5,1.8-4.8,3.2c0.2,2.4,6,3.6,10.9,3.9c0.7,0,1.5,0.1,2.3,0.1c0,0,0,0,0,0
			c8.2,0,18.6-2.4,18.7-2.5C183.4,286.3,183.6,286.1,183.6,285.8z"/>
		<path id="XMLID_4_" class="st1" d="M158.6,291c0.3-0.2,0.4-0.5,0.3-0.7c-0.1-0.3-0.4-0.5-0.7-0.4c-0.4,0-4.4,0.2-4.6,2.6
			c-0.1,0.7,0.1,1.4,0.6,1.9c1.4,1.6,5.2,2.5,11.6,2.9c0.8,0,1.5,0.1,2.3,0.1c8.2,0,13.7-2.4,13.9-2.5c0.2-0.1,0.4-0.3,0.4-0.5
			c0-0.2-0.1-0.5-0.3-0.6l-4.2-2.4c-0.1-0.1-0.3-0.1-0.5-0.1c0,0-2.7,0.5-6.7,1.1c-0.8,0.1-1.7,0.1-2.8,0.1c-4,0-8.5-0.6-9.4-1
			C158.4,291.1,158.5,291.1,158.6,291z"/>
		<path id="XMLID_3_" class="st1" d="M164.3,304.6c18.7,0,28.7-3.2,30.6-5.2c0.7-0.7,0.8-1.4,0.7-1.8c-0.1-1.1-1.2-1.7-1.3-1.8
			c-0.3-0.2-0.7-0.1-0.9,0.1c-0.2,0.2-0.2,0.6,0,0.8c0.1,0.1,0.2,0.4-0.2,0.7c-0.8,0.7-8.6,2.8-21.5,3.4c-1.8,0.1-3.6,0.1-5.5,0.1
			c-11.6,0-20.1-1.5-21.2-2.4c0.4-0.6,3.4-1.5,6.6-2.1c0.4-0.1,0.6-0.4,0.5-0.7c-0.1-0.3-0.4-0.6-0.8-0.5c-0.1,0-0.4,0-0.8,0
			c-5.3,0.3-11.4,1-11.7,3.6c-0.1,0.8,0.1,1.5,0.7,2.1C141.2,302.6,145.3,304.6,164.3,304.6C164.3,304.6,164.3,304.6,164.3,304.6z"
			/>
		<path id="XMLID_2_" class="st1" d="M198.6,300c-0.3-0.1-0.6-0.1-0.8,0.1c0,0-2.8,2.8-11.3,4.5c-3.2,0.6-9.3,0.9-18,0.9
			c-8.8,0-17.1-0.3-17.2-0.3c-0.3,0-0.6,0.2-0.7,0.6c0,0.3,0.2,0.6,0.5,0.7c0.1,0,8.8,2,20.8,2c5.7,0,11.3-0.4,16.6-1.3
			c9.8-1.6,10.5-6.3,10.5-6.5C199,300.4,198.9,300.1,198.6,300z"/>
	</g>
	<g>
	</g>
	<g>
	</g>
	<g>
	</g>
	<g>
	</g>
	<g>
	</g>
	<g>
	</g>
	<g>
	</g>
	<g>
	</g>
	<g>
	</g>
	<g>
	</g>
	<g>
	</g>
	<g>
	</g>
	<g>
	</g>
	<g>
	</g>
	<g>
	</g>
</g>
<g>
	<path class="st1" d="M2.3,360h-36.5c-2.1,0-3.8,1.7-3.8,3.8v68.5c0,2.1,1.7,3.8,3.8,3.8h48c2.1,0,3.8-1.7,3.8-3.8v-57.1L2.3,360z
		 M-14.3,408.2c-1.8,1.4-3.9,2.1-6.2,2.1c-5.8,0-10.6-5.1-10.6-11.4s4.7-11.4,10.6-11.4c2.2,0,4.4,0.7,6.2,2.1
		c1.2,0.9,1.4,2.6,0.5,3.8c-0.9,1.2-2.7,1.4-3.9,0.5c-0.8-0.6-1.8-1-2.8-1c-2.8,0-5.1,2.7-5.1,5.9c0,3.3,2.3,5.9,5.1,5.9
		c1,0,2-0.3,2.8-1c1.2-0.9,2.9-0.7,3.9,0.5C-12.9,405.6-13.1,407.3-14.3,408.2z M-5.3,401h-2v2c0,1.1-0.9,2-2.1,2s-2.1-0.9-2.1-2v-2
		l-2,0c-1.1,0-2.1-0.9-2.1-2s0.9-2,2.1-2l2,0v-2c0-1.1,0.9-2,2.1-2s2.1,0.9,2.1,2v2l2,0c1.1,0,2.1,0.9,2.1,2
		C-3.3,400.1-4.2,401-5.3,401z M7.8,401h-2v2c0,1.1-0.9,2-2.1,2c-1.1,0-2.1-0.9-2.1-2v-2l-2,0c-1.1,0-2.1-0.9-2.1-2s0.9-2,2.1-2l2,0
		v-2c0-1.1,0.9-2,2.1-2c1.1,0,2.1,0.9,2.1,2v2l2,0c1.1,0,2.1,0.9,2.1,2C9.9,400.1,9,401,7.8,401z M0.9,377.5c-0.7,0-1.2-0.5-1.2-1.2
		v-11.5l12.9,12.7H0.9z"/>
	<g>
	</g>
	<g>
	</g>
	<g>
	</g>
	<g>
	</g>
	<g>
	</g>
	<g>
	</g>
	<g>
	</g>
	<g>
	</g>
	<g>
	</g>
	<g>
	</g>
	<g>
	</g>
	<g>
	</g>
	<g>
	</g>
	<g>
	</g>
	<g>
	</g>
</g>
<g>
	<g>
		<path class="st1" d="M69.9,414v19.1c0,1.3,1.5,2.5,2.9,2.5h47.7c1.5,0,2.9-1.3,2.9-2.5V414H69.9z M94.3,427.4
			c0,0.6-0.1,1.1-0.3,1.5c-0.2,0.4-0.5,0.7-0.8,1c-0.3,0.2-0.7,0.4-1.2,0.5c-0.4,0.1-0.9,0.1-1.4,0.1c-0.2,0-0.5,0-0.8-0.1
			c-0.3-0.1-0.7-0.1-1-0.2s-0.7-0.2-1-0.4c-0.3-0.1-0.6-0.3-0.8-0.5l0.8-1.4c0.1,0.1,0.3,0.2,0.5,0.3c0.2,0.1,0.4,0.2,0.7,0.2
			c0.2,0.1,0.5,0.1,0.7,0.2c0.3,0.1,0.5,0.1,0.7,0.1c0.6,0,1-0.1,1.4-0.4c0.3-0.2,0.5-0.6,0.5-1.2v-9.8h2V427.4z M103.7,428.3
			c-0.2,0.4-0.4,0.8-0.8,1.1c-0.3,0.3-0.7,0.6-1.2,0.8c-0.5,0.2-1,0.3-1.6,0.3c-0.3,0-0.5,0-0.8,0c-0.3,0-0.6-0.1-0.8-0.1
			c-0.3-0.1-0.6-0.2-0.8-0.3c-0.3-0.1-0.5-0.3-0.7-0.4l0.3-1.5c0.2,0.1,0.3,0.2,0.6,0.3s0.5,0.2,0.7,0.2c0.2,0.1,0.5,0.1,0.7,0.2
			c0.2,0,0.5,0.1,0.7,0.1c0.7,0,1.2-0.2,1.5-0.5c0.4-0.3,0.5-0.8,0.5-1.5c0-0.4-0.1-0.7-0.4-1c-0.2-0.3-0.6-0.5-0.9-0.8
			c-0.4-0.2-0.8-0.5-1.2-0.7c-0.4-0.2-0.8-0.5-1.2-0.8c-0.4-0.3-0.7-0.7-0.9-1.1c-0.2-0.4-0.4-0.9-0.4-1.6c0-0.6,0.1-1.1,0.3-1.5
			s0.5-0.8,0.8-1.1c0.3-0.3,0.7-0.5,1.2-0.7c0.4-0.2,0.9-0.2,1.4-0.2c0.5,0,1,0,1.5,0.1c0.5,0.1,0.9,0.3,1.2,0.5
			c-0.1,0.2-0.1,0.3-0.2,0.5c-0.1,0.2-0.2,0.3-0.2,0.5c-0.1,0.2-0.1,0.3-0.2,0.4c-0.1,0.1-0.1,0.2-0.1,0.2c-0.1,0-0.1-0.1-0.2-0.1
			c-0.1-0.1-0.2-0.1-0.3-0.2c-0.2-0.1-0.4-0.1-0.6-0.1c-0.2,0-0.6,0-1,0c-0.2,0-0.4,0.1-0.6,0.2c-0.2,0.1-0.4,0.2-0.5,0.4
			c-0.2,0.2-0.3,0.3-0.4,0.5c-0.1,0.2-0.1,0.4-0.1,0.6c0,0.5,0.1,0.8,0.4,1.1c0.2,0.3,0.6,0.5,0.9,0.7c0.4,0.2,0.8,0.4,1.2,0.6
			c0.4,0.2,0.8,0.5,1.2,0.7c0.4,0.3,0.7,0.7,0.9,1.1c0.2,0.4,0.4,1,0.4,1.7C104,427.5,103.9,427.9,103.7,428.3z"/>
		<path class="st1" d="M123.4,411.4v-31.9c0-1-0.1-1.7-0.7-2.3l-13.8-14.8c-0.4-0.4-1-0.7-1.6-0.7H72.8c-1.4,0-2.9,1.2-2.9,3.7v45.9
			H123.4z M97.2,402.5c0,0.7-0.5,1.3-1.2,1.3c-0.7,0-1.2-0.6-1.2-1.3v-3.8c0-0.7,0.5-1.3,1.2-1.3c0.7,0,1.2,0.6,1.2,1.3V402.5z
			 M106.8,366.1c0-0.6,0.7-0.9,1-0.5l12,12.9c0.4,0.4,0.1,1.1-0.4,1.1h-12.6V366.1z M105.6,391V386c0-0.7-0.5-1.3-1.2-1.3
			c-0.7,0-1.2-0.6-1.2-1.3s0.5-1.3,1.2-1.3c2,0,3.6,1.7,3.6,3.8v5.1c0,1.4,1.1,2.5,2.4,2.5c0.7,0,1.2,0.6,1.2,1.3s-0.5,1.3-1.2,1.3
			c-1.3,0-2.4,1.1-2.4,2.5v5.1c0,2.1-1.6,3.8-3.6,3.8c-0.7,0-1.2-0.6-1.2-1.3s0.5-1.3,1.2-1.3c0.7,0,1.2-0.6,1.2-1.3v-5.1
			c0-1.5,0.6-2.9,1.6-3.8C106.2,393.9,105.6,392.6,105.6,391z M96.1,388.5c1,0,1.8,0.9,1.8,1.9s-0.8,1.9-1.8,1.9
			c-1,0-1.8-0.9-1.8-1.9S95.1,388.5,96.1,388.5z M81.8,393.6c1.3,0,2.4-1.1,2.4-2.5V386c0-2.1,1.6-3.8,3.6-3.8
			c0.7,0,1.2,0.6,1.2,1.3s-0.5,1.3-1.2,1.3c-0.7,0-1.2,0.6-1.2,1.3v5.1c0,1.5-0.6,2.9-1.6,3.8c1,0.9,1.6,2.3,1.6,3.8v5.1
			c0,0.7,0.5,1.3,1.2,1.3c0.7,0,1.2,0.6,1.2,1.3s-0.5,1.3-1.2,1.3c-2,0-3.6-1.7-3.6-3.8v-5.1c0-1.4-1.1-2.5-2.4-2.5
			c-0.7,0-1.2-0.6-1.2-1.3S81.1,393.6,81.8,393.6z"/>
	</g>
	<g>
	</g>
	<g>
	</g>
	<g>
	</g>
	<g>
	</g>
	<g>
	</g>
	<g>
	</g>
	<g>
	</g>
	<g>
	</g>
	<g>
	</g>
	<g>
	</g>
	<g>
	</g>
	<g>
	</g>
	<g>
	</g>
	<g>
	</g>
	<g>
	</g>
</g>
<g>
	<g>
		<path class="st1" d="M-108.4,445.5c-0.5,0-0.9,0.1-1.1,0.1v3.3c0.2,0,0.5,0.1,0.9,0.1c1.4,0,2.2-0.7,2.2-1.8
			C-106.4,446.1-107.1,445.5-108.4,445.5z"/>
		<path class="st1" d="M-85.2,447.1c0-1-0.7-1.6-2-1.6c-0.5,0-0.9,0.1-1.1,0.1v3.3c0.2,0,0.5,0.1,0.9,0.1
			C-86,448.9-85.2,448.2-85.2,447.1z"/>
		<path class="st1" d="M-71.2,432.2h-25c-3.7,0-6.6,2.9-6.6,6.5v1.2h-11.4c-1.5,0-2.7,1.2-2.7,2.6v13.3c0,1.4,1.2,2.6,2.7,2.6h11.4
			v28.3c0,3.6,3,6.5,6.6,6.5h34.1c3.7,0,6.6-2.9,6.6-6.5v-39.1L-71.2,432.2z M-104.9,449.6c-0.9,0.8-2.1,1.2-3.7,1.2
			c-0.3,0-0.6,0-0.9,0v3.9h-2.5v-10.9c0.8-0.1,1.9-0.2,3.4-0.2c1.6,0,2.7,0.3,3.4,0.9c0.7,0.6,1.2,1.5,1.2,2.5
			C-103.9,448.1-104.2,449-104.9,449.6z M-95.5,447.9v-4.2h2.5v11h-2.5v-4.6h-4.2v4.6h-2.5v-11h2.5v4.2
			C-99.7,447.9-95.5,447.9-95.5,447.9z M-62.1,489.2h-34.1c-1.4,0-2.6-1.1-2.6-2.5v-28.3h18c1.5,0,2.7-1.2,2.7-2.6v-13.3
			c0-1.4-1.2-2.6-2.7-2.6h-18v-1.2c0-1.4,1.2-2.5,2.6-2.5l23.5,0v8.5c0,2.5,2.1,4.5,4.6,4.5l8.5,0l0.1,37.6
			C-59.6,488.1-60.7,489.2-62.1,489.2z M-90.7,454.7v-10.9c0.8-0.1,1.9-0.2,3.4-0.2c1.6,0,2.7,0.3,3.4,0.9c0.7,0.6,1.2,1.5,1.2,2.5
			c0,1.1-0.4,2-1,2.6c-0.9,0.8-2.2,1.2-3.7,1.2c-0.3,0-0.6,0-0.9,0v3.9L-90.7,454.7L-90.7,454.7z"/>
		<path class="st1" d="M-79.1,468.5c0-0.6-0.3-1.2-0.8-1.5c-0.5-0.3-1.2-0.4-1.7-0.1l-9.9,4.5c-0.8,0.4-1.3,1.2-1.3,2
			c0,0.9,0.5,1.7,1.3,2l9.9,4.5c0.6,0.3,1.2,0.2,1.7-0.1c0.5-0.3,0.8-0.9,0.8-1.5c0-0.7-0.4-1.3-1.1-1.6l-7.8-3.4l7.8-3.4
			C-79.6,469.8-79.1,469.2-79.1,468.5z"/>
		<path class="st1" d="M-70.8,463.6c-1.2,0-2.2,0.2-3.1,0.5c-0.8,0.3-1.2,1.1-1,1.8c0.2,0.8,1.1,1.2,1.8,1c0.4-0.1,0.9-0.2,1.3-0.2
			c1.3,0.1,1.9,0.7,1.9,1.6c0,0.9-0.7,1.7-1.5,2.7c-1.2,1.4-1.6,2.8-1.6,4.1l0,0.2c0,0.3,0.2,0.4,0.5,0.4h2.6c0.3,0,0.5-0.2,0.5-0.5
			c0-1.2,0.4-2.2,1.3-3.2c1-1.1,2.3-2.4,2.3-4.4C-65.7,465.5-67.3,463.6-70.8,463.6z"/>
		<path class="st1" d="M-71.2,476.9c-1.4,0-2.4,1-2.4,2.4c0,1.3,1,2.4,2.4,2.4c1.4,0,2.4-1,2.4-2.4
			C-68.8,477.9-69.8,476.9-71.2,476.9z"/>
	</g>
	<g>
	</g>
	<g>
	</g>
	<g>
	</g>
	<g>
	</g>
	<g>
	</g>
	<g>
	</g>
	<g>
	</g>
	<g>
	</g>
	<g>
	</g>
	<g>
	</g>
	<g>
	</g>
	<g>
	</g>
	<g>
	</g>
	<g>
	</g>
	<g>
	</g>
</g>
<g>
	<g>
		<g>
			<g>
				<path class="st1" d="M173.2,474.2c-0.6,0-1.1,0.1-1.3,0.1v3.9c0.3,0.1,0.6,0.1,1,0.1c1.7,0,2.7-0.8,2.7-2.1
					C175.7,474.9,174.8,474.2,173.2,474.2z"/>
				<path class="st1" d="M184.7,443.9c0-0.3-0.1-0.5-0.3-0.7l-11.9-12.9c0,0,0,0,0,0c-0.1-0.1-0.2-0.1-0.2-0.2c0,0-0.1,0-0.1,0
					c-0.1,0-0.2-0.1-0.2-0.1c0,0,0,0-0.1,0c-0.1,0-0.2,0-0.3,0h-29.3c-1.3,0-2.4,1-2.4,2.3V486c0,1.3,1.1,2.3,2.4,2.3h40
					c1.3,0,2.4-1,2.4-2.3v-41.9C184.7,444,184.7,444,184.7,443.9z M155.2,480.3c0,3.7-1.9,5-4.9,5c-0.7,0-1.7-0.1-2.3-0.3l0.3-2.4
					c0.4,0.1,1,0.2,1.6,0.2c1.3,0,2.1-0.6,2.1-2.6V472h3.1L155.2,480.3L155.2,480.3L155.2,480.3z M161.2,485.3
					c-1.6,0-3.1-0.4-3.9-0.8l0.6-2.4c0.8,0.4,2.1,0.8,3.5,0.8c1.4,0,2.2-0.6,2.2-1.4c0-0.8-0.7-1.3-2.3-1.8c-2.3-0.8-3.8-2-3.8-3.9
					c0-2.2,2-3.9,5.2-3.9c1.6,0,2.7,0.3,3.5,0.7l-0.7,2.4c-0.6-0.3-1.5-0.6-2.9-0.6c-1.4,0-2,0.6-2,1.3c0,0.8,0.8,1.2,2.6,1.8
					c2.4,0.9,3.6,2.1,3.6,3.9C166.8,483.4,165,485.3,161.2,485.3z M177.5,479.1c-1.1,0.9-2.6,1.4-4.5,1.4c-0.4,0-0.8,0-1.1-0.1v4.7
					h-3.1v-12.9c1-0.2,2.3-0.3,4.2-0.3c1.9,0,3.3,0.3,4.2,1c0.9,0.7,1.5,1.7,1.5,3C178.8,477.3,178.3,478.4,177.5,479.1z
					 M142.3,468.8v-36.6h28.1v11.7c0,0.6,0.5,1.1,1.2,1.1h10.7l0,23.7H142.3z"/>
			</g>
			<path class="st1" d="M160.2,451.6c0,0-1.6-3-1.6-5.1c0-1.5,3.7-3.1,5.2-5.3c1.4-2.2-0.2-4.4-0.2-4.4s0.4,1.6-0.6,3.2
				c-1,1.7-4.5,2.6-5.9,5.5C155.8,448.4,160.2,451.6,160.2,451.6z"/>
			<path class="st1" d="M166.3,442.6c0,0-5.5,2-5.5,4.3c0,2.3,1.5,3,1.7,3.8c0.2,0.7-0.4,2-0.4,2s2.2-1.4,1.8-3.1
				c-0.4-1.7-2-2.2-1.1-3.8C163.5,444.6,166.3,442.6,166.3,442.6z"/>
			<path class="st1" d="M159.6,454.6c5.7-0.2,6.4-1.2,7-1.7c-3.3,0.9-12.1,0.8-12.2,0.2c-0.1-0.6,2.7-1.1,2.7-1.1s-4.3,0-4.7,1
				C152.1,454,154.5,454.8,159.6,454.6z"/>
			<path class="st1" d="M167.5,452.1c0,0,2.5,0,2.7,1.4c0.2,1.4-3.1,3.5-3.1,3.5s5.3-1,4.8-3.6C171.3,450.3,167.5,452.1,167.5,452.1
				z"/>
			<path class="st1" d="M161.4,456.2c-2.5,0.3-5.5,0.1-5.8-0.3c-0.2-0.4,0.4-0.6,0.4-0.6c-3,0.7-1.4,1.9,2.2,2.1
				c3,0.2,6.4-0.9,6.4-0.9l1-0.8C165.7,455.7,163.3,456,161.4,456.2z"/>
			<path class="st1" d="M156.8,458.1c0,0-1.4,0-1.4,0.7c-0.1,0.7,0.4,1,3.8,0.9c4-0.1,4.7-0.5,5.1-0.9l1-0.7
				c-2.6,0.3-2.8,0.4-4.3,0.4c-1.5,0-4.1,0.1-4.2-0.1C156.5,458.3,156.8,458.1,156.8,458.1z"/>
			<path class="st1" d="M169.9,461.2c0.5-0.5-0.2-1-0.2-1s0.2,0.3-0.1,0.6c-0.3,0.3-3.3,1.1-8,1.3c-4.7,0.2-9.8-0.4-10-1
				c-0.2-0.6,2.6-1,2.6-1c-0.3,0-4.2,0.1-4.3,1.1c-0.1,1,1.7,1.8,8.9,1.8C166.2,463,169.4,461.7,169.9,461.2z"/>
			<path class="st1" d="M167.1,463.5c-3.2,0.6-12.8,0.2-12.8,0.2s6.3,1.4,13.4,0.2c3.4-0.6,3.6-2.1,3.6-2.1S170.3,462.8,167.1,463.5
				z"/>
		</g>
	</g>
	<g>
	</g>
	<g>
	</g>
	<g>
	</g>
	<g>
	</g>
	<g>
	</g>
	<g>
	</g>
	<g>
	</g>
	<g>
	</g>
	<g>
	</g>
	<g>
	</g>
	<g>
	</g>
	<g>
	</g>
	<g>
	</g>
	<g>
	</g>
	<g>
	</g>
</g>
<g>
	<g>
		<path class="st1" d="M-9.3,321.1c-0.3-0.3-0.6-0.6-0.9-0.7c-0.3-0.2-0.7-0.2-1.1-0.2c-0.4,0-0.8,0.1-1.1,0.2
			c-0.4,0.1-0.7,0.4-0.9,0.7c-0.3,0.3-0.5,0.8-0.7,1.3c-0.2,0.5-0.2,1.2-0.3,2c0,0.8,0.1,1.4,0.2,1.9c0.2,0.5,0.4,1,0.6,1.3
			s0.6,0.6,0.9,0.7s0.7,0.2,1.1,0.2c0.4,0,0.8-0.1,1.1-0.2s0.7-0.4,0.9-0.7s0.5-0.8,0.7-1.3s0.2-1.2,0.3-2c0-0.8-0.1-1.4-0.2-1.9
			C-8.9,321.9-9.1,321.5-9.3,321.1z"/>
		<path class="st1" d="M11.1,313.4v-27.7c0-0.8-0.1-1.5-0.6-2l-13.3-12.9c-0.4-0.4-1-0.6-1.5-0.6h-33.3c-1.4,0-2.8,1-2.8,3.2v39.9
			H11.1z M-14.1,306.8c0,0.6-0.5,1.1-1.1,1.1s-1.1-0.5-1.1-1.1v-3.3c0-0.6,0.5-1.1,1.1-1.1s1.1,0.5,1.1,1.1V306.8z M-4.9,274.1
			c0-0.5,0.6-0.8,1-0.4l11.6,11.2c0.4,0.4,0.1,1-0.4,1H-4.9V274.1z M-6.1,296.8v-4.4c0-0.6-0.5-1.1-1.1-1.1c-0.6,0-1.1-0.5-1.1-1.1
			s0.5-1.1,1.1-1.1c1.9,0,3.4,1.5,3.4,3.3v4.4c0,1.2,1,2.2,2.3,2.2c0.6,0,1.1,0.5,1.1,1.1s-0.5,1.1-1.1,1.1c-1.3,0-2.3,1-2.3,2.2
			v4.4c0,1.8-1.5,3.3-3.4,3.3c-0.6,0-1.1-0.5-1.1-1.1s0.5-1.1,1.1-1.1c0.6,0,1.1-0.5,1.1-1.1v-4.4c0-1.3,0.6-2.5,1.6-3.3
			C-5.5,299.3-6.1,298.2-6.1,296.8z M-15.3,294.6c0.9,0,1.7,0.7,1.7,1.7c0,0.9-0.8,1.7-1.7,1.7c-0.9,0-1.7-0.7-1.7-1.7
			C-17,295.4-16.2,294.6-15.3,294.6z M-29,299.1c1.3,0,2.3-1,2.3-2.2v-4.4c0-1.8,1.5-3.3,3.4-3.3c0.6,0,1.1,0.5,1.1,1.1
			s-0.5,1.1-1.1,1.1c-0.6,0-1.1,0.5-1.1,1.1v4.4c0,1.3-0.6,2.5-1.6,3.3c1,0.8,1.6,2,1.6,3.3v4.4c0,0.6,0.5,1.1,1.1,1.1
			c0.6,0,1.1,0.5,1.1,1.1s-0.5,1.1-1.1,1.1c-1.9,0-3.4-1.5-3.4-3.3v-4.4c0-1.2-1-2.2-2.3-2.2c-0.6,0-1.1-0.5-1.1-1.1
			S-29.7,299.1-29,299.1z"/>
		<path class="st1" d="M-40.5,315.6v16.6c0,1.1,1.4,2.2,2.8,2.2h46c1.4,0,2.8-1.1,2.8-2.2v-16.6H-40.5z M-27.3,327.3
			c0,0.5-0.1,1-0.3,1.3c-0.2,0.4-0.5,0.6-0.8,0.9c-0.3,0.2-0.7,0.4-1.2,0.5c-0.4,0.1-0.9,0.1-1.3,0.1c-0.2,0-0.5,0-0.8-0.1
			c-0.3,0-0.6-0.1-1-0.2s-0.6-0.2-0.9-0.3c-0.3-0.1-0.6-0.3-0.8-0.4l0.8-1.2c0.1,0.1,0.3,0.1,0.4,0.2s0.4,0.1,0.6,0.2
			c0.2,0.1,0.5,0.1,0.7,0.2c0.3,0.1,0.5,0.1,0.7,0.1c0.6,0,1-0.1,1.3-0.3c0.3-0.2,0.5-0.6,0.5-1.1v-8.5h1.9V327.3z M-18.2,328.1
			c-0.2,0.4-0.4,0.7-0.7,1c-0.3,0.3-0.7,0.5-1.2,0.7c-0.5,0.2-1,0.3-1.6,0.3c-0.3,0-0.5,0-0.8,0c-0.3,0-0.5-0.1-0.8-0.1
			c-0.3-0.1-0.5-0.1-0.8-0.2c-0.2-0.1-0.5-0.2-0.6-0.4l0.3-1.3c0.1,0.1,0.3,0.2,0.6,0.2s0.5,0.1,0.7,0.2c0.2,0.1,0.5,0.1,0.7,0.2
			c0.2,0,0.5,0.1,0.7,0.1c0.6,0,1.1-0.1,1.5-0.4s0.5-0.7,0.5-1.3c0-0.3-0.1-0.6-0.4-0.9c-0.2-0.2-0.5-0.5-0.9-0.7
			c-0.4-0.2-0.8-0.4-1.2-0.6c-0.4-0.2-0.8-0.4-1.2-0.7c-0.4-0.3-0.7-0.6-0.9-0.9c-0.2-0.4-0.4-0.8-0.4-1.4c0-0.5,0.1-0.9,0.3-1.3
			c0.2-0.4,0.4-0.7,0.8-1c0.3-0.3,0.7-0.5,1.1-0.6c0.4-0.1,0.9-0.2,1.3-0.2c0.5,0,1,0,1.5,0.1s0.9,0.2,1.2,0.4
			c-0.1,0.1-0.1,0.3-0.2,0.4c-0.1,0.2-0.2,0.3-0.2,0.4c-0.1,0.1-0.1,0.2-0.2,0.3s-0.1,0.1-0.1,0.2c-0.1,0-0.1-0.1-0.2-0.1
			c-0.1-0.1-0.2-0.1-0.3-0.2c-0.1-0.1-0.3-0.1-0.6-0.1s-0.5,0-0.9,0c-0.2,0-0.4,0.1-0.6,0.2c-0.2,0.1-0.4,0.2-0.5,0.4
			c-0.1,0.1-0.3,0.3-0.3,0.5c-0.1,0.2-0.1,0.3-0.1,0.5c0,0.4,0.1,0.7,0.4,1c0.2,0.2,0.5,0.5,0.9,0.6c0.4,0.2,0.7,0.4,1.2,0.5
			c0.4,0.2,0.8,0.4,1.2,0.6c0.4,0.3,0.7,0.6,0.9,0.9c0.2,0.4,0.4,0.9,0.4,1.5C-17.9,327.4-18,327.7-18.2,328.1z M-6.9,326.9
			c-0.2,0.7-0.6,1.3-1,1.8c-0.4,0.5-0.9,0.8-1.5,1.1s-1.2,0.4-1.9,0.4c-0.7,0-1.3-0.1-1.9-0.4s-1.1-0.6-1.5-1.1s-0.8-1.1-1-1.8
			s-0.4-1.5-0.4-2.5c0-0.9,0.1-1.8,0.4-2.5c0.2-0.7,0.6-1.3,1-1.8s0.9-0.8,1.5-1.1s1.2-0.4,1.9-0.4c0.7,0,1.3,0.1,1.9,0.4
			s1.1,0.6,1.5,1.1s0.8,1.1,1,1.8c0.2,0.7,0.4,1.5,0.4,2.5C-6.6,325.3-6.7,326.1-6.9,326.9z M4.4,330H2.5l-4.5-7.7v7.7h-1.9v-11.1
			H-2l4.5,7.7v-7.7h1.9V330z"/>
	</g>
	<g>
	</g>
	<g>
	</g>
	<g>
	</g>
	<g>
	</g>
	<g>
	</g>
	<g>
	</g>
	<g>
	</g>
	<g>
	</g>
	<g>
	</g>
	<g>
	</g>
	<g>
	</g>
	<g>
	</g>
	<g>
	</g>
	<g>
	</g>
	<g>
	</g>
</g>
<g>
	<g>
		<path class="st1" d="M64.4,319.1v15.5c0,1,1.3,2.1,2.6,2.1h42.1c1.3,0,2.6-1,2.6-2.1v-15.5H64.4z M78,329.2
			c0.1,0.5,0.3,0.9,0.6,1.2c0.2,0.3,0.5,0.5,0.8,0.7s0.6,0.2,1,0.2c0.3,0,0.7-0.1,1-0.2c0.3-0.1,0.6-0.3,0.8-0.6l1.2,1
			c-0.4,0.4-0.8,0.7-1.3,0.8c-0.5,0.2-1,0.3-1.6,0.3c-0.6,0-1.2-0.1-1.7-0.3c-0.5-0.2-1-0.6-1.4-1s-0.7-1-0.9-1.7
			c-0.2-0.7-0.3-1.4-0.3-2.3c0-0.9,0.1-1.6,0.3-2.3c0.2-0.7,0.5-1.2,0.9-1.7s0.9-0.8,1.4-1c0.5-0.2,1.1-0.3,1.7-0.3
			c0.6,0,1.1,0.1,1.6,0.3c0.5,0.2,0.9,0.5,1.3,0.8l-1.2,1c-0.2-0.3-0.5-0.5-0.8-0.6c-0.3-0.1-0.6-0.2-0.9-0.2c-0.4,0-0.7,0.1-1,0.2
			c-0.3,0.1-0.6,0.4-0.9,0.7c-0.3,0.3-0.5,0.7-0.6,1.2c-0.1,0.5-0.2,1.1-0.2,1.8C77.8,328,77.9,328.7,78,329.2z M91.6,330.8
			c-0.2,0.4-0.4,0.7-0.7,0.9c-0.3,0.3-0.6,0.5-1.1,0.6s-0.9,0.2-1.4,0.2c-0.2,0-0.5,0-0.7,0c-0.2,0-0.5-0.1-0.7-0.1
			c-0.2-0.1-0.5-0.1-0.7-0.2s-0.4-0.2-0.6-0.4l0.3-1.2c0.1,0.1,0.3,0.1,0.5,0.2c0.2,0.1,0.4,0.1,0.6,0.2c0.2,0.1,0.4,0.1,0.7,0.1
			c0.2,0,0.4,0.1,0.6,0.1c0.6,0,1-0.1,1.3-0.4c0.3-0.3,0.5-0.7,0.5-1.2c0-0.3-0.1-0.6-0.3-0.8c-0.2-0.2-0.5-0.4-0.8-0.6
			c-0.3-0.2-0.7-0.4-1.1-0.6s-0.7-0.4-1.1-0.7c-0.3-0.2-0.6-0.5-0.8-0.9c-0.2-0.3-0.3-0.8-0.3-1.3c0-0.5,0.1-0.9,0.3-1.2
			c0.2-0.4,0.4-0.7,0.7-0.9c0.3-0.2,0.6-0.4,1-0.6c0.4-0.1,0.8-0.2,1.2-0.2c0.4,0,0.9,0,1.3,0.1s0.8,0.2,1.1,0.4
			c-0.1,0.1-0.1,0.3-0.2,0.4s-0.1,0.3-0.2,0.4c-0.1,0.1-0.1,0.2-0.2,0.3s-0.1,0.1-0.1,0.1c-0.1,0-0.1-0.1-0.2-0.1s-0.2-0.1-0.3-0.1
			c-0.1,0-0.3-0.1-0.5-0.1s-0.5,0-0.8,0c-0.2,0-0.4,0.1-0.5,0.2c-0.2,0.1-0.3,0.2-0.5,0.3c-0.1,0.1-0.2,0.3-0.3,0.4
			c-0.1,0.2-0.1,0.3-0.1,0.5c0,0.4,0.1,0.7,0.3,0.9s0.5,0.4,0.8,0.6c0.3,0.2,0.7,0.3,1.1,0.5c0.4,0.2,0.7,0.4,1.1,0.6
			c0.3,0.2,0.6,0.5,0.8,0.9c0.2,0.4,0.3,0.8,0.3,1.4C91.9,330.1,91.8,330.5,91.6,330.8z M99.4,330.8c-0.2,0.4-0.4,0.7-0.7,0.9
			c-0.3,0.3-0.6,0.5-1.1,0.6s-0.9,0.2-1.4,0.2c-0.2,0-0.5,0-0.7,0c-0.2,0-0.5-0.1-0.7-0.1c-0.2-0.1-0.5-0.1-0.7-0.2
			s-0.4-0.2-0.6-0.4l0.3-1.2c0.1,0.1,0.3,0.1,0.5,0.2s0.4,0.1,0.6,0.2s0.4,0.1,0.7,0.1s0.4,0.1,0.6,0.1c0.6,0,1-0.1,1.3-0.4
			c0.3-0.3,0.5-0.7,0.5-1.2c0-0.3-0.1-0.6-0.3-0.8s-0.5-0.4-0.8-0.6c-0.3-0.2-0.7-0.4-1.1-0.6c-0.4-0.2-0.7-0.4-1.1-0.7
			s-0.6-0.5-0.8-0.9c-0.2-0.3-0.3-0.8-0.3-1.3c0-0.5,0.1-0.9,0.3-1.2c0.2-0.4,0.4-0.7,0.7-0.9s0.6-0.4,1-0.6s0.8-0.2,1.2-0.2
			c0.4,0,0.9,0,1.3,0.1c0.4,0.1,0.8,0.2,1.1,0.4c-0.1,0.1-0.1,0.3-0.2,0.4c-0.1,0.1-0.1,0.3-0.2,0.4c-0.1,0.1-0.1,0.2-0.2,0.3
			c0,0.1-0.1,0.1-0.1,0.1c-0.1,0-0.1-0.1-0.2-0.1c-0.1,0-0.2-0.1-0.3-0.1c-0.1,0-0.3-0.1-0.5-0.1c-0.2,0-0.5,0-0.8,0
			c-0.2,0-0.4,0.1-0.5,0.2c-0.2,0.1-0.3,0.2-0.5,0.3s-0.2,0.3-0.3,0.4c-0.1,0.2-0.1,0.3-0.1,0.5c0,0.4,0.1,0.7,0.3,0.9
			s0.5,0.4,0.8,0.6c0.3,0.2,0.7,0.3,1.1,0.5c0.4,0.2,0.7,0.4,1.1,0.6c0.3,0.2,0.6,0.5,0.8,0.9c0.2,0.4,0.3,0.8,0.3,1.4
			C99.7,330.1,99.6,330.5,99.4,330.8z"/>
		<path class="st1" d="M111.7,317.1v-25.9c0-0.8-0.1-1.4-0.6-1.9l-12.2-12.1c-0.4-0.4-0.9-0.6-1.4-0.6H67c-1.2,0-2.6,0.9-2.6,3v37.4
			H111.7z M97,280.2c0-0.5,0.6-0.7,0.9-0.4l10.6,10.5c0.3,0.3,0.1,0.9-0.4,0.9H97V280.2z M95.9,300.5v-4.1c0-0.6-0.5-1-1.1-1
			c-0.6,0-1.1-0.5-1.1-1s0.5-1,1.1-1c1.7,0,3.2,1.4,3.2,3.1v4.1c0,1.1,0.9,2.1,2.1,2.1c0.6,0,1.1,0.5,1.1,1s-0.5,1-1.1,1
			c-1.2,0-2.1,0.9-2.1,2.1v4.1c0,1.7-1.4,3.1-3.2,3.1c-0.6,0-1.1-0.5-1.1-1s0.5-1,1.1-1c0.6,0,1.1-0.5,1.1-1v-4.1
			c0-1.2,0.6-2.3,1.5-3.1C96.5,302.8,95.9,301.7,95.9,300.5z M74.9,302.6c1.2,0,2.1-0.9,2.1-2.1v-4.1c0-1.7,1.4-3.1,3.2-3.1
			c0.6,0,1.1,0.5,1.1,1s-0.5,1-1.1,1c-0.6,0-1.1,0.5-1.1,1v4.1c0,1.2-0.6,2.3-1.5,3.1c0.9,0.8,1.5,1.9,1.5,3.1v4.1
			c0,0.6,0.5,1,1.1,1c0.6,0,1.1,0.5,1.1,1s-0.5,1-1.1,1c-1.7,0-3.2-1.4-3.2-3.1v-4.1c0-1.1-0.9-2.1-2.1-2.1c-0.6,0-1.1-0.5-1.1-1
			S74.3,302.6,74.9,302.6z"/>
	</g>
	<g>
	</g>
	<g>
	</g>
	<g>
	</g>
	<g>
	</g>
	<g>
	</g>
	<g>
	</g>
	<g>
	</g>
	<g>
	</g>
	<g>
	</g>
	<g>
	</g>
	<g>
	</g>
	<g>
	</g>
	<g>
	</g>
	<g>
	</g>
	<g>
	</g>
</g>
</svg>
