<?xml version="1.0" encoding="iso-8859-1"?>
<!-- Generator: Adobe Illustrator 16.0.0, SVG Export Plug-In . SVG Version: 6.00 Build 0)  -->
<!DOCTYPE svg PUBLIC "-//W3C//DTD SVG 1.1//EN" "http://www.w3.org/Graphics/SVG/1.1/DTD/svg11.dtd">
<svg xmlns="http://www.w3.org/2000/svg" xmlns:xlink="http://www.w3.org/1999/xlink" version="1.1" id="Capa_1" x="0px" y="0px" width="512px" height="512px" viewBox="0 0 254.722 254.722" style="enable-background:new 0 0 254.722 254.722;" xml:space="preserve">
<g>
	<path d="M237.312,169.314c-1.4,0-2.539,1.146-2.539,2.539v28.79h-9.725c0.384-2.837,0.292-5.267,0.262-5.718   c-0.006-0.219-0.049-0.438-0.122-0.651c-0.682-2.089-2.752-8.439-1.741-10.37c3.86-7.295,8.677-28.064,8.921-29.137   c2.479-16.495-4.878-27.145-9.864-34.367c-5.949-8.585-16.058-14.279-19.485-16.035c-4.086-17.714-20.033-22.037-28.272-21.888   c-11.728,0.356-26.013-5.985-30.396-8.104c0.146-8.087,1.425-12.952,1.735-14.066c3.616-5.882,4.768-10.376,3.513-13.719   c-0.377-0.999-0.932-1.778-1.546-2.362c2.398-21.735-14.961-25.922-15.241-25.977c-0.177-0.03-4.29-0.779-7.21-0.512   c-3.185-0.273-7.313,0.481-7.581,0.53c-0.186,0.036-17.534,4.223-15.125,25.958c-0.618,0.584-1.179,1.364-1.559,2.368   c-1.254,3.35-0.106,7.831,3.51,13.719c0.317,1.121,1.589,5.979,1.739,14.066c-4.391,2.119-18.487,8.442-30.397,8.104   c-8.093-0.149-24.205,4.174-28.278,21.93c-3.297,1.809-13.107,7.651-19.047,16.231l-0.661,0.95   c-4.795,6.884-12.029,17.275-9.603,33.38c0.204,0.877,5.018,21.647,8.89,28.954c1.017,1.906-1.065,8.27-1.745,10.358   c-0.07,0.213-0.113,0.426-0.125,0.65c-0.024,0.445-0.119,2.875,0.268,5.719h-5.943v-28.79c0-1.4-1.136-2.539-2.536-2.539   c-1.404,0-2.539,1.145-2.539,2.539v62.64c0,1.412,1.135,2.539,2.539,2.539c1.4,0,2.536-1.133,2.536-2.539v-28.79h7.271   c0.131,0.329,0.255,0.651,0.405,0.956c0.113,1.346,0.588,4.201,2.6,6.145c1.053,1.017,2.375,1.631,3.873,1.814   c1.16,0.998,3.048,1.905,5.772,1.741c0.719,0.316,1.815,0.627,3.212,0.627c0.673,0,1.421-0.067,2.231-0.256   c1.062,0.171,3.051,0.305,5.593-0.511c1.249,0.194,2.783,0,4.028-1.018c1.391-1.127,2.076-2.947,2.046-5.426   c0.298-0.219,0.587-0.475,0.855-0.779c0.755-0.852,1.227-1.961,1.464-3.3h132.342c0.243,1.327,0.706,2.454,1.461,3.3   c0.269,0.305,0.561,0.561,0.853,0.773c-0.024,2.479,0.658,4.299,2.046,5.432c1.249,1.018,2.795,1.199,4.031,1.018   c2.546,0.815,4.524,0.682,5.596,0.511c2.491,0.554,4.354,0.085,5.426-0.371c2.691,0.188,4.622-0.761,5.797-1.741   c1.485-0.177,2.808-0.786,3.873-1.809c2.003-1.949,2.478-4.811,2.594-6.15c0.152-0.305,0.28-0.633,0.401-0.956h11.046v28.79   c0,1.412,1.139,2.539,2.533,2.539c1.4,0,2.539-1.133,2.539-2.539v-62.652C239.852,170.453,238.719,169.314,237.312,169.314z    M47.611,151.662c3.711-1.363,10.071-3.957,13.07-6.631c2.774-2.473,4.887-4.457,6.759-6.552   c1.632,5.852,6.932,14.029,20.383,24.691c-0.399,5.322-1.486,24.351,2.298,37.467H59.241c-0.034-0.201-0.034-0.378-0.064-0.566   c-0.055-0.311-0.155-0.597-0.317-0.858c-0.213-0.354-4.926-8.3-10.82-12.209c-0.478-4.165-0.898-9.864-0.518-11.533   C49.057,168.73,50.61,159.28,47.611,151.662z M145.372,200.637h-39.847v-28.199c0-10.984,8.936-19.917,19.92-19.917   c10.982,0,19.927,8.938,19.927,19.917V200.637L145.372,200.637z M163.104,163.176c13.47-10.668,18.761-18.84,20.393-24.697   c1.882,2.095,3.988,4.079,6.747,6.558c2.99,2.68,9.365,5.273,13.073,6.631c-2.989,7.594-1.431,17.044,0.098,23.809   c0.384,1.669-0.036,7.362-0.512,11.527c-5.918,3.909-10.613,11.861-10.82,12.215c-0.152,0.262-0.262,0.542-0.311,0.853   c-0.03,0.194-0.03,0.371-0.061,0.572h-30.896C164.602,187.521,163.518,168.493,163.104,163.176z M218.271,205.953   c0,0.433-0.194,2.345-1.078,3.209c-0.23,0.207-0.541,0.427-1.394,0.427c-0.859-0.037-1.693,0.311-2.174,1.071   c-0.073,0.104-0.768,0.871-2.698,0.604c-0.548-0.104-1.248,0.097-1.747,0.383c-0.037,0.019-0.999,0.561-2.819,0.037   c-0.451-0.128-0.986-0.109-1.449,0.012c-0.049,0.019-1.492,0.408-3.849-0.475c-0.56-0.213-1.261-0.116-1.826,0.098   c0-0.007-0.402-0.64-0.098-2.832c0.109-0.749,0.073-1.474-0.438-2.033c-0.512-0.561-1.072-0.841-1.79-0.792   c0-0.006-0.207-0.292-0.317-1.054c0.28-0.408,0.5-0.889,0.5-1.425c0-0.499-0.195-0.938-0.438-1.339   c0.03-0.152,0.019-0.263,0.042-0.427c1.029-1.656,5.256-8.147,9.811-10.656c0.718-0.39,1.187-1.096,1.29-1.912   c0.231-1.826,1.346-11.118,0.573-14.492c-1.529-6.753-3.124-16.471,0.657-22.828c0.39-0.663,0.463-1.468,0.188-2.198   c-0.268-0.712-0.853-1.285-1.577-1.528c-2.947-0.956-11.18-4.024-14.011-6.558c-4.938-4.408-7.496-7.015-10.54-11.719   c-0.713-1.099-2.149-1.479-3.307-0.874c-0.188,0.101-0.335,0.25-0.487,0.387c0.761-2.134,1.285-4.359,1.285-6.71   c0-1.41-1.146-2.542-2.546-2.542s-2.533,1.132-2.533,2.542c0,9.782-9.407,17.74-20.971,17.74c-11.558,0-20.953-7.958-20.953-17.74   v-10.474c0-1.403-1.139-2.539-2.539-2.539c-1.409,0-2.542,1.136-2.542,2.539v10.474c0,12.583,11.688,22.818,26.034,22.818   c10.754,0,19.973-5.729,23.961-13.877c0.03,0.201,0.043,0.391,0.128,0.591c0.926,2.29,2.259,11.089-19.692,28.156   c-0.688,0.536-1.06,1.389-0.975,2.241c0.024,0.25,2.204,24.509-2.447,38.386h-5.042v-28.205c0-13.792-11.217-25.008-25.005-25.008   c-13.786,0-25.002,11.216-25.002,25.008v28.192h-4.996c-4.649-13.883-2.475-38.136-2.454-38.386   c0.079-0.858-0.283-1.711-0.974-2.24c-21.942-17.05-20.621-25.86-19.692-28.156c0.088-0.226,0.113-0.451,0.131-0.677   c3.955,8.203,13.22,13.969,24,13.969c14.367,0,26.052-10.235,26.052-22.819v-10.473c0-1.403-1.142-2.539-2.545-2.539   c-1.404,0-2.536,1.136-2.536,2.539v10.473c0,9.782-9.405,17.741-20.971,17.741c-11.56,0-20.962-7.959-20.962-17.741   c0-1.41-1.136-2.542-2.539-2.542c-1.401,0-2.536,1.133-2.536,2.542c0,2.378,0.536,4.622,1.309,6.777   c-0.183-0.167-0.356-0.335-0.588-0.454c-1.172-0.606-2.6-0.226-3.303,0.88c-3.035,4.691-5.593,7.298-10.537,11.706   c-2.837,2.533-11.083,5.597-14.011,6.559c-0.737,0.243-1.315,0.815-1.583,1.528c-0.268,0.725-0.201,1.528,0.198,2.198   c3.806,6.381,2.201,16.087,0.661,22.828c-0.767,3.38,0.35,12.665,0.575,14.492c0.107,0.815,0.579,1.51,1.291,1.912   c4.54,2.515,8.778,8.993,9.813,10.655c0.493,3.179-0.107,4.117,0.119,4.189c-0.734-0.006-1.434,0.28-1.934,0.822   c-0.511,0.555-0.746,1.315-0.642,2.064c0.313,2.229-0.091,2.831-0.162,2.709C51.072,211,50.442,211,49.876,211.22   c-2.326,0.883-3.766,0.512-3.775,0.512c-0.49-0.165-1.014-0.177-1.513-0.043c-1.772,0.506-2.743,0.006-2.761,0.006c0,0,0,0,0.006,0   c-0.529-0.377-1.199-0.535-1.836-0.426c-1.881,0.279-2.572-0.487-2.591-0.487c-0.481-0.761-1.312-1.206-2.234-1.182   c-0.78-0.019-1.166-0.213-1.389-0.42c-0.861-0.828-1.075-2.649-1.087-3.215c0-0.444-0.119-0.901-0.347-1.298   c-0.381-0.633-0.67-1.394-0.898-2.203c-0.027-0.092-0.018-0.189-0.058-0.269c-0.63-2.436-0.728-5.243-0.685-6.661   c1.613-5,3.124-10.547,1.297-13.993c-3.553-6.704-8.375-27.493-8.388-27.517c-2.095-13.896,4.192-22.926,8.78-29.515l0.667-0.959   c6.317-9.118,18.133-15.098,18.246-15.159c0.709-0.35,1.215-1.017,1.364-1.796C55.63,91.169,69.367,87.33,76.087,87.585   c15.725,0.356,33.515-8.966,34.27-9.371c0.837-0.438,1.355-1.303,1.355-2.247c0-11.173-2.016-17.257-2.098-17.506   c-0.067-0.188-0.149-0.368-0.256-0.53c-3.696-5.931-3.529-8.543-3.285-9.386c0.149-0.542,0.38-0.655,0.313-0.643   c1.203-0.372,1.952-1.559,1.769-2.804c-2.743-18.365,10.458-21.717,10.906-21.83c1.004-0.183,4.058-0.624,6.156-0.444   c0.143,0.012,0.435,0.012,0.572,0c2.47-0.198,6.022,0.417,6.035,0.426c0.578,0.131,13.792,3.334,11.027,21.848   c-0.183,1.239,0.414,2.381,1.626,2.75c0.048,0.018,0.304,0.173,0.456,0.685c0.231,0.85,0.39,3.462-3.294,9.393   c-0.104,0.162-0.188,0.341-0.256,0.53c-0.079,0.255-2.095,6.333-2.095,17.506c0,0.944,0.518,1.809,1.352,2.247   c0.762,0.393,18.847,9.812,34.276,9.371c6.795-0.286,20.466,3.59,23.413,19.011c0.158,0.797,0.688,1.485,1.431,1.826   c0.115,0.058,12.324,5.807,18.718,15.053c4.408,6.391,11.095,16.051,8.939,30.366c-0.043,0.195-4.859,20.978-8.428,27.7   c-1.827,3.458-0.316,8.999,1.303,13.993c0.062,1.948-0.121,6.563-1.632,9.139C218.394,205.058,218.271,205.508,218.271,205.953z    M12.513,177.998v50.375c0,1.401-1.135,2.533-2.539,2.533c-1.406,0-2.542-1.139-2.542-2.533v-50.375   c0-1.412,1.136-2.545,2.542-2.545C11.377,175.453,12.513,176.591,12.513,177.998z M247.293,177.998v50.375   c0,1.401-1.146,2.533-2.546,2.533s-2.539-1.139-2.539-2.533v-50.375c0-1.412,1.139-2.545,2.539-2.545   C246.154,175.453,247.293,176.591,247.293,177.998z M5.075,192.727v20.898c0,1.4-1.136,2.545-2.539,2.545   c-1.404,0-2.536-1.151-2.536-2.545v-20.898c0-1.4,1.132-2.533,2.536-2.533C3.939,190.194,5.075,191.333,5.075,192.727z    M254.722,192.727v20.898c0,1.4-1.133,2.545-2.533,2.545c-1.407,0-2.546-1.151-2.546-2.545v-20.898c0-1.4,1.146-2.533,2.546-2.533   S254.722,191.333,254.722,192.727z M159.608,131.592c0,2.034-1.607,3.659-3.593,3.659c-1.973,0-3.567-1.632-3.567-3.659   c0-2.019,1.583-3.66,3.567-3.66C158.001,127.933,159.608,129.574,159.608,131.592z M98.547,131.592   c0,2.034-1.596,3.659-3.578,3.659c-1.985,0-3.581-1.632-3.581-3.659c0-2.019,1.596-3.66,3.581-3.66   C96.951,127.933,98.547,129.574,98.547,131.592z M138.077,164.571c0.986-0.999,2.595-1.005,3.593-0.012   c0.992,0.986,1.005,2.594,0.013,3.593c-0.146,0.14-3.775,3.75-8.878,3.75c-0.013,0-0.031,0-0.043,0   c-1.65-0.006-3.249-0.383-4.771-1.107v4.061c1.553,1.395,3.158,2.15,4.796,2.156c0.006,0,0.019,0,0.03,0   c2.959,0,5.236-2.217,5.261-2.241c0.993-0.998,2.606-1.005,3.593-0.012c0.999,0.986,1.005,2.6,0.013,3.593   c-0.146,0.158-3.775,3.744-8.872,3.744c-0.013,0-0.03,0-0.049,0c-1.65-0.006-3.249-0.383-4.771-1.107v5.413   c1.547,1.388,3.134,2.144,4.753,2.161c2.936-0.188,5.316-2.223,5.347-2.246c0.98-0.975,2.594-0.98,3.574,0.012   c0.986,0.992,0.992,2.582,0.006,3.562c-0.146,0.158-3.763,3.757-8.865,3.757c-0.019,0-0.037,0-0.062,0   c-1.656-0.007-3.245-0.39-4.765-1.108v0.98c0,1.412-1.136,2.545-2.539,2.545s-2.542-1.139-2.542-2.545v-0.986   c-1.529,0.719-3.118,1.102-4.771,1.107c-0.012,0-0.031,0-0.049,0c-5.103,0-8.726-3.592-8.875-3.757   c-0.983-0.986-0.983-2.6,0.012-3.58c0.999-0.986,2.6-0.975,3.581,0c0.067,0.061,2.356,2.247,5.273,2.247c0.027,0,0.046,0,0.064,0   c1.614-0.019,3.218-0.773,4.759-2.149v-5.426c-1.528,0.725-3.118,1.097-4.771,1.108c-0.012,0-0.03,0-0.042,0   c-5.109,0-8.726-3.58-8.875-3.745c-0.983-0.992-0.983-2.6,0.012-3.593c0.986-0.986,2.594-0.98,3.581,0   c0.048,0.049,2.344,2.254,5.282,2.254c0.018,0,0.037,0,0.061,0c1.62-0.013,3.212-0.768,4.752-2.145v-4.066   c-1.528,0.725-3.118,1.096-4.771,1.102c-0.012,0-0.024,0-0.042,0c-5.109,0-8.732-3.599-8.881-3.751   c-0.983-0.999-0.983-2.606,0.013-3.593c0.999-0.986,2.6-0.975,3.58,0.006c0.067,0.062,2.232,2.132,5.343,2.26   c1.62-0.013,3.212-0.768,4.752-2.156v-4.5c0-1.406,1.139-2.545,2.542-2.545s2.54,1.145,2.54,2.545v4.494   c1.553,1.406,3.157,2.156,4.789,2.162c0.012,0,0.012,0,0.024,0C135.764,166.824,138.053,164.595,138.077,164.571z M67.62,114.141   c0.119,1.397-0.917,2.625-2.32,2.737c-19.89,1.666-21.717,18.313-21.793,19.02c-0.122,1.315-1.227,2.29-2.524,2.29   c-0.083,0-0.162,0-0.244-0.013c-1.397-0.128-2.417-1.376-2.287-2.759c0.019-0.219,2.351-21.579,26.424-23.595   C66.311,111.653,67.501,112.746,67.62,114.141z M212.487,136.031c0.104,1.413-0.95,2.619-2.351,2.729   c-0.062,0.006-0.134,0.006-0.183,0.006c-1.315,0-2.436-1.023-2.533-2.351c-1.462-19.899-18.085-21.863-18.798-21.942   c-1.394-0.143-2.404-1.397-2.265-2.789c0.14-1.388,1.382-2.423,2.789-2.262C189.372,109.44,210.728,111.946,212.487,136.031z" fill="#46c4fa"/>
</g>
<g>
</g>
<g>
</g>
<g>
</g>
<g>
</g>
<g>
</g>
<g>
</g>
<g>
</g>
<g>
</g>
<g>
</g>
<g>
</g>
<g>
</g>
<g>
</g>
<g>
</g>
<g>
</g>
<g>
</g>
</svg>
