<?xml version="1.0" encoding="utf-8"?>
<!-- Generator: Adobe Illustrator 16.0.0, SVG Export Plug-In . SVG Version: 6.00 Build 0)  -->
<!DOCTYPE svg PUBLIC "-//W3C//DTD SVG 1.1//EN" "http://www.w3.org/Graphics/SVG/1.1/DTD/svg11.dtd">
<svg version="1.1" id="Layer_1" xmlns="http://www.w3.org/2000/svg" xmlns:xlink="http://www.w3.org/1999/xlink" x="0px" y="0px"
	 width="190px" height="155px" viewBox="0 0 190 155" enable-background="new 0 0 190 155" xml:space="preserve">
<g>
	<g>
		<path d="M90.5,62.8c0,5.9-4.8,10.7-10.7,10.7H27.7c-5.9,0-10.7-4.8-10.7-10.7V10.7C17,4.8,21.8,0,27.7,0h52.2
			c5.9,0,10.7,4.8,10.7,10.7V62.8z"/>
		<path d="M173,62.8c0,5.9-4.8,10.7-10.7,10.7h-52.2c-5.9,0-10.7-4.8-10.7-10.7V10.7c0-5.9,4.8-10.7,10.7-10.7h52.2
			c5.9,0,10.7,4.8,10.7,10.7V62.8z"/>
		<path d="M90.5,144.3c0,5.9-4.8,10.7-10.7,10.7H27.7c-5.9,0-10.7-4.8-10.7-10.7V92.2c0-5.9,4.8-10.7,10.7-10.7h52.2
			c5.9,0,10.7,4.8,10.7,10.7V144.3z"/>
		<path d="M173,144.3c0,5.9-4.8,10.7-10.7,10.7h-52.2c-5.9,0-10.7-4.8-10.7-10.7V92.2c0-5.9,4.8-10.7,10.7-10.7h52.2
			c5.9,0,10.7,4.8,10.7,10.7V144.3z"/>
	</g>
	<g>
		<g>
			<path fill="#FFFFFF" d="M136.2,21.8c4.5,0,8.2,1.4,11.2,4.3c3,2.8,4.5,6.4,4.5,10.7s-1.5,7.8-4.5,10.7c-3,2.8-6.8,4.2-11.4,4.2
				c-4.4,0-8-1.4-11-4.2c-2.9-2.8-4.4-6.3-4.4-10.6c0-4.3,1.5-7.9,4.4-10.8C128,23.2,131.7,21.8,136.2,21.8z M136.3,25.8
				c-3.3,0-6.1,1-8.2,3.1c-2.1,2.1-3.2,4.7-3.2,8c0,3.1,1.1,5.8,3.2,7.8c2.2,2.1,4.8,3.1,8.1,3.1c3.2,0,6-1.1,8.1-3.2
				c2.2-2.1,3.3-4.8,3.3-7.9c0-3.1-1.1-5.7-3.3-7.8S139.5,25.8,136.3,25.8z"/>
		</g>
		<g>
			<path fill="#FFFFFF" d="M42,131.5c0-0.5,0-20.9,0-26.4c0-0.8,0.6-1.3,1.4-1.3s8.4,0,8.4,0c4,0,7.1,0.6,9.4,1.8
				c2.3,1.2,4.1,2.9,5.5,5.2c1.4,2.3,2,4.8,2,7.5c0,1.9-0.4,3.8-1.1,5.6c-0.8,1.8-1.8,3.3-3.2,4.7c-1.4,1.4-3.1,2.4-4.9,3.1
				c-1.1,0.4-2.1,0.7-3,0.9c-0.9,0.1-2.7,0.2-5.3,0.2c0,0-6.9,0-7.8,0C42.5,132.8,42,132.1,42,131.5z M51.4,107.4h-5.2v21.7h5.3
				c2.1,0,3.7-0.1,4.9-0.4c1.2-0.3,2.1-0.6,2.9-1.1c0.8-0.4,1.5-1,2.1-1.6c2.1-2.1,3.1-4.7,3.1-7.9c0-3.1-1.1-5.7-3.2-7.6
				c-0.8-0.7-1.7-1.3-2.7-1.8c-1-0.5-2-0.8-2.9-0.9C54.8,107.5,53.4,107.4,51.4,107.4z"/>
		</g>
		<path fill="#FFFFFF" d="M142.8,129.1c0,0-10.9,0-10.9,0v-9l10.1,0c1,0,1.8-0.8,1.8-1.9c0-1-0.8-1.9-1.9-1.9c0,0-10.1,0-10.1,0
			v-8.9h10.4c0,0,0,0,0,0c1,0,1.9-0.8,1.9-1.9c0-1-0.8-1.9-1.9-1.9c0,0-9.7,0-13.3,0c-0.8,0-1.3,0.6-1.3,1.3c0,0.6,0,21,0,26.4
			c0,0.8,0.6,1.3,1.3,1.3c3.7,0,13.7,0,13.7,0c1,0,1.9-0.8,1.9-1.9S143.9,129.1,142.8,129.1z"/>
		<path fill="#FFFFFF" d="M64.1,45.9c-0.3,0-0.8,0.2-0.8,0.2c-2.5,1.1-5,1.7-7.6,1.7c-3.4,0-6.1-1-8.3-3.1c-2.2-2.1-3.3-4.7-3.3-7.9
			c0-3.2,1.1-5.8,3.3-7.9c2.2-2.1,5-3.2,8.3-3.2c2.4,0,4.7,0.5,7.1,1.5c0.3,0.1,0.6,0.2,0.9,0.2c1.1,0,2-0.9,2-2
			c0-0.8-0.7-1.6-1.3-1.8c-3.2-1.3-6.2-1.9-8.9-1.9c-4.4,0-8.2,1.4-11.2,4.3c-3,2.9-4.5,6.5-4.5,10.7c0,2.7,0.7,5.1,2,7.4
			c1.3,2.3,3.1,4.1,5.4,5.4c2.3,1.3,5,2,8.3,2c3.4,0,6.6-0.6,9.3-1.9c0.8-0.3,1.3-1.1,1.3-1.9C66.1,46.8,65.2,45.9,64.1,45.9z"/>
	</g>
</g>
</svg>
