<?xml version="1.0" encoding="utf-8"?>
<!-- Generator: Adobe Illustrator 14.0.0, SVG Export Plug-In . SVG Version: 6.00 Build 43363)  -->
<!DOCTYPE svg PUBLIC "-//W3C//DTD SVG 1.1//EN" "http://www.w3.org/Graphics/SVG/1.1/DTD/svg11.dtd">
<svg version="1.1" id="Layer_1" xmlns="http://www.w3.org/2000/svg" xmlns:xlink="http://www.w3.org/1999/xlink" x="0px" y="0px"
	 width="1224px" height="792px" viewBox="0 0 1224 792" enable-background="new 0 0 1224 792" xml:space="preserve">
<rect fill="none" width="1224" height="792"/>
<rect x="107" y="220.5" fill="#FFFFFF" width="1010" height="351"/>
<g>
	<path fill="#204056" d="M204.232,431.943c-1.603-4.859-2.397-10.994-2.397-19.241c0-8.25,0.794-14.394,2.397-19.244
		c4.475-13.907,16.333-21.505,31.856-21.505c11.529,0,20.659,4.691,26.747,12.129c0.47,0.643,0.631,1.611-0.162,2.256l-10.085,8.895
		c-0.804,0.651-1.601,0.488-2.245-0.319c-3.849-4.363-7.849-6.794-14.255-6.794c-6.881,0-12.163,3.398-14.408,10.189
		c-1.272,3.887-1.597,8.412-1.597,14.394c0,5.983,0.325,10.669,1.597,14.552c2.245,6.623,7.527,10.019,14.408,10.019
		c6.406,0,10.406-2.426,14.255-6.782c0.644-0.818,1.441-0.818,2.245-0.169l10.085,8.895c0.793,0.644,0.632,1.452,0.162,2.265
		c-6.088,7.277-15.218,11.963-26.747,11.963C220.565,453.443,208.708,445.842,204.232,431.943"/>
	<path fill="#204056" d="M554.063,431.943c-1.603-4.859-2.397-10.994-2.397-19.241c0-8.25,0.795-14.394,2.397-19.244
		c4.485-13.907,16.33-21.505,31.854-21.505c11.531,0,20.666,4.691,26.746,12.129c0.477,0.643,0.642,1.611-0.166,2.256l-10.086,8.895
		c-0.801,0.651-1.597,0.488-2.238-0.319c-3.84-4.363-7.844-6.794-14.256-6.794c-6.877,0-12.164,3.398-14.402,10.189
		c-1.284,3.887-1.596,8.412-1.596,14.394c0,5.983,0.312,10.669,1.596,14.552c2.238,6.623,7.525,10.019,14.402,10.019
		c6.412,0,10.416-2.426,14.256-6.782c0.642-0.818,1.438-0.818,2.238-0.169l10.086,8.895c0.808,0.644,0.643,1.452,0.166,2.265
		c-6.08,7.277-15.215,11.963-26.746,11.963C570.394,453.443,558.549,445.842,554.063,431.943"/>
	<path fill="#204056" d="M958.394,451.669c-0.959,0-1.598-0.644-1.598-1.62v-44.946c0-10.028-4.969-16.983-14.578-16.983
		c-9.283,0-14.726,6.955-14.726,16.983v44.946c0,0.977-0.644,1.62-1.598,1.62h-14.735c-0.958,0-1.603-0.644-1.603-1.62v-44.946
		c0-10.028-4.961-16.983-14.556-16.983c-9.292,0-14.74,6.955-14.74,16.983v44.946c0,0.977-0.64,1.62-1.602,1.62h-14.729
		c-0.964,0-1.597-0.644-1.597-1.62v-74.702c0-0.972,0.633-1.62,1.597-1.62h14.729c0.962,0,1.602,0.648,1.602,1.62v5.659h0.163
		c3.363-4.854,10.086-9.053,20.332-9.053c9.126,0,16.492,3.713,21.13,10.346h0.163c5.921-6.461,13.61-10.346,24.66-10.346
		c17.925,0,28.021,12.287,28.021,28.943v49.152c0,0.977-0.644,1.62-1.608,1.62H958.394z"/>
	<path fill="#204056" d="M996.967,480.772c-0.957,0-1.596-0.646-1.596-1.622v-12.932c0-0.967,0.639-1.621,1.596-1.621h2.884
		c6.084,0,9.134-2.738,11.531-9.211l2.243-6.629l-28.184-73.412c-0.321-0.971,0.322-1.619,1.29-1.619h15.845
		c0.957,0,1.601,0.648,1.916,1.619l17.457,50.935h0.315l16.655-50.935c0.318-0.971,0.962-1.619,1.913-1.619h15.207
		c0.968,0,1.611,0.648,1.287,1.619l-29.456,81.174c-6.72,18.434-13.133,24.253-25.939,24.253H996.967z"/>
	<path fill="#204056" d="M277.568,431.946c-1.76-5.504-2.56-10.676-2.56-19.244c0-8.555,0.8-13.731,2.56-19.218
		c4.324-13.584,16.161-21.508,31.847-21.508c15.523,0,27.365,7.924,31.691,21.508c1.753,5.486,2.559,10.663,2.559,19.218
		c0,8.568-0.806,13.74-2.559,19.244c-4.326,13.576-16.168,21.497-31.691,21.497C293.729,453.443,281.892,445.522,277.568,431.946
		 M323.819,427.099c1.283-4.039,1.601-7.763,1.601-14.396c0-6.616-0.318-10.175-1.601-14.376
		c-2.24-6.461-7.202-10.188-14.404-10.188c-7.195,0-12.327,3.727-14.562,10.188c-1.274,4.201-1.599,7.76-1.599,14.376
		c0,6.634,0.325,10.357,1.599,14.396c2.235,6.471,7.367,10.175,14.562,10.175C316.617,437.273,321.579,433.569,323.819,427.099"/>
	<path fill="#204056" d="M655.567,371.953c-12.653,0-21.133,3.071-27.381,7.599c-0.637,0.491-0.797,1.29-0.314,2.096l5.913,10.679
		c0.495,0.812,1.441,0.975,2.248,0.323c3.685-2.905,8.962-5.34,17.614-5.34c12.613,0,16.897,3.827,17.116,12.239l0.003-0.002v0.102
		c0.004,0.199,0.007,0.398,0.007,0.603v25.228c0,8.889-6.083,13.251-17.126,13.251c-8.652,0-13.288-3.229-13.288-9.694
		c0-7.281,5.124-10.52,16.648-10.52l3.505,0.004c0.957,0,1.603-0.645,1.603-1.607v-10.367c0-0.967-0.646-1.612-1.603-1.612h-0.771
		l-5.613-0.001c-19.05,0-30.908,7.77-30.908,24.74c0,16.336,11.858,23.771,25.942,23.771c10.877,0,18.087-3.718,21.771-9.054h0.158
		v5.66c0,0.977,0.646,1.62,1.602,1.62h13.448c0.96,0,1.602-0.644,1.602-1.62v-50.932
		C687.744,380.043,679.099,371.953,655.567,371.953"/>
	<path fill="#204056" d="M464.285,404.93c-0.417,0-0.692,0.279-0.692,0.695v0.463v1.352v8.567v1.149v0.664
		c0,0.416,0.275,0.696,0.692,0.696h0.401h39.248c1.122,0,1.765-0.644,1.765-1.605c0-12.622-0.806-17.96-2.562-23.454
		c-4.328-13.259-15.852-21.505-31.703-21.505c-15.37,0-27.215,7.921-31.541,21.505c-1.592,5.012-2.563,11.159-2.563,19.244
		c0,8.081,1.122,14.063,2.733,19.08c4.319,13.578,15.84,21.662,32.172,21.662c14.245,0,25.142-5.498,31.699-13.26
		c0.634-0.802,0.634-1.609-0.164-2.261l-9.437-8.408c-0.807-0.648-1.604-0.479-2.409,0.321c-3.838,4.208-9.441,7.438-18.086,7.438
		c-8.639,0-14.728-4.199-17.289-11.794c-0.386-1.064-0.707-2.183-0.909-3.392l-0.003,0.001c-0.583-3.292-0.928-6.499-0.928-11.204
		c0.124-4.434,0.38-7.269,1.01-10.866c0.007-0.05,0.016-0.097,0.025-0.144c0.006-0.034,0.014-0.066,0.019-0.101l0.001,0.003
		c0.154-0.85,0.361-1.645,0.622-2.441c2.081-6.307,7.843-10.025,15.215-10.025c7.208,0,12.96,3.719,15.041,10.025
		c0.643,1.95,0.96,3.881,0.96,6.633c0,0.647-0.317,0.964-0.96,0.964h-21.036l0.004-0.003H464.285z"/>
	<path fill="#204056" d="M422.449,341.721h-14.706c-0.968,0-1.608,0.643-1.608,1.604v37.778h-0.001v31.244
		c0,0.085,0.001,0.167,0.001,0.251c0,0.085-0.001,0.166-0.001,0.249v4.147h-0.078c-0.171,4.456-0.656,7.389-1.512,10.133
		c-2.081,6.453-7.043,10.004-14.389,10.004c-7.194,0-12.146-3.551-14.235-10.004c-1.115-3.557-1.591-7.427-1.591-14.529
		c0-7.104,0.476-10.984,1.591-14.527c2.047-6.33,6.843-9.904,13.799-10.045h6.278c0.305-0.075,0.504-0.313,0.504-0.663l0.08-14.762
		c0-0.375-0.235-0.629-0.584-0.674l-5.013-0.021l-5.891,0.001v0.004c-12.89,0.137-22.323,6.422-26.274,18.719
		c-1.92,5.982-2.717,11.475-2.717,21.968c0,10.49,0.797,15.981,2.717,21.949c3.994,12.438,13.589,18.731,26.695,18.731
		c10.399,0,16.795-3.868,20.463-9.204h0.158v5.814c0,0.976,0.64,1.617,1.608,1.617h14.706c0.959,0,1.602-0.642,1.602-1.617V343.325
		C424.051,342.363,423.408,341.721,422.449,341.721"/>
	<path fill="#204056" d="M807.952,404.93c-0.412,0-0.689,0.279-0.689,0.695v0.463v1.352v8.567v1.149v0.664
		c0,0.416,0.277,0.696,0.689,0.696h0.405h39.249c1.12,0,1.762-0.644,1.762-1.605c0-12.622-0.803-17.96-2.56-23.454
		c-4.329-13.259-15.853-21.505-31.702-21.505c-15.371,0-27.217,7.921-31.543,21.505c-1.594,5.012-2.562,11.159-2.562,19.244
		c0,8.081,1.122,14.063,2.733,19.08c4.316,13.578,15.842,21.662,32.172,21.662c14.245,0,25.143-5.498,31.7-13.26
		c0.636-0.802,0.636-1.609-0.164-2.261l-9.44-8.408c-0.803-0.648-1.602-0.479-2.406,0.321c-3.838,4.208-9.441,7.438-18.088,7.438
		c-8.641,0-14.725-4.199-17.29-11.794c-0.384-1.064-0.705-2.183-0.905-3.392l-0.004,0.001c-0.582-3.292-0.927-6.499-0.927-11.204
		c0.12-4.434,0.376-7.269,1.007-10.866c0.011-0.05,0.02-0.097,0.026-0.144c0.005-0.034,0.011-0.066,0.019-0.101v0.003
		c0.156-0.85,0.362-1.645,0.622-2.441c2.081-6.307,7.844-10.025,15.215-10.025c7.21,0,12.962,3.719,15.045,10.025
		c0.641,1.95,0.96,3.881,0.96,6.633c0,0.647-0.319,0.964-0.96,0.964h-21.037v-0.003H807.952z"/>
	<path fill="#204056" d="M766.882,341.721h-14.73c-0.965,0-1.606,0.646-1.606,1.608v37.831v31.292v0.249v0.251v4.154h-0.079
		c-0.175,4.464-0.66,7.399-1.517,10.146c-2.082,6.464-7.055,10.021-14.409,10.021c-7.2,0-12.164-3.557-14.255-10.021
		c-1.115-3.562-1.599-7.436-1.599-14.552c0-7.112,0.483-10.999,1.599-14.546c2.049-6.34,6.852-9.886,13.817-10.026l6.287,0.004
		c0.961,0,1.603-0.646,1.603-1.609v-12.956c0-0.966-0.642-1.61-1.603-1.61h-0.77l-9.503-0.003c-0.077,0-0.147-0.002-0.223-0.002
		c-0.072,0-0.137,0.002-0.208,0.002h-0.217v0.004c-12.904,0.136-22.353,6.433-26.311,18.746c-1.924,5.991-2.722,11.491-2.722,21.997
		s0.798,16.007,2.722,21.986c4,12.452,13.611,18.756,26.735,18.756c10.411,0,16.814-3.873,20.495-9.217h0.155v5.821
		c0,0.979,0.642,1.62,1.606,1.62h14.73c0.96,0,1.603-0.642,1.603-1.62V343.329C768.484,342.366,767.842,341.721,766.882,341.721"/>
	<path fill="#204056" d="M552.861,473.717v14.729c0,0.967,0.643,1.611,1.607,1.611h54.592c0.976,0,1.619-0.645,1.619-1.611v-14.729
		c0-0.959-0.644-1.602-1.619-1.602h-54.592C553.504,472.115,552.861,472.758,552.861,473.717"/>
	<path fill="#204056" d="M539,303.568c-0.024-0.024-0.039-0.055-0.062-0.078c-0.004-0.002-0.006-0.004-0.008-0.004
		c-0.279-0.277-0.677-0.438-1.152-0.438h-0.018H169.773c-0.121,0-0.236,0.012-0.348,0.032c-0.033,0.005-0.06,0.017-0.094,0.024
		c-0.073,0.018-0.149,0.034-0.216,0.061c-0.013,0.004-0.023,0.011-0.032,0.016c-0.569,0.234-0.918,0.766-0.918,1.471v0.008v183.77
		v0.009c0,0.562,0.218,1.002,0.588,1.284c0.027,0.025,0.052,0.051,0.089,0.072v0.001c0.254,0.164,0.568,0.253,0.931,0.253h367.986
		h0.018c0.541,0,0.981-0.211,1.258-0.566c0.219-0.271,0.346-0.621,0.346-1.044v-0.009V304.66v-0.008
		C539.381,304.213,539.239,303.844,539,303.568 M187.696,472.109c-0.115-0.002-0.227-0.01-0.329-0.027
		c-0.032-0.007-0.065-0.02-0.097-0.028c-0.074-0.017-0.15-0.033-0.217-0.059c-0.012-0.005-0.02-0.013-0.031-0.017
		c-0.566-0.231-0.913-0.759-0.916-1.457V337.316v-14.726c0-0.707,0.35-1.235,0.916-1.47c0.014-0.004,0.024-0.012,0.034-0.016
		c0.067-0.026,0.279-0.08,0.312-0.088c0.106-0.017,0.22-0.027,0.333-0.027h332.141c0.117,0,0.226,0.011,0.333,0.027
		c0.034,0.008,0.064,0.02,0.095,0.029c0.075,0.016,0.15,0.032,0.217,0.059c0.015,0.004,0.022,0.012,0.034,0.016
		c0.569,0.234,0.916,0.763,0.916,1.47v147.931c-0.003,0.698-0.353,1.226-0.915,1.457c-0.013,0.004-0.02,0.012-0.034,0.017
		c-0.064,0.025-0.143,0.042-0.217,0.059c-0.032,0.009-0.06,0.021-0.096,0.028c-0.105,0.018-0.21,0.025-0.326,0.027H187.696z"/>
</g>
</svg>
